%TF.GenerationSoftware,KiCad,Pcbnew,7.0.5-7.0.5~ubuntu20.04.1*%
%TF.CreationDate,2023-12-02T16:13:28+01:00*%
%TF.ProjectId,ST_prot,53545f70-726f-4742-9e6b-696361645f70,rev?*%
%TF.SameCoordinates,Original*%
%TF.FileFunction,Legend,Bot*%
%TF.FilePolarity,Positive*%
%FSLAX46Y46*%
G04 Gerber Fmt 4.6, Leading zero omitted, Abs format (unit mm)*
G04 Created by KiCad (PCBNEW 7.0.5-7.0.5~ubuntu20.04.1) date 2023-12-02 16:13:28*
%MOMM*%
%LPD*%
G01*
G04 APERTURE LIST*
%ADD10C,0.150000*%
G04 APERTURE END LIST*
D10*
X85952800Y-36155046D02*
X85905180Y-36012189D01*
X85905180Y-36012189D02*
X85905180Y-35774094D01*
X85905180Y-35774094D02*
X85952800Y-35678856D01*
X85952800Y-35678856D02*
X86000419Y-35631237D01*
X86000419Y-35631237D02*
X86095657Y-35583618D01*
X86095657Y-35583618D02*
X86190895Y-35583618D01*
X86190895Y-35583618D02*
X86286133Y-35631237D01*
X86286133Y-35631237D02*
X86333752Y-35678856D01*
X86333752Y-35678856D02*
X86381371Y-35774094D01*
X86381371Y-35774094D02*
X86428990Y-35964570D01*
X86428990Y-35964570D02*
X86476609Y-36059808D01*
X86476609Y-36059808D02*
X86524228Y-36107427D01*
X86524228Y-36107427D02*
X86619466Y-36155046D01*
X86619466Y-36155046D02*
X86714704Y-36155046D01*
X86714704Y-36155046D02*
X86809942Y-36107427D01*
X86809942Y-36107427D02*
X86857561Y-36059808D01*
X86857561Y-36059808D02*
X86905180Y-35964570D01*
X86905180Y-35964570D02*
X86905180Y-35726475D01*
X86905180Y-35726475D02*
X86857561Y-35583618D01*
X86905180Y-35250284D02*
X85905180Y-35012189D01*
X85905180Y-35012189D02*
X86619466Y-34821713D01*
X86619466Y-34821713D02*
X85905180Y-34631237D01*
X85905180Y-34631237D02*
X86905180Y-34393142D01*
X85905180Y-34012189D02*
X86905180Y-34012189D01*
X86905180Y-34012189D02*
X86905180Y-33774094D01*
X86905180Y-33774094D02*
X86857561Y-33631237D01*
X86857561Y-33631237D02*
X86762323Y-33535999D01*
X86762323Y-33535999D02*
X86667085Y-33488380D01*
X86667085Y-33488380D02*
X86476609Y-33440761D01*
X86476609Y-33440761D02*
X86333752Y-33440761D01*
X86333752Y-33440761D02*
X86143276Y-33488380D01*
X86143276Y-33488380D02*
X86048038Y-33535999D01*
X86048038Y-33535999D02*
X85952800Y-33631237D01*
X85952800Y-33631237D02*
X85905180Y-33774094D01*
X85905180Y-33774094D02*
X85905180Y-34012189D01*
X85905180Y-33012189D02*
X86905180Y-33012189D01*
X86905180Y-32345523D02*
X86905180Y-32155047D01*
X86905180Y-32155047D02*
X86857561Y-32059809D01*
X86857561Y-32059809D02*
X86762323Y-31964571D01*
X86762323Y-31964571D02*
X86571847Y-31916952D01*
X86571847Y-31916952D02*
X86238514Y-31916952D01*
X86238514Y-31916952D02*
X86048038Y-31964571D01*
X86048038Y-31964571D02*
X85952800Y-32059809D01*
X85952800Y-32059809D02*
X85905180Y-32155047D01*
X85905180Y-32155047D02*
X85905180Y-32345523D01*
X85905180Y-32345523D02*
X85952800Y-32440761D01*
X85952800Y-32440761D02*
X86048038Y-32535999D01*
X86048038Y-32535999D02*
X86238514Y-32583618D01*
X86238514Y-32583618D02*
X86571847Y-32583618D01*
X86571847Y-32583618D02*
X86762323Y-32535999D01*
X86762323Y-32535999D02*
X86857561Y-32440761D01*
X86857561Y-32440761D02*
X86905180Y-32345523D01*
X83392800Y-36961904D02*
X83345180Y-36819047D01*
X83345180Y-36819047D02*
X83345180Y-36580952D01*
X83345180Y-36580952D02*
X83392800Y-36485714D01*
X83392800Y-36485714D02*
X83440419Y-36438095D01*
X83440419Y-36438095D02*
X83535657Y-36390476D01*
X83535657Y-36390476D02*
X83630895Y-36390476D01*
X83630895Y-36390476D02*
X83726133Y-36438095D01*
X83726133Y-36438095D02*
X83773752Y-36485714D01*
X83773752Y-36485714D02*
X83821371Y-36580952D01*
X83821371Y-36580952D02*
X83868990Y-36771428D01*
X83868990Y-36771428D02*
X83916609Y-36866666D01*
X83916609Y-36866666D02*
X83964228Y-36914285D01*
X83964228Y-36914285D02*
X84059466Y-36961904D01*
X84059466Y-36961904D02*
X84154704Y-36961904D01*
X84154704Y-36961904D02*
X84249942Y-36914285D01*
X84249942Y-36914285D02*
X84297561Y-36866666D01*
X84297561Y-36866666D02*
X84345180Y-36771428D01*
X84345180Y-36771428D02*
X84345180Y-36533333D01*
X84345180Y-36533333D02*
X84297561Y-36390476D01*
X84345180Y-36057142D02*
X83345180Y-35819047D01*
X83345180Y-35819047D02*
X84059466Y-35628571D01*
X84059466Y-35628571D02*
X83345180Y-35438095D01*
X83345180Y-35438095D02*
X84345180Y-35200000D01*
X83440419Y-34247619D02*
X83392800Y-34295238D01*
X83392800Y-34295238D02*
X83345180Y-34438095D01*
X83345180Y-34438095D02*
X83345180Y-34533333D01*
X83345180Y-34533333D02*
X83392800Y-34676190D01*
X83392800Y-34676190D02*
X83488038Y-34771428D01*
X83488038Y-34771428D02*
X83583276Y-34819047D01*
X83583276Y-34819047D02*
X83773752Y-34866666D01*
X83773752Y-34866666D02*
X83916609Y-34866666D01*
X83916609Y-34866666D02*
X84107085Y-34819047D01*
X84107085Y-34819047D02*
X84202323Y-34771428D01*
X84202323Y-34771428D02*
X84297561Y-34676190D01*
X84297561Y-34676190D02*
X84345180Y-34533333D01*
X84345180Y-34533333D02*
X84345180Y-34438095D01*
X84345180Y-34438095D02*
X84297561Y-34295238D01*
X84297561Y-34295238D02*
X84249942Y-34247619D01*
X83345180Y-33342857D02*
X83345180Y-33819047D01*
X83345180Y-33819047D02*
X84345180Y-33819047D01*
X83345180Y-33009523D02*
X84345180Y-33009523D01*
X83345180Y-32438095D02*
X83916609Y-32866666D01*
X84345180Y-32438095D02*
X83773752Y-33009523D01*
M02*
