%TF.GenerationSoftware,KiCad,Pcbnew,7.0.5-7.0.5~ubuntu20.04.1*%
%TF.CreationDate,2023-12-02T16:13:28+01:00*%
%TF.ProjectId,ST_prot,53545f70-726f-4742-9e6b-696361645f70,rev?*%
%TF.SameCoordinates,Original*%
%TF.FileFunction,Legend,Top*%
%TF.FilePolarity,Positive*%
%FSLAX46Y46*%
G04 Gerber Fmt 4.6, Leading zero omitted, Abs format (unit mm)*
G04 Created by KiCad (PCBNEW 7.0.5-7.0.5~ubuntu20.04.1) date 2023-12-02 16:13:28*
%MOMM*%
%LPD*%
G01*
G04 APERTURE LIST*
%ADD10C,0.120000*%
%ADD11C,0.150000*%
%ADD12C,0.250000*%
%ADD13C,0.125000*%
G04 APERTURE END LIST*
D10*
X84950000Y-54550000D02*
G75*
G03*
X84950000Y-54550000I-50000J0D01*
G01*
X69773000Y-42164000D02*
G75*
G03*
X69773000Y-42164000I-50000J0D01*
G01*
X86918000Y-47625000D02*
G75*
G03*
X86918000Y-47625000I-50000J0D01*
G01*
D11*
X88773048Y-58673866D02*
X89534953Y-58673866D01*
X69469048Y-54683866D02*
X70230953Y-54683866D01*
X69850000Y-55064819D02*
X69850000Y-54302914D01*
X91059048Y-32763866D02*
X91820953Y-32763866D01*
X91440000Y-33144819D02*
X91440000Y-32382914D01*
D12*
X65451761Y-57853619D02*
X65576761Y-56853619D01*
X66100571Y-57806000D02*
X66308904Y-57853619D01*
X66308904Y-57853619D02*
X66666047Y-57853619D01*
X66666047Y-57853619D02*
X66814857Y-57806000D01*
X66814857Y-57806000D02*
X66892237Y-57758380D01*
X66892237Y-57758380D02*
X66975571Y-57663142D01*
X66975571Y-57663142D02*
X66987476Y-57567904D01*
X66987476Y-57567904D02*
X66927952Y-57472666D01*
X66927952Y-57472666D02*
X66862476Y-57425047D01*
X66862476Y-57425047D02*
X66725571Y-57377428D01*
X66725571Y-57377428D02*
X66445809Y-57329809D01*
X66445809Y-57329809D02*
X66308904Y-57282190D01*
X66308904Y-57282190D02*
X66243428Y-57234571D01*
X66243428Y-57234571D02*
X66183904Y-57139333D01*
X66183904Y-57139333D02*
X66195809Y-57044095D01*
X66195809Y-57044095D02*
X66279142Y-56948857D01*
X66279142Y-56948857D02*
X66356523Y-56901238D01*
X66356523Y-56901238D02*
X66505333Y-56853619D01*
X66505333Y-56853619D02*
X66862476Y-56853619D01*
X66862476Y-56853619D02*
X67070809Y-56901238D01*
X67594618Y-57853619D02*
X67719618Y-56853619D01*
X67719618Y-56853619D02*
X68130332Y-57567904D01*
X68130332Y-57567904D02*
X68719618Y-56853619D01*
X68719618Y-56853619D02*
X68594618Y-57853619D01*
X69273190Y-57567904D02*
X69987475Y-57567904D01*
X69094618Y-57853619D02*
X69719618Y-56853619D01*
X69719618Y-56853619D02*
X70094618Y-57853619D01*
X70594618Y-57853619D02*
X70719618Y-56853619D01*
X72023190Y-57853619D02*
X71308904Y-57853619D01*
X71308904Y-57853619D02*
X71433904Y-56853619D01*
X74880333Y-57853619D02*
X74808904Y-57853619D01*
X74808904Y-57853619D02*
X74671999Y-57806000D01*
X74671999Y-57806000D02*
X74475571Y-57663142D01*
X74475571Y-57663142D02*
X74154142Y-57377428D01*
X74154142Y-57377428D02*
X74029142Y-57234571D01*
X74029142Y-57234571D02*
X73975571Y-57091714D01*
X73975571Y-57091714D02*
X73987476Y-56996476D01*
X73987476Y-56996476D02*
X74070809Y-56901238D01*
X74070809Y-56901238D02*
X74219618Y-56853619D01*
X74219618Y-56853619D02*
X74291047Y-56853619D01*
X74291047Y-56853619D02*
X74427952Y-56901238D01*
X74427952Y-56901238D02*
X74487476Y-56996476D01*
X74487476Y-56996476D02*
X74481523Y-57044095D01*
X74481523Y-57044095D02*
X74398190Y-57139333D01*
X74398190Y-57139333D02*
X74320809Y-57186952D01*
X74320809Y-57186952D02*
X73868428Y-57377428D01*
X73868428Y-57377428D02*
X73791047Y-57425047D01*
X73791047Y-57425047D02*
X73707714Y-57520285D01*
X73707714Y-57520285D02*
X73689857Y-57663142D01*
X73689857Y-57663142D02*
X73749380Y-57758380D01*
X73749380Y-57758380D02*
X73814857Y-57806000D01*
X73814857Y-57806000D02*
X73951761Y-57853619D01*
X73951761Y-57853619D02*
X74166047Y-57853619D01*
X74166047Y-57853619D02*
X74314857Y-57806000D01*
X74314857Y-57806000D02*
X74392237Y-57758380D01*
X74392237Y-57758380D02*
X74630333Y-57567904D01*
X74630333Y-57567904D02*
X74719618Y-57425047D01*
X74719618Y-57425047D02*
X74731523Y-57329809D01*
X76630333Y-57567904D02*
X77344618Y-57567904D01*
X76451761Y-57853619D02*
X77076761Y-56853619D01*
X77076761Y-56853619D02*
X77451761Y-57853619D01*
X77951761Y-57853619D02*
X78076761Y-56853619D01*
X78017237Y-57329809D02*
X78874380Y-57329809D01*
X78808904Y-57853619D02*
X78933904Y-56853619D01*
X79523190Y-57853619D02*
X79648190Y-56853619D01*
X79648190Y-56853619D02*
X80058904Y-57567904D01*
X80058904Y-57567904D02*
X80648190Y-56853619D01*
X80648190Y-56853619D02*
X80523190Y-57853619D01*
X81302952Y-57329809D02*
X81802952Y-57329809D01*
X81951762Y-57853619D02*
X81237476Y-57853619D01*
X81237476Y-57853619D02*
X81362476Y-56853619D01*
X81362476Y-56853619D02*
X82076762Y-56853619D01*
X82594619Y-57853619D02*
X82719619Y-56853619D01*
X82719619Y-56853619D02*
X83076762Y-56853619D01*
X83076762Y-56853619D02*
X83285095Y-56901238D01*
X83285095Y-56901238D02*
X83416048Y-56996476D01*
X83416048Y-56996476D02*
X83475571Y-57091714D01*
X83475571Y-57091714D02*
X83523190Y-57282190D01*
X83523190Y-57282190D02*
X83505333Y-57425047D01*
X83505333Y-57425047D02*
X83410095Y-57615523D01*
X83410095Y-57615523D02*
X83326762Y-57710761D01*
X83326762Y-57710761D02*
X83172000Y-57806000D01*
X83172000Y-57806000D02*
X82951762Y-57853619D01*
X82951762Y-57853619D02*
X82594619Y-57853619D01*
D11*
X88519048Y-32763866D02*
X89280953Y-32763866D01*
X80742523Y-49222819D02*
X80867523Y-48222819D01*
X80867523Y-48222819D02*
X81248476Y-48222819D01*
X81248476Y-48222819D02*
X81337761Y-48270438D01*
X81337761Y-48270438D02*
X81379428Y-48318057D01*
X81379428Y-48318057D02*
X81415142Y-48413295D01*
X81415142Y-48413295D02*
X81397285Y-48556152D01*
X81397285Y-48556152D02*
X81337761Y-48651390D01*
X81337761Y-48651390D02*
X81284190Y-48699009D01*
X81284190Y-48699009D02*
X81183000Y-48746628D01*
X81183000Y-48746628D02*
X80802047Y-48746628D01*
X82058000Y-48222819D02*
X82248476Y-48222819D01*
X82248476Y-48222819D02*
X82337761Y-48270438D01*
X82337761Y-48270438D02*
X82421095Y-48365676D01*
X82421095Y-48365676D02*
X82444904Y-48556152D01*
X82444904Y-48556152D02*
X82403238Y-48889485D01*
X82403238Y-48889485D02*
X82331809Y-49079961D01*
X82331809Y-49079961D02*
X82224666Y-49175200D01*
X82224666Y-49175200D02*
X82123476Y-49222819D01*
X82123476Y-49222819D02*
X81933000Y-49222819D01*
X81933000Y-49222819D02*
X81843714Y-49175200D01*
X81843714Y-49175200D02*
X81760381Y-49079961D01*
X81760381Y-49079961D02*
X81736571Y-48889485D01*
X81736571Y-48889485D02*
X81778238Y-48556152D01*
X81778238Y-48556152D02*
X81849666Y-48365676D01*
X81849666Y-48365676D02*
X81956809Y-48270438D01*
X81956809Y-48270438D02*
X82058000Y-48222819D01*
X82819904Y-48222819D02*
X82933000Y-49222819D01*
X82933000Y-49222819D02*
X83212761Y-48508533D01*
X83212761Y-48508533D02*
X83313952Y-49222819D01*
X83313952Y-49222819D02*
X83677047Y-48222819D01*
X83998476Y-48699009D02*
X84331809Y-48699009D01*
X84409190Y-49222819D02*
X83932999Y-49222819D01*
X83932999Y-49222819D02*
X84057999Y-48222819D01*
X84057999Y-48222819D02*
X84534190Y-48222819D01*
X85409190Y-49222819D02*
X85135380Y-48746628D01*
X84837761Y-49222819D02*
X84962761Y-48222819D01*
X84962761Y-48222819D02*
X85343714Y-48222819D01*
X85343714Y-48222819D02*
X85432999Y-48270438D01*
X85432999Y-48270438D02*
X85474666Y-48318057D01*
X85474666Y-48318057D02*
X85510380Y-48413295D01*
X85510380Y-48413295D02*
X85492523Y-48556152D01*
X85492523Y-48556152D02*
X85432999Y-48651390D01*
X85432999Y-48651390D02*
X85379428Y-48699009D01*
X85379428Y-48699009D02*
X85278238Y-48746628D01*
X85278238Y-48746628D02*
X84897285Y-48746628D01*
D13*
X71627487Y-48024343D02*
X72031548Y-48428404D01*
X72031548Y-48428404D02*
X72085422Y-48536153D01*
X72085422Y-48536153D02*
X72085422Y-48643903D01*
X72085422Y-48643903D02*
X72031548Y-48751653D01*
X72031548Y-48751653D02*
X71977673Y-48805527D01*
X72731920Y-48051280D02*
X72462546Y-48320654D01*
X72462546Y-48320654D02*
X71896861Y-47754969D01*
X73189856Y-47485595D02*
X73189856Y-47539470D01*
X73189856Y-47539470D02*
X73135981Y-47647219D01*
X73135981Y-47647219D02*
X73082106Y-47701094D01*
X73082106Y-47701094D02*
X72974357Y-47754969D01*
X72974357Y-47754969D02*
X72866607Y-47754969D01*
X72866607Y-47754969D02*
X72785795Y-47728031D01*
X72785795Y-47728031D02*
X72651108Y-47647219D01*
X72651108Y-47647219D02*
X72570296Y-47566407D01*
X72570296Y-47566407D02*
X72489484Y-47431720D01*
X72489484Y-47431720D02*
X72462546Y-47350908D01*
X72462546Y-47350908D02*
X72462546Y-47243158D01*
X72462546Y-47243158D02*
X72516421Y-47135409D01*
X72516421Y-47135409D02*
X72570296Y-47081534D01*
X72570296Y-47081534D02*
X72678045Y-47027659D01*
X72678045Y-47027659D02*
X72731920Y-47027659D01*
X73082106Y-46569723D02*
X73486167Y-46973784D01*
X73486167Y-46973784D02*
X73540042Y-47081534D01*
X73540042Y-47081534D02*
X73540042Y-47189283D01*
X73540042Y-47189283D02*
X73486167Y-47297033D01*
X73486167Y-47297033D02*
X73432293Y-47350908D01*
X74186540Y-46596660D02*
X73917166Y-46866034D01*
X73917166Y-46866034D02*
X73351481Y-46300349D01*
X74644476Y-46030975D02*
X74644476Y-46084850D01*
X74644476Y-46084850D02*
X74590601Y-46192599D01*
X74590601Y-46192599D02*
X74536726Y-46246474D01*
X74536726Y-46246474D02*
X74428977Y-46300349D01*
X74428977Y-46300349D02*
X74321227Y-46300349D01*
X74321227Y-46300349D02*
X74240415Y-46273412D01*
X74240415Y-46273412D02*
X74105728Y-46192599D01*
X74105728Y-46192599D02*
X74024916Y-46111787D01*
X74024916Y-46111787D02*
X73944103Y-45977100D01*
X73944103Y-45977100D02*
X73917166Y-45896288D01*
X73917166Y-45896288D02*
X73917166Y-45788538D01*
X73917166Y-45788538D02*
X73971041Y-45680789D01*
X73971041Y-45680789D02*
X74024916Y-45626914D01*
X74024916Y-45626914D02*
X74132665Y-45573039D01*
X74132665Y-45573039D02*
X74186540Y-45573039D01*
X74536726Y-45115103D02*
X74940787Y-45519164D01*
X74940787Y-45519164D02*
X74994662Y-45626914D01*
X74994662Y-45626914D02*
X74994662Y-45734664D01*
X74994662Y-45734664D02*
X74940787Y-45842413D01*
X74940787Y-45842413D02*
X74886912Y-45896288D01*
X75641160Y-45142041D02*
X75371786Y-45411415D01*
X75371786Y-45411415D02*
X74806100Y-44845729D01*
X76099096Y-44576355D02*
X76099096Y-44630230D01*
X76099096Y-44630230D02*
X76045221Y-44737980D01*
X76045221Y-44737980D02*
X75991346Y-44791854D01*
X75991346Y-44791854D02*
X75883596Y-44845729D01*
X75883596Y-44845729D02*
X75775847Y-44845729D01*
X75775847Y-44845729D02*
X75695034Y-44818792D01*
X75695034Y-44818792D02*
X75560347Y-44737980D01*
X75560347Y-44737980D02*
X75479535Y-44657167D01*
X75479535Y-44657167D02*
X75398723Y-44522480D01*
X75398723Y-44522480D02*
X75371786Y-44441668D01*
X75371786Y-44441668D02*
X75371786Y-44333919D01*
X75371786Y-44333919D02*
X75425660Y-44226169D01*
X75425660Y-44226169D02*
X75479535Y-44172294D01*
X75479535Y-44172294D02*
X75587285Y-44118419D01*
X75587285Y-44118419D02*
X75641160Y-44118419D01*
X75991346Y-43660484D02*
X76395407Y-44064545D01*
X76395407Y-44064545D02*
X76449282Y-44172294D01*
X76449282Y-44172294D02*
X76449282Y-44280044D01*
X76449282Y-44280044D02*
X76395407Y-44387793D01*
X76395407Y-44387793D02*
X76341532Y-44441668D01*
X77095779Y-43687421D02*
X76826405Y-43956795D01*
X76826405Y-43956795D02*
X76260720Y-43391109D01*
X77553715Y-43121735D02*
X77553715Y-43175610D01*
X77553715Y-43175610D02*
X77499840Y-43283360D01*
X77499840Y-43283360D02*
X77445966Y-43337235D01*
X77445966Y-43337235D02*
X77338216Y-43391109D01*
X77338216Y-43391109D02*
X77230466Y-43391109D01*
X77230466Y-43391109D02*
X77149654Y-43364172D01*
X77149654Y-43364172D02*
X77014967Y-43283360D01*
X77014967Y-43283360D02*
X76934155Y-43202548D01*
X76934155Y-43202548D02*
X76853343Y-43067861D01*
X76853343Y-43067861D02*
X76826405Y-42987048D01*
X76826405Y-42987048D02*
X76826405Y-42879299D01*
X76826405Y-42879299D02*
X76880280Y-42771549D01*
X76880280Y-42771549D02*
X76934155Y-42717674D01*
X76934155Y-42717674D02*
X77041905Y-42663800D01*
X77041905Y-42663800D02*
X77095779Y-42663800D01*
D11*
X91059048Y-58673866D02*
X91820953Y-58673866D01*
X91440000Y-59054819D02*
X91440000Y-58292914D01*
D12*
X78796430Y-35665000D02*
X79004763Y-35712619D01*
X79004763Y-35712619D02*
X79361906Y-35712619D01*
X79361906Y-35712619D02*
X79510716Y-35665000D01*
X79510716Y-35665000D02*
X79588096Y-35617380D01*
X79588096Y-35617380D02*
X79671430Y-35522142D01*
X79671430Y-35522142D02*
X79683335Y-35426904D01*
X79683335Y-35426904D02*
X79623811Y-35331666D01*
X79623811Y-35331666D02*
X79558335Y-35284047D01*
X79558335Y-35284047D02*
X79421430Y-35236428D01*
X79421430Y-35236428D02*
X79141668Y-35188809D01*
X79141668Y-35188809D02*
X79004763Y-35141190D01*
X79004763Y-35141190D02*
X78939287Y-35093571D01*
X78939287Y-35093571D02*
X78879763Y-34998333D01*
X78879763Y-34998333D02*
X78891668Y-34903095D01*
X78891668Y-34903095D02*
X78975001Y-34807857D01*
X78975001Y-34807857D02*
X79052382Y-34760238D01*
X79052382Y-34760238D02*
X79201192Y-34712619D01*
X79201192Y-34712619D02*
X79558335Y-34712619D01*
X79558335Y-34712619D02*
X79766668Y-34760238D01*
X80201191Y-34712619D02*
X81058334Y-34712619D01*
X80504763Y-35712619D02*
X80629763Y-34712619D01*
X81433334Y-35712619D02*
X81558334Y-34712619D01*
X81558334Y-34712619D02*
X81969048Y-35426904D01*
X81969048Y-35426904D02*
X82558334Y-34712619D01*
X82558334Y-34712619D02*
X82433334Y-35712619D01*
X83129763Y-34712619D02*
X84058334Y-34712619D01*
X84058334Y-34712619D02*
X83510715Y-35093571D01*
X83510715Y-35093571D02*
X83725001Y-35093571D01*
X83725001Y-35093571D02*
X83861906Y-35141190D01*
X83861906Y-35141190D02*
X83927382Y-35188809D01*
X83927382Y-35188809D02*
X83986906Y-35284047D01*
X83986906Y-35284047D02*
X83957144Y-35522142D01*
X83957144Y-35522142D02*
X83873810Y-35617380D01*
X83873810Y-35617380D02*
X83796430Y-35665000D01*
X83796430Y-35665000D02*
X83647620Y-35712619D01*
X83647620Y-35712619D02*
X83219049Y-35712619D01*
X83219049Y-35712619D02*
X83082144Y-35665000D01*
X83082144Y-35665000D02*
X83016668Y-35617380D01*
X84617858Y-34807857D02*
X84695239Y-34760238D01*
X84695239Y-34760238D02*
X84844048Y-34712619D01*
X84844048Y-34712619D02*
X85201191Y-34712619D01*
X85201191Y-34712619D02*
X85338096Y-34760238D01*
X85338096Y-34760238D02*
X85403572Y-34807857D01*
X85403572Y-34807857D02*
X85463096Y-34903095D01*
X85463096Y-34903095D02*
X85451191Y-34998333D01*
X85451191Y-34998333D02*
X85361905Y-35141190D01*
X85361905Y-35141190D02*
X84433334Y-35712619D01*
X84433334Y-35712619D02*
X85361905Y-35712619D01*
X86570238Y-35188809D02*
X86070238Y-35188809D01*
X86004762Y-35712619D02*
X86129762Y-34712619D01*
X86129762Y-34712619D02*
X86844048Y-34712619D01*
X88076190Y-35712619D02*
X87219047Y-35712619D01*
X87647619Y-35712619D02*
X87772619Y-34712619D01*
X87772619Y-34712619D02*
X87611905Y-34855476D01*
X87611905Y-34855476D02*
X87457143Y-34950714D01*
X87457143Y-34950714D02*
X87308333Y-34998333D01*
X88766666Y-35331666D02*
X89909523Y-35331666D01*
X90486904Y-34712619D02*
X90861904Y-35712619D01*
X90861904Y-35712619D02*
X91486904Y-34712619D01*
X92647618Y-35712619D02*
X91790475Y-35712619D01*
X92219047Y-35712619D02*
X92344047Y-34712619D01*
X92344047Y-34712619D02*
X92183333Y-34855476D01*
X92183333Y-34855476D02*
X92028571Y-34950714D01*
X92028571Y-34950714D02*
X91879761Y-34998333D01*
X79004761Y-37322619D02*
X79129761Y-36322619D01*
X79129761Y-36322619D02*
X79701190Y-36322619D01*
X79701190Y-36322619D02*
X79838094Y-36370238D01*
X79838094Y-36370238D02*
X79903571Y-36417857D01*
X79903571Y-36417857D02*
X79963094Y-36513095D01*
X79963094Y-36513095D02*
X79945237Y-36655952D01*
X79945237Y-36655952D02*
X79861904Y-36751190D01*
X79861904Y-36751190D02*
X79784523Y-36798809D01*
X79784523Y-36798809D02*
X79635713Y-36846428D01*
X79635713Y-36846428D02*
X79064285Y-36846428D01*
X81361904Y-37322619D02*
X80921428Y-36846428D01*
X80504761Y-37322619D02*
X80629761Y-36322619D01*
X80629761Y-36322619D02*
X81201190Y-36322619D01*
X81201190Y-36322619D02*
X81338094Y-36370238D01*
X81338094Y-36370238D02*
X81403571Y-36417857D01*
X81403571Y-36417857D02*
X81463094Y-36513095D01*
X81463094Y-36513095D02*
X81445237Y-36655952D01*
X81445237Y-36655952D02*
X81361904Y-36751190D01*
X81361904Y-36751190D02*
X81284523Y-36798809D01*
X81284523Y-36798809D02*
X81135713Y-36846428D01*
X81135713Y-36846428D02*
X80564285Y-36846428D01*
X82415475Y-36322619D02*
X82701190Y-36322619D01*
X82701190Y-36322619D02*
X82838094Y-36370238D01*
X82838094Y-36370238D02*
X82969047Y-36465476D01*
X82969047Y-36465476D02*
X83016666Y-36655952D01*
X83016666Y-36655952D02*
X82974999Y-36989285D01*
X82974999Y-36989285D02*
X82879761Y-37179761D01*
X82879761Y-37179761D02*
X82724999Y-37275000D01*
X82724999Y-37275000D02*
X82576190Y-37322619D01*
X82576190Y-37322619D02*
X82290475Y-37322619D01*
X82290475Y-37322619D02*
X82153571Y-37275000D01*
X82153571Y-37275000D02*
X82022618Y-37179761D01*
X82022618Y-37179761D02*
X81974999Y-36989285D01*
X81974999Y-36989285D02*
X82016666Y-36655952D01*
X82016666Y-36655952D02*
X82111904Y-36465476D01*
X82111904Y-36465476D02*
X82266666Y-36370238D01*
X82266666Y-36370238D02*
X82415475Y-36322619D01*
X83486904Y-36322619D02*
X84344047Y-36322619D01*
X83790476Y-37322619D02*
X83915476Y-36322619D01*
X85129761Y-36322619D02*
X85415476Y-36322619D01*
X85415476Y-36322619D02*
X85552380Y-36370238D01*
X85552380Y-36370238D02*
X85683333Y-36465476D01*
X85683333Y-36465476D02*
X85730952Y-36655952D01*
X85730952Y-36655952D02*
X85689285Y-36989285D01*
X85689285Y-36989285D02*
X85594047Y-37179761D01*
X85594047Y-37179761D02*
X85439285Y-37275000D01*
X85439285Y-37275000D02*
X85290476Y-37322619D01*
X85290476Y-37322619D02*
X85004761Y-37322619D01*
X85004761Y-37322619D02*
X84867857Y-37275000D01*
X84867857Y-37275000D02*
X84736904Y-37179761D01*
X84736904Y-37179761D02*
X84689285Y-36989285D01*
X84689285Y-36989285D02*
X84730952Y-36655952D01*
X84730952Y-36655952D02*
X84826190Y-36465476D01*
X84826190Y-36465476D02*
X84980952Y-36370238D01*
X84980952Y-36370238D02*
X85129761Y-36322619D01*
X86201190Y-36322619D02*
X87058333Y-36322619D01*
X86504762Y-37322619D02*
X86629762Y-36322619D01*
X87778571Y-36846428D02*
X87719047Y-37322619D01*
X87344047Y-36322619D02*
X87778571Y-36846428D01*
X87778571Y-36846428D02*
X88344047Y-36322619D01*
X89129761Y-36322619D02*
X89415476Y-36322619D01*
X89415476Y-36322619D02*
X89552380Y-36370238D01*
X89552380Y-36370238D02*
X89683333Y-36465476D01*
X89683333Y-36465476D02*
X89730952Y-36655952D01*
X89730952Y-36655952D02*
X89689285Y-36989285D01*
X89689285Y-36989285D02*
X89594047Y-37179761D01*
X89594047Y-37179761D02*
X89439285Y-37275000D01*
X89439285Y-37275000D02*
X89290476Y-37322619D01*
X89290476Y-37322619D02*
X89004761Y-37322619D01*
X89004761Y-37322619D02*
X88867857Y-37275000D01*
X88867857Y-37275000D02*
X88736904Y-37179761D01*
X88736904Y-37179761D02*
X88689285Y-36989285D01*
X88689285Y-36989285D02*
X88730952Y-36655952D01*
X88730952Y-36655952D02*
X88826190Y-36465476D01*
X88826190Y-36465476D02*
X88980952Y-36370238D01*
X88980952Y-36370238D02*
X89129761Y-36322619D01*
X90290476Y-37322619D02*
X90415476Y-36322619D01*
X90415476Y-36322619D02*
X90986905Y-36322619D01*
X90986905Y-36322619D02*
X91123809Y-36370238D01*
X91123809Y-36370238D02*
X91189286Y-36417857D01*
X91189286Y-36417857D02*
X91248809Y-36513095D01*
X91248809Y-36513095D02*
X91230952Y-36655952D01*
X91230952Y-36655952D02*
X91147619Y-36751190D01*
X91147619Y-36751190D02*
X91070238Y-36798809D01*
X91070238Y-36798809D02*
X90921428Y-36846428D01*
X90921428Y-36846428D02*
X90350000Y-36846428D01*
X91855952Y-36798809D02*
X92355952Y-36798809D01*
X92504762Y-37322619D02*
X91790476Y-37322619D01*
X91790476Y-37322619D02*
X91915476Y-36322619D01*
X91915476Y-36322619D02*
X92629762Y-36322619D01*
D11*
%TO.C,C1*%
X81875333Y-50778580D02*
X81827714Y-50826200D01*
X81827714Y-50826200D02*
X81684857Y-50873819D01*
X81684857Y-50873819D02*
X81589619Y-50873819D01*
X81589619Y-50873819D02*
X81446762Y-50826200D01*
X81446762Y-50826200D02*
X81351524Y-50730961D01*
X81351524Y-50730961D02*
X81303905Y-50635723D01*
X81303905Y-50635723D02*
X81256286Y-50445247D01*
X81256286Y-50445247D02*
X81256286Y-50302390D01*
X81256286Y-50302390D02*
X81303905Y-50111914D01*
X81303905Y-50111914D02*
X81351524Y-50016676D01*
X81351524Y-50016676D02*
X81446762Y-49921438D01*
X81446762Y-49921438D02*
X81589619Y-49873819D01*
X81589619Y-49873819D02*
X81684857Y-49873819D01*
X81684857Y-49873819D02*
X81827714Y-49921438D01*
X81827714Y-49921438D02*
X81875333Y-49969057D01*
X82827714Y-50873819D02*
X82256286Y-50873819D01*
X82542000Y-50873819D02*
X82542000Y-49873819D01*
X82542000Y-49873819D02*
X82446762Y-50016676D01*
X82446762Y-50016676D02*
X82351524Y-50111914D01*
X82351524Y-50111914D02*
X82256286Y-50159533D01*
%TO.C,C2*%
X84923333Y-56366580D02*
X84875714Y-56414200D01*
X84875714Y-56414200D02*
X84732857Y-56461819D01*
X84732857Y-56461819D02*
X84637619Y-56461819D01*
X84637619Y-56461819D02*
X84494762Y-56414200D01*
X84494762Y-56414200D02*
X84399524Y-56318961D01*
X84399524Y-56318961D02*
X84351905Y-56223723D01*
X84351905Y-56223723D02*
X84304286Y-56033247D01*
X84304286Y-56033247D02*
X84304286Y-55890390D01*
X84304286Y-55890390D02*
X84351905Y-55699914D01*
X84351905Y-55699914D02*
X84399524Y-55604676D01*
X84399524Y-55604676D02*
X84494762Y-55509438D01*
X84494762Y-55509438D02*
X84637619Y-55461819D01*
X84637619Y-55461819D02*
X84732857Y-55461819D01*
X84732857Y-55461819D02*
X84875714Y-55509438D01*
X84875714Y-55509438D02*
X84923333Y-55557057D01*
X85304286Y-55557057D02*
X85351905Y-55509438D01*
X85351905Y-55509438D02*
X85447143Y-55461819D01*
X85447143Y-55461819D02*
X85685238Y-55461819D01*
X85685238Y-55461819D02*
X85780476Y-55509438D01*
X85780476Y-55509438D02*
X85828095Y-55557057D01*
X85828095Y-55557057D02*
X85875714Y-55652295D01*
X85875714Y-55652295D02*
X85875714Y-55747533D01*
X85875714Y-55747533D02*
X85828095Y-55890390D01*
X85828095Y-55890390D02*
X85256667Y-56461819D01*
X85256667Y-56461819D02*
X85875714Y-56461819D01*
%TO.C,C3*%
X66254333Y-37062580D02*
X66206714Y-37110200D01*
X66206714Y-37110200D02*
X66063857Y-37157819D01*
X66063857Y-37157819D02*
X65968619Y-37157819D01*
X65968619Y-37157819D02*
X65825762Y-37110200D01*
X65825762Y-37110200D02*
X65730524Y-37014961D01*
X65730524Y-37014961D02*
X65682905Y-36919723D01*
X65682905Y-36919723D02*
X65635286Y-36729247D01*
X65635286Y-36729247D02*
X65635286Y-36586390D01*
X65635286Y-36586390D02*
X65682905Y-36395914D01*
X65682905Y-36395914D02*
X65730524Y-36300676D01*
X65730524Y-36300676D02*
X65825762Y-36205438D01*
X65825762Y-36205438D02*
X65968619Y-36157819D01*
X65968619Y-36157819D02*
X66063857Y-36157819D01*
X66063857Y-36157819D02*
X66206714Y-36205438D01*
X66206714Y-36205438D02*
X66254333Y-36253057D01*
X66587667Y-36157819D02*
X67206714Y-36157819D01*
X67206714Y-36157819D02*
X66873381Y-36538771D01*
X66873381Y-36538771D02*
X67016238Y-36538771D01*
X67016238Y-36538771D02*
X67111476Y-36586390D01*
X67111476Y-36586390D02*
X67159095Y-36634009D01*
X67159095Y-36634009D02*
X67206714Y-36729247D01*
X67206714Y-36729247D02*
X67206714Y-36967342D01*
X67206714Y-36967342D02*
X67159095Y-37062580D01*
X67159095Y-37062580D02*
X67111476Y-37110200D01*
X67111476Y-37110200D02*
X67016238Y-37157819D01*
X67016238Y-37157819D02*
X66730524Y-37157819D01*
X66730524Y-37157819D02*
X66635286Y-37110200D01*
X66635286Y-37110200D02*
X66587667Y-37062580D01*
%TO.C,C4*%
X64222333Y-37062580D02*
X64174714Y-37110200D01*
X64174714Y-37110200D02*
X64031857Y-37157819D01*
X64031857Y-37157819D02*
X63936619Y-37157819D01*
X63936619Y-37157819D02*
X63793762Y-37110200D01*
X63793762Y-37110200D02*
X63698524Y-37014961D01*
X63698524Y-37014961D02*
X63650905Y-36919723D01*
X63650905Y-36919723D02*
X63603286Y-36729247D01*
X63603286Y-36729247D02*
X63603286Y-36586390D01*
X63603286Y-36586390D02*
X63650905Y-36395914D01*
X63650905Y-36395914D02*
X63698524Y-36300676D01*
X63698524Y-36300676D02*
X63793762Y-36205438D01*
X63793762Y-36205438D02*
X63936619Y-36157819D01*
X63936619Y-36157819D02*
X64031857Y-36157819D01*
X64031857Y-36157819D02*
X64174714Y-36205438D01*
X64174714Y-36205438D02*
X64222333Y-36253057D01*
X65079476Y-36491152D02*
X65079476Y-37157819D01*
X64841381Y-36110200D02*
X64603286Y-36824485D01*
X64603286Y-36824485D02*
X65222333Y-36824485D01*
%TO.C,C5*%
X78179333Y-54113580D02*
X78131714Y-54161200D01*
X78131714Y-54161200D02*
X77988857Y-54208819D01*
X77988857Y-54208819D02*
X77893619Y-54208819D01*
X77893619Y-54208819D02*
X77750762Y-54161200D01*
X77750762Y-54161200D02*
X77655524Y-54065961D01*
X77655524Y-54065961D02*
X77607905Y-53970723D01*
X77607905Y-53970723D02*
X77560286Y-53780247D01*
X77560286Y-53780247D02*
X77560286Y-53637390D01*
X77560286Y-53637390D02*
X77607905Y-53446914D01*
X77607905Y-53446914D02*
X77655524Y-53351676D01*
X77655524Y-53351676D02*
X77750762Y-53256438D01*
X77750762Y-53256438D02*
X77893619Y-53208819D01*
X77893619Y-53208819D02*
X77988857Y-53208819D01*
X77988857Y-53208819D02*
X78131714Y-53256438D01*
X78131714Y-53256438D02*
X78179333Y-53304057D01*
X79084095Y-53208819D02*
X78607905Y-53208819D01*
X78607905Y-53208819D02*
X78560286Y-53685009D01*
X78560286Y-53685009D02*
X78607905Y-53637390D01*
X78607905Y-53637390D02*
X78703143Y-53589771D01*
X78703143Y-53589771D02*
X78941238Y-53589771D01*
X78941238Y-53589771D02*
X79036476Y-53637390D01*
X79036476Y-53637390D02*
X79084095Y-53685009D01*
X79084095Y-53685009D02*
X79131714Y-53780247D01*
X79131714Y-53780247D02*
X79131714Y-54018342D01*
X79131714Y-54018342D02*
X79084095Y-54113580D01*
X79084095Y-54113580D02*
X79036476Y-54161200D01*
X79036476Y-54161200D02*
X78941238Y-54208819D01*
X78941238Y-54208819D02*
X78703143Y-54208819D01*
X78703143Y-54208819D02*
X78607905Y-54161200D01*
X78607905Y-54161200D02*
X78560286Y-54113580D01*
%TO.C,C6*%
X83417580Y-40679666D02*
X83465200Y-40727285D01*
X83465200Y-40727285D02*
X83512819Y-40870142D01*
X83512819Y-40870142D02*
X83512819Y-40965380D01*
X83512819Y-40965380D02*
X83465200Y-41108237D01*
X83465200Y-41108237D02*
X83369961Y-41203475D01*
X83369961Y-41203475D02*
X83274723Y-41251094D01*
X83274723Y-41251094D02*
X83084247Y-41298713D01*
X83084247Y-41298713D02*
X82941390Y-41298713D01*
X82941390Y-41298713D02*
X82750914Y-41251094D01*
X82750914Y-41251094D02*
X82655676Y-41203475D01*
X82655676Y-41203475D02*
X82560438Y-41108237D01*
X82560438Y-41108237D02*
X82512819Y-40965380D01*
X82512819Y-40965380D02*
X82512819Y-40870142D01*
X82512819Y-40870142D02*
X82560438Y-40727285D01*
X82560438Y-40727285D02*
X82608057Y-40679666D01*
X82512819Y-39822523D02*
X82512819Y-40012999D01*
X82512819Y-40012999D02*
X82560438Y-40108237D01*
X82560438Y-40108237D02*
X82608057Y-40155856D01*
X82608057Y-40155856D02*
X82750914Y-40251094D01*
X82750914Y-40251094D02*
X82941390Y-40298713D01*
X82941390Y-40298713D02*
X83322342Y-40298713D01*
X83322342Y-40298713D02*
X83417580Y-40251094D01*
X83417580Y-40251094D02*
X83465200Y-40203475D01*
X83465200Y-40203475D02*
X83512819Y-40108237D01*
X83512819Y-40108237D02*
X83512819Y-39917761D01*
X83512819Y-39917761D02*
X83465200Y-39822523D01*
X83465200Y-39822523D02*
X83417580Y-39774904D01*
X83417580Y-39774904D02*
X83322342Y-39727285D01*
X83322342Y-39727285D02*
X83084247Y-39727285D01*
X83084247Y-39727285D02*
X82989009Y-39774904D01*
X82989009Y-39774904D02*
X82941390Y-39822523D01*
X82941390Y-39822523D02*
X82893771Y-39917761D01*
X82893771Y-39917761D02*
X82893771Y-40108237D01*
X82893771Y-40108237D02*
X82941390Y-40203475D01*
X82941390Y-40203475D02*
X82989009Y-40251094D01*
X82989009Y-40251094D02*
X83084247Y-40298713D01*
%TO.C,C7*%
X68286333Y-37062580D02*
X68238714Y-37110200D01*
X68238714Y-37110200D02*
X68095857Y-37157819D01*
X68095857Y-37157819D02*
X68000619Y-37157819D01*
X68000619Y-37157819D02*
X67857762Y-37110200D01*
X67857762Y-37110200D02*
X67762524Y-37014961D01*
X67762524Y-37014961D02*
X67714905Y-36919723D01*
X67714905Y-36919723D02*
X67667286Y-36729247D01*
X67667286Y-36729247D02*
X67667286Y-36586390D01*
X67667286Y-36586390D02*
X67714905Y-36395914D01*
X67714905Y-36395914D02*
X67762524Y-36300676D01*
X67762524Y-36300676D02*
X67857762Y-36205438D01*
X67857762Y-36205438D02*
X68000619Y-36157819D01*
X68000619Y-36157819D02*
X68095857Y-36157819D01*
X68095857Y-36157819D02*
X68238714Y-36205438D01*
X68238714Y-36205438D02*
X68286333Y-36253057D01*
X68619667Y-36157819D02*
X69286333Y-36157819D01*
X69286333Y-36157819D02*
X68857762Y-37157819D01*
%TO.C,C8*%
X66145580Y-47892666D02*
X66193200Y-47940285D01*
X66193200Y-47940285D02*
X66240819Y-48083142D01*
X66240819Y-48083142D02*
X66240819Y-48178380D01*
X66240819Y-48178380D02*
X66193200Y-48321237D01*
X66193200Y-48321237D02*
X66097961Y-48416475D01*
X66097961Y-48416475D02*
X66002723Y-48464094D01*
X66002723Y-48464094D02*
X65812247Y-48511713D01*
X65812247Y-48511713D02*
X65669390Y-48511713D01*
X65669390Y-48511713D02*
X65478914Y-48464094D01*
X65478914Y-48464094D02*
X65383676Y-48416475D01*
X65383676Y-48416475D02*
X65288438Y-48321237D01*
X65288438Y-48321237D02*
X65240819Y-48178380D01*
X65240819Y-48178380D02*
X65240819Y-48083142D01*
X65240819Y-48083142D02*
X65288438Y-47940285D01*
X65288438Y-47940285D02*
X65336057Y-47892666D01*
X65669390Y-47321237D02*
X65621771Y-47416475D01*
X65621771Y-47416475D02*
X65574152Y-47464094D01*
X65574152Y-47464094D02*
X65478914Y-47511713D01*
X65478914Y-47511713D02*
X65431295Y-47511713D01*
X65431295Y-47511713D02*
X65336057Y-47464094D01*
X65336057Y-47464094D02*
X65288438Y-47416475D01*
X65288438Y-47416475D02*
X65240819Y-47321237D01*
X65240819Y-47321237D02*
X65240819Y-47130761D01*
X65240819Y-47130761D02*
X65288438Y-47035523D01*
X65288438Y-47035523D02*
X65336057Y-46987904D01*
X65336057Y-46987904D02*
X65431295Y-46940285D01*
X65431295Y-46940285D02*
X65478914Y-46940285D01*
X65478914Y-46940285D02*
X65574152Y-46987904D01*
X65574152Y-46987904D02*
X65621771Y-47035523D01*
X65621771Y-47035523D02*
X65669390Y-47130761D01*
X65669390Y-47130761D02*
X65669390Y-47321237D01*
X65669390Y-47321237D02*
X65717009Y-47416475D01*
X65717009Y-47416475D02*
X65764628Y-47464094D01*
X65764628Y-47464094D02*
X65859866Y-47511713D01*
X65859866Y-47511713D02*
X66050342Y-47511713D01*
X66050342Y-47511713D02*
X66145580Y-47464094D01*
X66145580Y-47464094D02*
X66193200Y-47416475D01*
X66193200Y-47416475D02*
X66240819Y-47321237D01*
X66240819Y-47321237D02*
X66240819Y-47130761D01*
X66240819Y-47130761D02*
X66193200Y-47035523D01*
X66193200Y-47035523D02*
X66145580Y-46987904D01*
X66145580Y-46987904D02*
X66050342Y-46940285D01*
X66050342Y-46940285D02*
X65859866Y-46940285D01*
X65859866Y-46940285D02*
X65764628Y-46987904D01*
X65764628Y-46987904D02*
X65717009Y-47035523D01*
X65717009Y-47035523D02*
X65669390Y-47130761D01*
%TO.C,C10*%
X56647142Y-37918580D02*
X56599523Y-37966200D01*
X56599523Y-37966200D02*
X56456666Y-38013819D01*
X56456666Y-38013819D02*
X56361428Y-38013819D01*
X56361428Y-38013819D02*
X56218571Y-37966200D01*
X56218571Y-37966200D02*
X56123333Y-37870961D01*
X56123333Y-37870961D02*
X56075714Y-37775723D01*
X56075714Y-37775723D02*
X56028095Y-37585247D01*
X56028095Y-37585247D02*
X56028095Y-37442390D01*
X56028095Y-37442390D02*
X56075714Y-37251914D01*
X56075714Y-37251914D02*
X56123333Y-37156676D01*
X56123333Y-37156676D02*
X56218571Y-37061438D01*
X56218571Y-37061438D02*
X56361428Y-37013819D01*
X56361428Y-37013819D02*
X56456666Y-37013819D01*
X56456666Y-37013819D02*
X56599523Y-37061438D01*
X56599523Y-37061438D02*
X56647142Y-37109057D01*
X57599523Y-38013819D02*
X57028095Y-38013819D01*
X57313809Y-38013819D02*
X57313809Y-37013819D01*
X57313809Y-37013819D02*
X57218571Y-37156676D01*
X57218571Y-37156676D02*
X57123333Y-37251914D01*
X57123333Y-37251914D02*
X57028095Y-37299533D01*
X58218571Y-37013819D02*
X58313809Y-37013819D01*
X58313809Y-37013819D02*
X58409047Y-37061438D01*
X58409047Y-37061438D02*
X58456666Y-37109057D01*
X58456666Y-37109057D02*
X58504285Y-37204295D01*
X58504285Y-37204295D02*
X58551904Y-37394771D01*
X58551904Y-37394771D02*
X58551904Y-37632866D01*
X58551904Y-37632866D02*
X58504285Y-37823342D01*
X58504285Y-37823342D02*
X58456666Y-37918580D01*
X58456666Y-37918580D02*
X58409047Y-37966200D01*
X58409047Y-37966200D02*
X58313809Y-38013819D01*
X58313809Y-38013819D02*
X58218571Y-38013819D01*
X58218571Y-38013819D02*
X58123333Y-37966200D01*
X58123333Y-37966200D02*
X58075714Y-37918580D01*
X58075714Y-37918580D02*
X58028095Y-37823342D01*
X58028095Y-37823342D02*
X57980476Y-37632866D01*
X57980476Y-37632866D02*
X57980476Y-37394771D01*
X57980476Y-37394771D02*
X58028095Y-37204295D01*
X58028095Y-37204295D02*
X58075714Y-37109057D01*
X58075714Y-37109057D02*
X58123333Y-37061438D01*
X58123333Y-37061438D02*
X58218571Y-37013819D01*
%TO.C,C11*%
X59428142Y-55096580D02*
X59380523Y-55144200D01*
X59380523Y-55144200D02*
X59237666Y-55191819D01*
X59237666Y-55191819D02*
X59142428Y-55191819D01*
X59142428Y-55191819D02*
X58999571Y-55144200D01*
X58999571Y-55144200D02*
X58904333Y-55048961D01*
X58904333Y-55048961D02*
X58856714Y-54953723D01*
X58856714Y-54953723D02*
X58809095Y-54763247D01*
X58809095Y-54763247D02*
X58809095Y-54620390D01*
X58809095Y-54620390D02*
X58856714Y-54429914D01*
X58856714Y-54429914D02*
X58904333Y-54334676D01*
X58904333Y-54334676D02*
X58999571Y-54239438D01*
X58999571Y-54239438D02*
X59142428Y-54191819D01*
X59142428Y-54191819D02*
X59237666Y-54191819D01*
X59237666Y-54191819D02*
X59380523Y-54239438D01*
X59380523Y-54239438D02*
X59428142Y-54287057D01*
X60380523Y-55191819D02*
X59809095Y-55191819D01*
X60094809Y-55191819D02*
X60094809Y-54191819D01*
X60094809Y-54191819D02*
X59999571Y-54334676D01*
X59999571Y-54334676D02*
X59904333Y-54429914D01*
X59904333Y-54429914D02*
X59809095Y-54477533D01*
X61332904Y-55191819D02*
X60761476Y-55191819D01*
X61047190Y-55191819D02*
X61047190Y-54191819D01*
X61047190Y-54191819D02*
X60951952Y-54334676D01*
X60951952Y-54334676D02*
X60856714Y-54429914D01*
X60856714Y-54429914D02*
X60761476Y-54477533D01*
%TO.C,D1*%
X89812905Y-56207819D02*
X89812905Y-55207819D01*
X89812905Y-55207819D02*
X90051000Y-55207819D01*
X90051000Y-55207819D02*
X90193857Y-55255438D01*
X90193857Y-55255438D02*
X90289095Y-55350676D01*
X90289095Y-55350676D02*
X90336714Y-55445914D01*
X90336714Y-55445914D02*
X90384333Y-55636390D01*
X90384333Y-55636390D02*
X90384333Y-55779247D01*
X90384333Y-55779247D02*
X90336714Y-55969723D01*
X90336714Y-55969723D02*
X90289095Y-56064961D01*
X90289095Y-56064961D02*
X90193857Y-56160200D01*
X90193857Y-56160200D02*
X90051000Y-56207819D01*
X90051000Y-56207819D02*
X89812905Y-56207819D01*
X91336714Y-56207819D02*
X90765286Y-56207819D01*
X91051000Y-56207819D02*
X91051000Y-55207819D01*
X91051000Y-55207819D02*
X90955762Y-55350676D01*
X90955762Y-55350676D02*
X90860524Y-55445914D01*
X90860524Y-55445914D02*
X90765286Y-55493533D01*
%TO.C,D2*%
X69492905Y-53667819D02*
X69492905Y-52667819D01*
X69492905Y-52667819D02*
X69731000Y-52667819D01*
X69731000Y-52667819D02*
X69873857Y-52715438D01*
X69873857Y-52715438D02*
X69969095Y-52810676D01*
X69969095Y-52810676D02*
X70016714Y-52905914D01*
X70016714Y-52905914D02*
X70064333Y-53096390D01*
X70064333Y-53096390D02*
X70064333Y-53239247D01*
X70064333Y-53239247D02*
X70016714Y-53429723D01*
X70016714Y-53429723D02*
X69969095Y-53524961D01*
X69969095Y-53524961D02*
X69873857Y-53620200D01*
X69873857Y-53620200D02*
X69731000Y-53667819D01*
X69731000Y-53667819D02*
X69492905Y-53667819D01*
X70445286Y-52763057D02*
X70492905Y-52715438D01*
X70492905Y-52715438D02*
X70588143Y-52667819D01*
X70588143Y-52667819D02*
X70826238Y-52667819D01*
X70826238Y-52667819D02*
X70921476Y-52715438D01*
X70921476Y-52715438D02*
X70969095Y-52763057D01*
X70969095Y-52763057D02*
X71016714Y-52858295D01*
X71016714Y-52858295D02*
X71016714Y-52953533D01*
X71016714Y-52953533D02*
X70969095Y-53096390D01*
X70969095Y-53096390D02*
X70397667Y-53667819D01*
X70397667Y-53667819D02*
X71016714Y-53667819D01*
%TO.C,R2*%
X72606333Y-39443819D02*
X72273000Y-38967628D01*
X72034905Y-39443819D02*
X72034905Y-38443819D01*
X72034905Y-38443819D02*
X72415857Y-38443819D01*
X72415857Y-38443819D02*
X72511095Y-38491438D01*
X72511095Y-38491438D02*
X72558714Y-38539057D01*
X72558714Y-38539057D02*
X72606333Y-38634295D01*
X72606333Y-38634295D02*
X72606333Y-38777152D01*
X72606333Y-38777152D02*
X72558714Y-38872390D01*
X72558714Y-38872390D02*
X72511095Y-38920009D01*
X72511095Y-38920009D02*
X72415857Y-38967628D01*
X72415857Y-38967628D02*
X72034905Y-38967628D01*
X72987286Y-38539057D02*
X73034905Y-38491438D01*
X73034905Y-38491438D02*
X73130143Y-38443819D01*
X73130143Y-38443819D02*
X73368238Y-38443819D01*
X73368238Y-38443819D02*
X73463476Y-38491438D01*
X73463476Y-38491438D02*
X73511095Y-38539057D01*
X73511095Y-38539057D02*
X73558714Y-38634295D01*
X73558714Y-38634295D02*
X73558714Y-38729533D01*
X73558714Y-38729533D02*
X73511095Y-38872390D01*
X73511095Y-38872390D02*
X72939667Y-39443819D01*
X72939667Y-39443819D02*
X73558714Y-39443819D01*
%TO.C,U2*%
X69342095Y-40221819D02*
X69342095Y-41031342D01*
X69342095Y-41031342D02*
X69389714Y-41126580D01*
X69389714Y-41126580D02*
X69437333Y-41174200D01*
X69437333Y-41174200D02*
X69532571Y-41221819D01*
X69532571Y-41221819D02*
X69723047Y-41221819D01*
X69723047Y-41221819D02*
X69818285Y-41174200D01*
X69818285Y-41174200D02*
X69865904Y-41126580D01*
X69865904Y-41126580D02*
X69913523Y-41031342D01*
X69913523Y-41031342D02*
X69913523Y-40221819D01*
X70342095Y-40317057D02*
X70389714Y-40269438D01*
X70389714Y-40269438D02*
X70484952Y-40221819D01*
X70484952Y-40221819D02*
X70723047Y-40221819D01*
X70723047Y-40221819D02*
X70818285Y-40269438D01*
X70818285Y-40269438D02*
X70865904Y-40317057D01*
X70865904Y-40317057D02*
X70913523Y-40412295D01*
X70913523Y-40412295D02*
X70913523Y-40507533D01*
X70913523Y-40507533D02*
X70865904Y-40650390D01*
X70865904Y-40650390D02*
X70294476Y-41221819D01*
X70294476Y-41221819D02*
X70913523Y-41221819D01*
%TO.C,Y1*%
X57636628Y-47339190D02*
X58112819Y-47339190D01*
X57112819Y-47672523D02*
X57636628Y-47339190D01*
X57636628Y-47339190D02*
X57112819Y-47005857D01*
X58112819Y-46148714D02*
X58112819Y-46720142D01*
X58112819Y-46434428D02*
X57112819Y-46434428D01*
X57112819Y-46434428D02*
X57255676Y-46529666D01*
X57255676Y-46529666D02*
X57350914Y-46624904D01*
X57350914Y-46624904D02*
X57398533Y-46720142D01*
%TO.C,C9*%
X66018580Y-51321666D02*
X66066200Y-51369285D01*
X66066200Y-51369285D02*
X66113819Y-51512142D01*
X66113819Y-51512142D02*
X66113819Y-51607380D01*
X66113819Y-51607380D02*
X66066200Y-51750237D01*
X66066200Y-51750237D02*
X65970961Y-51845475D01*
X65970961Y-51845475D02*
X65875723Y-51893094D01*
X65875723Y-51893094D02*
X65685247Y-51940713D01*
X65685247Y-51940713D02*
X65542390Y-51940713D01*
X65542390Y-51940713D02*
X65351914Y-51893094D01*
X65351914Y-51893094D02*
X65256676Y-51845475D01*
X65256676Y-51845475D02*
X65161438Y-51750237D01*
X65161438Y-51750237D02*
X65113819Y-51607380D01*
X65113819Y-51607380D02*
X65113819Y-51512142D01*
X65113819Y-51512142D02*
X65161438Y-51369285D01*
X65161438Y-51369285D02*
X65209057Y-51321666D01*
X66113819Y-50845475D02*
X66113819Y-50654999D01*
X66113819Y-50654999D02*
X66066200Y-50559761D01*
X66066200Y-50559761D02*
X66018580Y-50512142D01*
X66018580Y-50512142D02*
X65875723Y-50416904D01*
X65875723Y-50416904D02*
X65685247Y-50369285D01*
X65685247Y-50369285D02*
X65304295Y-50369285D01*
X65304295Y-50369285D02*
X65209057Y-50416904D01*
X65209057Y-50416904D02*
X65161438Y-50464523D01*
X65161438Y-50464523D02*
X65113819Y-50559761D01*
X65113819Y-50559761D02*
X65113819Y-50750237D01*
X65113819Y-50750237D02*
X65161438Y-50845475D01*
X65161438Y-50845475D02*
X65209057Y-50893094D01*
X65209057Y-50893094D02*
X65304295Y-50940713D01*
X65304295Y-50940713D02*
X65542390Y-50940713D01*
X65542390Y-50940713D02*
X65637628Y-50893094D01*
X65637628Y-50893094D02*
X65685247Y-50845475D01*
X65685247Y-50845475D02*
X65732866Y-50750237D01*
X65732866Y-50750237D02*
X65732866Y-50559761D01*
X65732866Y-50559761D02*
X65685247Y-50464523D01*
X65685247Y-50464523D02*
X65637628Y-50416904D01*
X65637628Y-50416904D02*
X65542390Y-50369285D01*
%TO.C,R4*%
X86593819Y-44044666D02*
X86117628Y-44377999D01*
X86593819Y-44616094D02*
X85593819Y-44616094D01*
X85593819Y-44616094D02*
X85593819Y-44235142D01*
X85593819Y-44235142D02*
X85641438Y-44139904D01*
X85641438Y-44139904D02*
X85689057Y-44092285D01*
X85689057Y-44092285D02*
X85784295Y-44044666D01*
X85784295Y-44044666D02*
X85927152Y-44044666D01*
X85927152Y-44044666D02*
X86022390Y-44092285D01*
X86022390Y-44092285D02*
X86070009Y-44139904D01*
X86070009Y-44139904D02*
X86117628Y-44235142D01*
X86117628Y-44235142D02*
X86117628Y-44616094D01*
X85927152Y-43187523D02*
X86593819Y-43187523D01*
X85546200Y-43425618D02*
X86260485Y-43663713D01*
X86260485Y-43663713D02*
X86260485Y-43044666D01*
%TO.C,C12*%
X83812142Y-51019580D02*
X83764523Y-51067200D01*
X83764523Y-51067200D02*
X83621666Y-51114819D01*
X83621666Y-51114819D02*
X83526428Y-51114819D01*
X83526428Y-51114819D02*
X83383571Y-51067200D01*
X83383571Y-51067200D02*
X83288333Y-50971961D01*
X83288333Y-50971961D02*
X83240714Y-50876723D01*
X83240714Y-50876723D02*
X83193095Y-50686247D01*
X83193095Y-50686247D02*
X83193095Y-50543390D01*
X83193095Y-50543390D02*
X83240714Y-50352914D01*
X83240714Y-50352914D02*
X83288333Y-50257676D01*
X83288333Y-50257676D02*
X83383571Y-50162438D01*
X83383571Y-50162438D02*
X83526428Y-50114819D01*
X83526428Y-50114819D02*
X83621666Y-50114819D01*
X83621666Y-50114819D02*
X83764523Y-50162438D01*
X83764523Y-50162438D02*
X83812142Y-50210057D01*
X84764523Y-51114819D02*
X84193095Y-51114819D01*
X84478809Y-51114819D02*
X84478809Y-50114819D01*
X84478809Y-50114819D02*
X84383571Y-50257676D01*
X84383571Y-50257676D02*
X84288333Y-50352914D01*
X84288333Y-50352914D02*
X84193095Y-50400533D01*
X85145476Y-50210057D02*
X85193095Y-50162438D01*
X85193095Y-50162438D02*
X85288333Y-50114819D01*
X85288333Y-50114819D02*
X85526428Y-50114819D01*
X85526428Y-50114819D02*
X85621666Y-50162438D01*
X85621666Y-50162438D02*
X85669285Y-50210057D01*
X85669285Y-50210057D02*
X85716904Y-50305295D01*
X85716904Y-50305295D02*
X85716904Y-50400533D01*
X85716904Y-50400533D02*
X85669285Y-50543390D01*
X85669285Y-50543390D02*
X85097857Y-51114819D01*
X85097857Y-51114819D02*
X85716904Y-51114819D01*
%TO.C,SW2*%
X62764200Y-47942332D02*
X62811819Y-47799475D01*
X62811819Y-47799475D02*
X62811819Y-47561380D01*
X62811819Y-47561380D02*
X62764200Y-47466142D01*
X62764200Y-47466142D02*
X62716580Y-47418523D01*
X62716580Y-47418523D02*
X62621342Y-47370904D01*
X62621342Y-47370904D02*
X62526104Y-47370904D01*
X62526104Y-47370904D02*
X62430866Y-47418523D01*
X62430866Y-47418523D02*
X62383247Y-47466142D01*
X62383247Y-47466142D02*
X62335628Y-47561380D01*
X62335628Y-47561380D02*
X62288009Y-47751856D01*
X62288009Y-47751856D02*
X62240390Y-47847094D01*
X62240390Y-47847094D02*
X62192771Y-47894713D01*
X62192771Y-47894713D02*
X62097533Y-47942332D01*
X62097533Y-47942332D02*
X62002295Y-47942332D01*
X62002295Y-47942332D02*
X61907057Y-47894713D01*
X61907057Y-47894713D02*
X61859438Y-47847094D01*
X61859438Y-47847094D02*
X61811819Y-47751856D01*
X61811819Y-47751856D02*
X61811819Y-47513761D01*
X61811819Y-47513761D02*
X61859438Y-47370904D01*
X61811819Y-47037570D02*
X62811819Y-46799475D01*
X62811819Y-46799475D02*
X62097533Y-46608999D01*
X62097533Y-46608999D02*
X62811819Y-46418523D01*
X62811819Y-46418523D02*
X61811819Y-46180428D01*
X61907057Y-45847094D02*
X61859438Y-45799475D01*
X61859438Y-45799475D02*
X61811819Y-45704237D01*
X61811819Y-45704237D02*
X61811819Y-45466142D01*
X61811819Y-45466142D02*
X61859438Y-45370904D01*
X61859438Y-45370904D02*
X61907057Y-45323285D01*
X61907057Y-45323285D02*
X62002295Y-45275666D01*
X62002295Y-45275666D02*
X62097533Y-45275666D01*
X62097533Y-45275666D02*
X62240390Y-45323285D01*
X62240390Y-45323285D02*
X62811819Y-45894713D01*
X62811819Y-45894713D02*
X62811819Y-45275666D01*
%TO.C,R5*%
X57047333Y-34584819D02*
X56714000Y-34108628D01*
X56475905Y-34584819D02*
X56475905Y-33584819D01*
X56475905Y-33584819D02*
X56856857Y-33584819D01*
X56856857Y-33584819D02*
X56952095Y-33632438D01*
X56952095Y-33632438D02*
X56999714Y-33680057D01*
X56999714Y-33680057D02*
X57047333Y-33775295D01*
X57047333Y-33775295D02*
X57047333Y-33918152D01*
X57047333Y-33918152D02*
X56999714Y-34013390D01*
X56999714Y-34013390D02*
X56952095Y-34061009D01*
X56952095Y-34061009D02*
X56856857Y-34108628D01*
X56856857Y-34108628D02*
X56475905Y-34108628D01*
X57952095Y-33584819D02*
X57475905Y-33584819D01*
X57475905Y-33584819D02*
X57428286Y-34061009D01*
X57428286Y-34061009D02*
X57475905Y-34013390D01*
X57475905Y-34013390D02*
X57571143Y-33965771D01*
X57571143Y-33965771D02*
X57809238Y-33965771D01*
X57809238Y-33965771D02*
X57904476Y-34013390D01*
X57904476Y-34013390D02*
X57952095Y-34061009D01*
X57952095Y-34061009D02*
X57999714Y-34156247D01*
X57999714Y-34156247D02*
X57999714Y-34394342D01*
X57999714Y-34394342D02*
X57952095Y-34489580D01*
X57952095Y-34489580D02*
X57904476Y-34537200D01*
X57904476Y-34537200D02*
X57809238Y-34584819D01*
X57809238Y-34584819D02*
X57571143Y-34584819D01*
X57571143Y-34584819D02*
X57475905Y-34537200D01*
X57475905Y-34537200D02*
X57428286Y-34489580D01*
%TO.C,U3*%
X89916095Y-53308319D02*
X89916095Y-54117842D01*
X89916095Y-54117842D02*
X89963714Y-54213080D01*
X89963714Y-54213080D02*
X90011333Y-54260700D01*
X90011333Y-54260700D02*
X90106571Y-54308319D01*
X90106571Y-54308319D02*
X90297047Y-54308319D01*
X90297047Y-54308319D02*
X90392285Y-54260700D01*
X90392285Y-54260700D02*
X90439904Y-54213080D01*
X90439904Y-54213080D02*
X90487523Y-54117842D01*
X90487523Y-54117842D02*
X90487523Y-53308319D01*
X90868476Y-53308319D02*
X91487523Y-53308319D01*
X91487523Y-53308319D02*
X91154190Y-53689271D01*
X91154190Y-53689271D02*
X91297047Y-53689271D01*
X91297047Y-53689271D02*
X91392285Y-53736890D01*
X91392285Y-53736890D02*
X91439904Y-53784509D01*
X91439904Y-53784509D02*
X91487523Y-53879747D01*
X91487523Y-53879747D02*
X91487523Y-54117842D01*
X91487523Y-54117842D02*
X91439904Y-54213080D01*
X91439904Y-54213080D02*
X91392285Y-54260700D01*
X91392285Y-54260700D02*
X91297047Y-54308319D01*
X91297047Y-54308319D02*
X91011333Y-54308319D01*
X91011333Y-54308319D02*
X90916095Y-54260700D01*
X90916095Y-54260700D02*
X90868476Y-54213080D01*
D10*
%TO.C,C1*%
X82679000Y-52672733D02*
X82679000Y-52965267D01*
X81659000Y-52672733D02*
X81659000Y-52965267D01*
%TO.C,C2*%
X87148580Y-57787000D02*
X86867420Y-57787000D01*
X87148580Y-56767000D02*
X86867420Y-56767000D01*
%TO.C,C3*%
X66038000Y-39002580D02*
X66038000Y-38721420D01*
X67058000Y-39002580D02*
X67058000Y-38721420D01*
%TO.C,C4*%
X65026000Y-38708420D02*
X65026000Y-38989580D01*
X64006000Y-38708420D02*
X64006000Y-38989580D01*
%TO.C,C5*%
X78486580Y-52834000D02*
X78205420Y-52834000D01*
X78486580Y-51814000D02*
X78205420Y-51814000D01*
%TO.C,C6*%
X85219000Y-40385420D02*
X85219000Y-40666580D01*
X84199000Y-40385420D02*
X84199000Y-40666580D01*
%TO.C,C7*%
X67943000Y-39015580D02*
X67943000Y-38734420D01*
X68963000Y-39015580D02*
X68963000Y-38734420D01*
%TO.C,C8*%
X66546000Y-47879580D02*
X66546000Y-47598420D01*
X67566000Y-47879580D02*
X67566000Y-47598420D01*
%TO.C,C10*%
X57149420Y-38479000D02*
X57430580Y-38479000D01*
X57149420Y-39499000D02*
X57430580Y-39499000D01*
%TO.C,C11*%
X57277580Y-55247000D02*
X56996420Y-55247000D01*
X57277580Y-54227000D02*
X56996420Y-54227000D01*
%TO.C,D1*%
X91883500Y-58012000D02*
X91883500Y-56542000D01*
X91883500Y-56542000D02*
X89598500Y-56542000D01*
X89598500Y-58012000D02*
X91883500Y-58012000D01*
%TO.C,D2*%
X66307500Y-54002000D02*
X66307500Y-55472000D01*
X66307500Y-55472000D02*
X68592500Y-55472000D01*
X68592500Y-54002000D02*
X66307500Y-54002000D01*
%TO.C,J2*%
X92770000Y-29150000D02*
X92770000Y-30480000D01*
X91440000Y-29150000D02*
X92770000Y-29150000D01*
X90170000Y-29150000D02*
X54550000Y-29150000D01*
X90170000Y-29150000D02*
X90170000Y-31810000D01*
X54550000Y-29150000D02*
X54550000Y-31810000D01*
X90170000Y-31810000D02*
X54550000Y-31810000D01*
%TO.C,JP1*%
X72882000Y-33794000D02*
X72882000Y-36594000D01*
X70882000Y-33794000D02*
X72882000Y-33794000D01*
X72882000Y-36594000D02*
X70882000Y-36594000D01*
X70882000Y-36594000D02*
X70882000Y-33794000D01*
%TO.C,R2*%
X72490359Y-37212000D02*
X72797641Y-37212000D01*
X72490359Y-37972000D02*
X72797641Y-37972000D01*
%TO.C,U2*%
X70713500Y-42027000D02*
X70713500Y-42477000D01*
X70713500Y-42477000D02*
X69423500Y-42477000D01*
X70713500Y-49247000D02*
X70713500Y-48797000D01*
X71163500Y-42027000D02*
X70713500Y-42027000D01*
X71163500Y-49247000D02*
X70713500Y-49247000D01*
X77483500Y-42027000D02*
X77933500Y-42027000D01*
X77483500Y-49247000D02*
X77933500Y-49247000D01*
X77933500Y-42027000D02*
X77933500Y-42477000D01*
X77933500Y-49247000D02*
X77933500Y-48797000D01*
%TO.C,Y1*%
X59827000Y-40231000D02*
X54727000Y-40231000D01*
X54727000Y-40231000D02*
X54727000Y-52831000D01*
X59827000Y-52831000D02*
X59827000Y-40231000D01*
D11*
%TO.C,J1*%
X89348000Y-49870000D02*
X90748000Y-49870000D01*
X93148000Y-49870000D02*
X93298000Y-49870000D01*
X93298000Y-49870000D02*
X93298000Y-49570000D01*
X93298000Y-49570000D02*
X93748000Y-49570000D01*
X87173000Y-47520000D02*
X87598000Y-47520000D01*
X87598000Y-47520000D02*
X87598000Y-48520000D01*
X87173000Y-46795000D02*
X87173000Y-47520000D01*
X87598000Y-43920000D02*
X87598000Y-42920000D01*
X93298000Y-41870000D02*
X93298000Y-41570000D01*
X93748000Y-41870000D02*
X93298000Y-41870000D01*
X90748000Y-41570000D02*
X89348000Y-41570000D01*
X93298000Y-41570000D02*
X93148000Y-41570000D01*
D10*
%TO.C,C9*%
X67566000Y-50900420D02*
X67566000Y-51181580D01*
X66546000Y-50900420D02*
X66546000Y-51181580D01*
%TO.C,R4*%
X85231500Y-43640742D02*
X85231500Y-44115258D01*
X84186500Y-43640742D02*
X84186500Y-44115258D01*
%TO.C,J3*%
X92770000Y-59630000D02*
X92770000Y-60960000D01*
X91440000Y-59630000D02*
X92770000Y-59630000D01*
X90170000Y-59630000D02*
X54550000Y-59630000D01*
X90170000Y-59630000D02*
X90170000Y-62290000D01*
X54550000Y-59630000D02*
X54550000Y-62290000D01*
X90170000Y-62290000D02*
X54550000Y-62290000D01*
%TO.C,C12*%
X85092000Y-52691420D02*
X85092000Y-52972580D01*
X84072000Y-52691420D02*
X84072000Y-52972580D01*
%TO.C,SW2*%
X60507000Y-49669000D02*
X60507000Y-43549000D01*
X64207000Y-49669000D02*
X60507000Y-49669000D01*
X60507000Y-43549000D02*
X64207000Y-43549000D01*
X64207000Y-43549000D02*
X64207000Y-49669000D01*
%TO.C,R5*%
X56976742Y-35037500D02*
X57451258Y-35037500D01*
X56976742Y-36082500D02*
X57451258Y-36082500D01*
%TO.C,U3*%
X89383000Y-53853500D02*
X89383000Y-52053500D01*
X89383000Y-53853500D02*
X89383000Y-54653500D01*
X86263000Y-53853500D02*
X86263000Y-53053500D01*
X86263000Y-53853500D02*
X86263000Y-54653500D01*
%TD*%
M02*
