%TF.GenerationSoftware,KiCad,Pcbnew,7.0.5-7.0.5~ubuntu20.04.1*%
%TF.CreationDate,2023-12-02T16:13:28+01:00*%
%TF.ProjectId,ST_prot,53545f70-726f-4742-9e6b-696361645f70,rev?*%
%TF.SameCoordinates,Original*%
%TF.FileFunction,Soldermask,Top*%
%TF.FilePolarity,Negative*%
%FSLAX46Y46*%
G04 Gerber Fmt 4.6, Leading zero omitted, Abs format (unit mm)*
G04 Created by KiCad (PCBNEW 7.0.5-7.0.5~ubuntu20.04.1) date 2023-12-02 16:13:28*
%MOMM*%
%LPD*%
G01*
G04 APERTURE LIST*
G04 Aperture macros list*
%AMRoundRect*
0 Rectangle with rounded corners*
0 $1 Rounding radius*
0 $2 $3 $4 $5 $6 $7 $8 $9 X,Y pos of 4 corners*
0 Add a 4 corners polygon primitive as box body*
4,1,4,$2,$3,$4,$5,$6,$7,$8,$9,$2,$3,0*
0 Add four circle primitives for the rounded corners*
1,1,$1+$1,$2,$3*
1,1,$1+$1,$4,$5*
1,1,$1+$1,$6,$7*
1,1,$1+$1,$8,$9*
0 Add four rect primitives between the rounded corners*
20,1,$1+$1,$2,$3,$4,$5,0*
20,1,$1+$1,$4,$5,$6,$7,0*
20,1,$1+$1,$6,$7,$8,$9,0*
20,1,$1+$1,$8,$9,$2,$3,0*%
G04 Aperture macros list end*
%ADD10RoundRect,0.237500X-0.237500X0.300000X-0.237500X-0.300000X0.237500X-0.300000X0.237500X0.300000X0*%
%ADD11RoundRect,0.225000X0.225000X0.250000X-0.225000X0.250000X-0.225000X-0.250000X0.225000X-0.250000X0*%
%ADD12RoundRect,0.225000X0.250000X-0.225000X0.250000X0.225000X-0.250000X0.225000X-0.250000X-0.225000X0*%
%ADD13RoundRect,0.225000X-0.250000X0.225000X-0.250000X-0.225000X0.250000X-0.225000X0.250000X0.225000X0*%
%ADD14RoundRect,0.225000X-0.225000X-0.250000X0.225000X-0.250000X0.225000X0.250000X-0.225000X0.250000X0*%
%ADD15RoundRect,0.218750X0.218750X0.256250X-0.218750X0.256250X-0.218750X-0.256250X0.218750X-0.256250X0*%
%ADD16RoundRect,0.218750X-0.218750X-0.256250X0.218750X-0.256250X0.218750X0.256250X-0.218750X0.256250X0*%
%ADD17R,1.700000X1.700000*%
%ADD18O,1.700000X1.700000*%
%ADD19R,1.500000X1.000000*%
%ADD20RoundRect,0.135000X-0.135000X-0.185000X0.135000X-0.185000X0.135000X0.185000X-0.135000X0.185000X0*%
%ADD21RoundRect,0.075000X-0.662500X-0.075000X0.662500X-0.075000X0.662500X0.075000X-0.662500X0.075000X0*%
%ADD22RoundRect,0.075000X-0.075000X-0.662500X0.075000X-0.662500X0.075000X0.662500X-0.075000X0.662500X0*%
%ADD23R,2.000000X4.500000*%
%ADD24O,0.800000X0.800000*%
%ADD25R,1.300000X0.450000*%
%ADD26O,1.800000X1.150000*%
%ADD27O,2.000000X1.450000*%
%ADD28RoundRect,0.200000X-0.275000X0.200000X-0.275000X-0.200000X0.275000X-0.200000X0.275000X0.200000X0*%
%ADD29R,1.500000X1.500000*%
%ADD30RoundRect,0.200000X-0.200000X-0.275000X0.200000X-0.275000X0.200000X0.275000X-0.200000X0.275000X0*%
%ADD31RoundRect,0.150000X-0.150000X0.512500X-0.150000X-0.512500X0.150000X-0.512500X0.150000X0.512500X0*%
G04 APERTURE END LIST*
D10*
%TO.C,C1*%
X82169000Y-51956500D03*
X82169000Y-53681500D03*
%TD*%
D11*
%TO.C,C2*%
X87783000Y-57277000D03*
X86233000Y-57277000D03*
%TD*%
D12*
%TO.C,C3*%
X66548000Y-39637000D03*
X66548000Y-38087000D03*
%TD*%
D13*
%TO.C,C4*%
X64516000Y-38074000D03*
X64516000Y-39624000D03*
%TD*%
D11*
%TO.C,C5*%
X79121000Y-52324000D03*
X77571000Y-52324000D03*
%TD*%
D13*
%TO.C,C6*%
X84709000Y-39751000D03*
X84709000Y-41301000D03*
%TD*%
D12*
%TO.C,C7*%
X68453000Y-39650000D03*
X68453000Y-38100000D03*
%TD*%
%TO.C,C8*%
X67056000Y-48514000D03*
X67056000Y-46964000D03*
%TD*%
D14*
%TO.C,C10*%
X56515000Y-38989000D03*
X58065000Y-38989000D03*
%TD*%
D11*
%TO.C,C11*%
X57912000Y-54737000D03*
X56362000Y-54737000D03*
%TD*%
D15*
%TO.C,D1*%
X91186000Y-57277000D03*
X89611000Y-57277000D03*
%TD*%
D16*
%TO.C,D2*%
X67005000Y-54737000D03*
X68580000Y-54737000D03*
%TD*%
D17*
%TO.C,J2*%
X91440000Y-30480000D03*
D18*
X88900000Y-30480000D03*
X86360000Y-30480000D03*
X83820000Y-30480000D03*
X81280000Y-30480000D03*
X78740000Y-30480000D03*
X76200000Y-30480000D03*
X73660000Y-30480000D03*
X71120000Y-30480000D03*
X68580000Y-30480000D03*
X66040000Y-30480000D03*
X63500000Y-30480000D03*
X60960000Y-30480000D03*
X58420000Y-30480000D03*
X55880000Y-30480000D03*
%TD*%
D19*
%TO.C,JP1*%
X71882000Y-34544000D03*
X71882000Y-35844000D03*
%TD*%
D20*
%TO.C,R2*%
X72134000Y-37592000D03*
X73154000Y-37592000D03*
%TD*%
D21*
%TO.C,U2*%
X70161000Y-42887000D03*
X70161000Y-43387000D03*
X70161000Y-43887000D03*
X70161000Y-44387000D03*
X70161000Y-44887000D03*
X70161000Y-45387000D03*
X70161000Y-45887000D03*
X70161000Y-46387000D03*
X70161000Y-46887000D03*
X70161000Y-47387000D03*
X70161000Y-47887000D03*
X70161000Y-48387000D03*
D22*
X71573500Y-49799500D03*
X72073500Y-49799500D03*
X72573500Y-49799500D03*
X73073500Y-49799500D03*
X73573500Y-49799500D03*
X74073500Y-49799500D03*
X74573500Y-49799500D03*
X75073500Y-49799500D03*
X75573500Y-49799500D03*
X76073500Y-49799500D03*
X76573500Y-49799500D03*
X77073500Y-49799500D03*
D21*
X78486000Y-48387000D03*
X78486000Y-47887000D03*
X78486000Y-47387000D03*
X78486000Y-46887000D03*
X78486000Y-46387000D03*
X78486000Y-45887000D03*
X78486000Y-45387000D03*
X78486000Y-44887000D03*
X78486000Y-44387000D03*
X78486000Y-43887000D03*
X78486000Y-43387000D03*
X78486000Y-42887000D03*
D22*
X77073500Y-41474500D03*
X76573500Y-41474500D03*
X76073500Y-41474500D03*
X75573500Y-41474500D03*
X75073500Y-41474500D03*
X74573500Y-41474500D03*
X74073500Y-41474500D03*
X73573500Y-41474500D03*
X73073500Y-41474500D03*
X72573500Y-41474500D03*
X72073500Y-41474500D03*
X71573500Y-41474500D03*
%TD*%
D23*
%TO.C,Y1*%
X57277000Y-42681000D03*
X57277000Y-51181000D03*
%TD*%
D24*
%TO.C,J1*%
X89198000Y-48220000D03*
X89198000Y-43220000D03*
D25*
X88098000Y-47020000D03*
X88098000Y-46370000D03*
X88098000Y-45720000D03*
X88098000Y-45070000D03*
X88098000Y-44420000D03*
D26*
X91948000Y-49595000D03*
D27*
X88148000Y-49445000D03*
X88148000Y-41995000D03*
D26*
X91948000Y-41845000D03*
%TD*%
D13*
%TO.C,C9*%
X67056000Y-50266000D03*
X67056000Y-51816000D03*
%TD*%
D28*
%TO.C,R4*%
X84709000Y-43053000D03*
X84709000Y-44703000D03*
%TD*%
D17*
%TO.C,J3*%
X91440000Y-60960000D03*
D18*
X88900000Y-60960000D03*
X86360000Y-60960000D03*
X83820000Y-60960000D03*
X81280000Y-60960000D03*
X78740000Y-60960000D03*
X76200000Y-60960000D03*
X73660000Y-60960000D03*
X71120000Y-60960000D03*
X68580000Y-60960000D03*
X66040000Y-60960000D03*
X63500000Y-60960000D03*
X60960000Y-60960000D03*
X58420000Y-60960000D03*
X55880000Y-60960000D03*
%TD*%
D13*
%TO.C,C12*%
X84582000Y-52057000D03*
X84582000Y-53607000D03*
%TD*%
D29*
%TO.C,SW2*%
X62357000Y-50509000D03*
X62357000Y-42709000D03*
%TD*%
D30*
%TO.C,R5*%
X56389000Y-35560000D03*
X58039000Y-35560000D03*
%TD*%
D31*
%TO.C,U3*%
X88773000Y-52716000D03*
X87823000Y-52716000D03*
X86873000Y-52716000D03*
X86873000Y-54991000D03*
X88773000Y-54991000D03*
%TD*%
M02*
