%TF.GenerationSoftware,KiCad,Pcbnew,7.0.5-7.0.5~ubuntu20.04.1*%
%TF.CreationDate,2023-12-02T16:13:28+01:00*%
%TF.ProjectId,ST_prot,53545f70-726f-4742-9e6b-696361645f70,rev?*%
%TF.SameCoordinates,Original*%
%TF.FileFunction,Copper,L2,Bot*%
%TF.FilePolarity,Positive*%
%FSLAX46Y46*%
G04 Gerber Fmt 4.6, Leading zero omitted, Abs format (unit mm)*
G04 Created by KiCad (PCBNEW 7.0.5-7.0.5~ubuntu20.04.1) date 2023-12-02 16:13:28*
%MOMM*%
%LPD*%
G01*
G04 APERTURE LIST*
%TA.AperFunction,ComponentPad*%
%ADD10R,1.700000X1.700000*%
%TD*%
%TA.AperFunction,ComponentPad*%
%ADD11O,1.700000X1.700000*%
%TD*%
%TA.AperFunction,ComponentPad*%
%ADD12O,1.800000X1.150000*%
%TD*%
%TA.AperFunction,ComponentPad*%
%ADD13O,2.000000X1.450000*%
%TD*%
%TA.AperFunction,ViaPad*%
%ADD14C,0.800000*%
%TD*%
%TA.AperFunction,ViaPad*%
%ADD15C,0.700000*%
%TD*%
%TA.AperFunction,Conductor*%
%ADD16C,0.250000*%
%TD*%
G04 APERTURE END LIST*
D10*
%TO.P,J2,1,Pin_1*%
%TO.N,+3.3V*%
X91440000Y-30480000D03*
D11*
%TO.P,J2,2,Pin_2*%
%TO.N,GND*%
X88900000Y-30480000D03*
%TO.P,J2,3,Pin_3*%
%TO.N,SWDIO*%
X86360000Y-30480000D03*
%TO.P,J2,4,Pin_4*%
%TO.N,SWCLK*%
X83820000Y-30480000D03*
%TO.P,J2,5,Pin_5*%
%TO.N,PA15*%
X81280000Y-30480000D03*
%TO.P,J2,6,Pin_6*%
%TO.N,SWO*%
X78740000Y-30480000D03*
%TO.P,J2,7,Pin_7*%
%TO.N,PB4*%
X76200000Y-30480000D03*
%TO.P,J2,8,Pin_8*%
%TO.N,PB5*%
X73660000Y-30480000D03*
%TO.P,J2,9,Pin_9*%
%TO.N,PB6*%
X71120000Y-30480000D03*
%TO.P,J2,10,Pin_10*%
%TO.N,PB7*%
X68580000Y-30480000D03*
%TO.P,J2,11,Pin_11*%
%TO.N,PB8*%
X66040000Y-30480000D03*
%TO.P,J2,12,Pin_12*%
%TO.N,PB9*%
X63500000Y-30480000D03*
%TO.P,J2,13,Pin_13*%
%TO.N,PC13*%
X60960000Y-30480000D03*
%TO.P,J2,14,Pin_14*%
%TO.N,PC14*%
X58420000Y-30480000D03*
%TO.P,J2,15,Pin_15*%
%TO.N,PC15*%
X55880000Y-30480000D03*
%TD*%
D12*
%TO.P,J1,6,Shield*%
%TO.N,unconnected-(J1-Shield-Pad6)*%
X91948000Y-49595000D03*
D13*
X88148000Y-49445000D03*
X88148000Y-41995000D03*
D12*
X91948000Y-41845000D03*
%TD*%
D10*
%TO.P,J3,1,Pin_1*%
%TO.N,+3.3V*%
X91440000Y-60960000D03*
D11*
%TO.P,J3,2,Pin_2*%
%TO.N,GND*%
X88900000Y-60960000D03*
%TO.P,J3,3,Pin_3*%
%TO.N,PA10*%
X86360000Y-60960000D03*
%TO.P,J3,4,Pin_4*%
%TO.N,PA9*%
X83820000Y-60960000D03*
%TO.P,J3,5,Pin_5*%
%TO.N,PA8*%
X81280000Y-60960000D03*
%TO.P,J3,6,Pin_6*%
%TO.N,PB11*%
X78740000Y-60960000D03*
%TO.P,J3,7,Pin_7*%
%TO.N,PB10*%
X76200000Y-60960000D03*
%TO.P,J3,8,Pin_8*%
%TO.N,PB2*%
X73660000Y-60960000D03*
%TO.P,J3,9,Pin_9*%
%TO.N,PB1*%
X71120000Y-60960000D03*
%TO.P,J3,10,Pin_10*%
%TO.N,PB0*%
X68580000Y-60960000D03*
%TO.P,J3,11,Pin_11*%
%TO.N,PA7*%
X66040000Y-60960000D03*
%TO.P,J3,12,Pin_12*%
%TO.N,PA6*%
X63500000Y-60960000D03*
%TO.P,J3,13,Pin_13*%
%TO.N,PA5*%
X60960000Y-60960000D03*
%TO.P,J3,14,Pin_14*%
%TO.N,PA4*%
X58420000Y-60960000D03*
%TO.P,J3,15,Pin_15*%
%TO.N,PA3*%
X55880000Y-60960000D03*
%TD*%
D14*
%TO.N,GND*%
X86106000Y-44450000D03*
X59414023Y-39391977D03*
X56388000Y-56298500D03*
X73650500Y-35941000D03*
X65659000Y-54737000D03*
D15*
X65151000Y-35560000D03*
X66294000Y-41021000D03*
X82169000Y-54375000D03*
D14*
X91186000Y-54991000D03*
X83058000Y-41275000D03*
X72263000Y-46387000D03*
D15*
%TO.N,Net-(U2-NRST)*%
X64711272Y-43873728D03*
X64897000Y-46101000D03*
%TD*%
D16*
%TO.N,unconnected-(J1-Shield-Pad6)*%
X88298000Y-49595000D02*
X88148000Y-49445000D01*
X88148000Y-49445000D02*
X88148000Y-41995000D01*
X88148000Y-41995000D02*
X91798000Y-41995000D01*
X91948000Y-49595000D02*
X88298000Y-49595000D01*
X91798000Y-41995000D02*
X91948000Y-41845000D01*
%TO.N,Net-(U2-NRST)*%
X64897000Y-46101000D02*
X64897000Y-44059456D01*
X64897000Y-44059456D02*
X64711272Y-43873728D01*
%TD*%
%TA.AperFunction,Conductor*%
%TO.N,GND*%
G36*
X92002058Y-28025634D02*
G01*
X92253604Y-28042122D01*
X92261759Y-28043194D01*
X92506989Y-28091973D01*
X92514943Y-28094104D01*
X92751698Y-28174473D01*
X92759308Y-28177624D01*
X92983558Y-28288212D01*
X92990676Y-28292322D01*
X93198563Y-28431228D01*
X93205101Y-28436245D01*
X93248017Y-28473881D01*
X93393074Y-28601092D01*
X93398907Y-28606925D01*
X93563753Y-28794896D01*
X93568773Y-28801438D01*
X93707674Y-29009318D01*
X93711789Y-29016446D01*
X93801269Y-29197892D01*
X93822371Y-29240683D01*
X93825528Y-29248305D01*
X93905892Y-29485047D01*
X93908027Y-29493016D01*
X93956802Y-29738222D01*
X93957878Y-29746401D01*
X93974365Y-29997938D01*
X93974500Y-30002059D01*
X93974500Y-61997940D01*
X93974365Y-62002061D01*
X93957878Y-62253598D01*
X93956802Y-62261777D01*
X93908027Y-62506983D01*
X93905892Y-62514952D01*
X93825528Y-62751694D01*
X93822371Y-62759316D01*
X93711796Y-62983542D01*
X93707671Y-62990686D01*
X93568774Y-63198559D01*
X93563753Y-63205103D01*
X93398907Y-63393074D01*
X93393074Y-63398907D01*
X93205103Y-63563753D01*
X93198559Y-63568774D01*
X92990686Y-63707671D01*
X92983546Y-63711793D01*
X92871428Y-63767083D01*
X92759316Y-63822371D01*
X92751694Y-63825528D01*
X92514952Y-63905892D01*
X92506983Y-63908027D01*
X92321223Y-63944977D01*
X92261774Y-63956802D01*
X92253598Y-63957878D01*
X92043176Y-63971670D01*
X92002058Y-63974365D01*
X91997940Y-63974500D01*
X55002060Y-63974500D01*
X54997941Y-63974365D01*
X54950819Y-63971276D01*
X54746401Y-63957878D01*
X54738227Y-63956802D01*
X54615619Y-63932414D01*
X54493016Y-63908027D01*
X54485047Y-63905892D01*
X54248305Y-63825528D01*
X54240683Y-63822371D01*
X54016446Y-63711789D01*
X54009318Y-63707674D01*
X53801438Y-63568773D01*
X53794896Y-63563753D01*
X53606925Y-63398907D01*
X53601092Y-63393074D01*
X53436246Y-63205103D01*
X53431225Y-63198559D01*
X53292322Y-62990676D01*
X53288212Y-62983558D01*
X53177624Y-62759308D01*
X53174471Y-62751694D01*
X53140790Y-62652473D01*
X53094104Y-62514943D01*
X53091972Y-62506983D01*
X53091393Y-62504071D01*
X53043194Y-62261759D01*
X53042122Y-62253604D01*
X53025634Y-62002058D01*
X53025500Y-61997940D01*
X53025500Y-60960000D01*
X54316681Y-60960000D01*
X54335928Y-61204557D01*
X54393195Y-61443092D01*
X54487073Y-61669732D01*
X54487074Y-61669733D01*
X54615245Y-61878892D01*
X54615246Y-61878894D01*
X54615248Y-61878896D01*
X54774567Y-62065433D01*
X54961104Y-62224752D01*
X55170268Y-62352927D01*
X55396908Y-62446805D01*
X55635443Y-62504072D01*
X55880000Y-62523319D01*
X56124557Y-62504072D01*
X56363092Y-62446805D01*
X56589732Y-62352927D01*
X56798896Y-62224752D01*
X56985433Y-62065433D01*
X57054190Y-61984929D01*
X57113640Y-61946121D01*
X57184634Y-61945615D01*
X57244633Y-61983571D01*
X57245767Y-61984879D01*
X57314567Y-62065433D01*
X57501104Y-62224752D01*
X57710268Y-62352927D01*
X57936908Y-62446805D01*
X58175443Y-62504072D01*
X58420000Y-62523319D01*
X58664557Y-62504072D01*
X58903092Y-62446805D01*
X59129732Y-62352927D01*
X59338896Y-62224752D01*
X59525433Y-62065433D01*
X59594190Y-61984929D01*
X59653640Y-61946121D01*
X59724634Y-61945615D01*
X59784633Y-61983571D01*
X59785767Y-61984879D01*
X59854567Y-62065433D01*
X60041104Y-62224752D01*
X60250268Y-62352927D01*
X60476908Y-62446805D01*
X60715443Y-62504072D01*
X60960000Y-62523319D01*
X61204557Y-62504072D01*
X61443092Y-62446805D01*
X61669732Y-62352927D01*
X61878896Y-62224752D01*
X62065433Y-62065433D01*
X62134190Y-61984929D01*
X62193640Y-61946121D01*
X62264634Y-61945615D01*
X62324633Y-61983571D01*
X62325767Y-61984879D01*
X62394567Y-62065433D01*
X62581104Y-62224752D01*
X62790268Y-62352927D01*
X63016908Y-62446805D01*
X63255443Y-62504072D01*
X63500000Y-62523319D01*
X63744557Y-62504072D01*
X63983092Y-62446805D01*
X64209732Y-62352927D01*
X64418896Y-62224752D01*
X64605433Y-62065433D01*
X64674190Y-61984929D01*
X64733640Y-61946121D01*
X64804634Y-61945615D01*
X64864633Y-61983571D01*
X64865767Y-61984879D01*
X64934567Y-62065433D01*
X65121104Y-62224752D01*
X65330268Y-62352927D01*
X65556908Y-62446805D01*
X65795443Y-62504072D01*
X66040000Y-62523319D01*
X66284557Y-62504072D01*
X66523092Y-62446805D01*
X66749732Y-62352927D01*
X66958896Y-62224752D01*
X67145433Y-62065433D01*
X67214190Y-61984929D01*
X67273640Y-61946121D01*
X67344634Y-61945615D01*
X67404633Y-61983571D01*
X67405767Y-61984879D01*
X67474567Y-62065433D01*
X67661104Y-62224752D01*
X67870268Y-62352927D01*
X68096908Y-62446805D01*
X68335443Y-62504072D01*
X68580000Y-62523319D01*
X68824557Y-62504072D01*
X69063092Y-62446805D01*
X69289732Y-62352927D01*
X69498896Y-62224752D01*
X69685433Y-62065433D01*
X69754190Y-61984929D01*
X69813640Y-61946121D01*
X69884634Y-61945615D01*
X69944633Y-61983571D01*
X69945767Y-61984879D01*
X70014567Y-62065433D01*
X70201104Y-62224752D01*
X70410268Y-62352927D01*
X70636908Y-62446805D01*
X70875443Y-62504072D01*
X71120000Y-62523319D01*
X71364557Y-62504072D01*
X71603092Y-62446805D01*
X71829732Y-62352927D01*
X72038896Y-62224752D01*
X72225433Y-62065433D01*
X72294190Y-61984929D01*
X72353640Y-61946121D01*
X72424634Y-61945615D01*
X72484633Y-61983571D01*
X72485767Y-61984879D01*
X72554567Y-62065433D01*
X72741104Y-62224752D01*
X72950268Y-62352927D01*
X73176908Y-62446805D01*
X73415443Y-62504072D01*
X73660000Y-62523319D01*
X73904557Y-62504072D01*
X74143092Y-62446805D01*
X74369732Y-62352927D01*
X74578896Y-62224752D01*
X74765433Y-62065433D01*
X74834190Y-61984929D01*
X74893640Y-61946121D01*
X74964634Y-61945615D01*
X75024633Y-61983571D01*
X75025767Y-61984879D01*
X75094567Y-62065433D01*
X75281104Y-62224752D01*
X75490268Y-62352927D01*
X75716908Y-62446805D01*
X75955443Y-62504072D01*
X76200000Y-62523319D01*
X76444557Y-62504072D01*
X76683092Y-62446805D01*
X76909732Y-62352927D01*
X77118896Y-62224752D01*
X77305433Y-62065433D01*
X77374190Y-61984929D01*
X77433640Y-61946121D01*
X77504634Y-61945615D01*
X77564633Y-61983571D01*
X77565767Y-61984879D01*
X77634567Y-62065433D01*
X77821104Y-62224752D01*
X78030268Y-62352927D01*
X78256908Y-62446805D01*
X78495443Y-62504072D01*
X78740000Y-62523319D01*
X78984557Y-62504072D01*
X79223092Y-62446805D01*
X79449732Y-62352927D01*
X79658896Y-62224752D01*
X79845433Y-62065433D01*
X79914190Y-61984929D01*
X79973640Y-61946121D01*
X80044634Y-61945615D01*
X80104633Y-61983571D01*
X80105767Y-61984879D01*
X80174567Y-62065433D01*
X80361104Y-62224752D01*
X80570268Y-62352927D01*
X80796908Y-62446805D01*
X81035443Y-62504072D01*
X81280000Y-62523319D01*
X81524557Y-62504072D01*
X81763092Y-62446805D01*
X81989732Y-62352927D01*
X82198896Y-62224752D01*
X82385433Y-62065433D01*
X82454190Y-61984929D01*
X82513640Y-61946121D01*
X82584634Y-61945615D01*
X82644633Y-61983571D01*
X82645767Y-61984879D01*
X82714567Y-62065433D01*
X82901104Y-62224752D01*
X83110268Y-62352927D01*
X83336908Y-62446805D01*
X83575443Y-62504072D01*
X83820000Y-62523319D01*
X84064557Y-62504072D01*
X84303092Y-62446805D01*
X84529732Y-62352927D01*
X84738896Y-62224752D01*
X84925433Y-62065433D01*
X84994190Y-61984929D01*
X85053640Y-61946121D01*
X85124634Y-61945615D01*
X85184633Y-61983571D01*
X85185767Y-61984879D01*
X85254567Y-62065433D01*
X85441104Y-62224752D01*
X85650268Y-62352927D01*
X85876908Y-62446805D01*
X86115443Y-62504072D01*
X86360000Y-62523319D01*
X86604557Y-62504072D01*
X86843092Y-62446805D01*
X87069732Y-62352927D01*
X87278896Y-62224752D01*
X87465433Y-62065433D01*
X87534519Y-61984543D01*
X87593967Y-61945737D01*
X87664962Y-61945229D01*
X87724961Y-61983185D01*
X87726139Y-61984546D01*
X87794920Y-62065079D01*
X87981395Y-62224343D01*
X87981397Y-62224344D01*
X88190496Y-62352481D01*
X88417064Y-62446328D01*
X88546000Y-62477282D01*
X88546000Y-61314852D01*
X88626900Y-61384952D01*
X88757685Y-61444680D01*
X88864237Y-61460000D01*
X88935763Y-61460000D01*
X89042315Y-61444680D01*
X89173100Y-61384952D01*
X89254000Y-61314852D01*
X89254000Y-62477281D01*
X89382935Y-62446328D01*
X89609503Y-62352481D01*
X89818604Y-62224343D01*
X89833659Y-62211485D01*
X89898448Y-62182452D01*
X89968649Y-62193056D01*
X90021972Y-62239929D01*
X90023319Y-62242108D01*
X90028182Y-62250152D01*
X90028188Y-62250160D01*
X90149839Y-62371811D01*
X90149844Y-62371815D01*
X90149845Y-62371816D01*
X90297087Y-62460827D01*
X90461351Y-62512013D01*
X90532735Y-62518500D01*
X92347264Y-62518499D01*
X92418649Y-62512013D01*
X92582913Y-62460827D01*
X92730155Y-62371816D01*
X92851816Y-62250155D01*
X92940827Y-62102913D01*
X92992013Y-61938649D01*
X92998500Y-61867265D01*
X92998499Y-60052736D01*
X92992013Y-59981351D01*
X92940827Y-59817087D01*
X92851816Y-59669845D01*
X92851815Y-59669844D01*
X92851811Y-59669839D01*
X92730160Y-59548188D01*
X92730155Y-59548184D01*
X92730154Y-59548184D01*
X92582913Y-59459173D01*
X92582912Y-59459172D01*
X92582911Y-59459172D01*
X92582906Y-59459170D01*
X92418646Y-59407986D01*
X92366722Y-59403268D01*
X92347265Y-59401500D01*
X92347262Y-59401500D01*
X90532738Y-59401500D01*
X90461353Y-59407986D01*
X90461352Y-59407986D01*
X90297093Y-59459170D01*
X90297088Y-59459172D01*
X90149844Y-59548184D01*
X90149839Y-59548188D01*
X90028188Y-59669839D01*
X90028182Y-59669847D01*
X90023319Y-59677892D01*
X89970960Y-59725840D01*
X89900989Y-59737869D01*
X89835624Y-59710159D01*
X89833662Y-59708517D01*
X89818604Y-59695656D01*
X89818602Y-59695655D01*
X89609503Y-59567518D01*
X89382933Y-59473671D01*
X89382927Y-59473669D01*
X89254000Y-59442715D01*
X89254000Y-60605147D01*
X89173100Y-60535048D01*
X89042315Y-60475320D01*
X88935763Y-60460000D01*
X88864237Y-60460000D01*
X88757685Y-60475320D01*
X88626900Y-60535048D01*
X88546000Y-60605147D01*
X88546000Y-59442715D01*
X88417072Y-59473669D01*
X88417066Y-59473671D01*
X88190496Y-59567518D01*
X87981397Y-59695655D01*
X87981395Y-59695656D01*
X87794923Y-59854918D01*
X87726139Y-59935454D01*
X87666688Y-59974263D01*
X87595693Y-59974769D01*
X87535695Y-59936813D01*
X87534558Y-59935501D01*
X87465433Y-59854567D01*
X87278896Y-59695248D01*
X87278894Y-59695246D01*
X87278892Y-59695245D01*
X87070458Y-59567518D01*
X87069732Y-59567073D01*
X86843092Y-59473195D01*
X86604557Y-59415928D01*
X86360000Y-59396681D01*
X86115443Y-59415928D01*
X85876907Y-59473195D01*
X85650266Y-59567074D01*
X85441107Y-59695245D01*
X85254567Y-59854567D01*
X85185811Y-59935069D01*
X85126360Y-59973878D01*
X85055365Y-59974384D01*
X84995367Y-59936428D01*
X84994189Y-59935069D01*
X84982089Y-59920903D01*
X84925433Y-59854567D01*
X84738896Y-59695248D01*
X84738894Y-59695246D01*
X84738892Y-59695245D01*
X84530458Y-59567518D01*
X84529732Y-59567073D01*
X84303092Y-59473195D01*
X84064557Y-59415928D01*
X83820000Y-59396681D01*
X83575443Y-59415928D01*
X83336907Y-59473195D01*
X83110266Y-59567074D01*
X82901107Y-59695245D01*
X82714567Y-59854567D01*
X82645811Y-59935069D01*
X82586360Y-59973878D01*
X82515365Y-59974384D01*
X82455367Y-59936428D01*
X82454189Y-59935069D01*
X82442089Y-59920903D01*
X82385433Y-59854567D01*
X82198896Y-59695248D01*
X82198894Y-59695246D01*
X82198892Y-59695245D01*
X81990458Y-59567518D01*
X81989732Y-59567073D01*
X81763092Y-59473195D01*
X81524557Y-59415928D01*
X81280000Y-59396681D01*
X81035443Y-59415928D01*
X80796907Y-59473195D01*
X80570266Y-59567074D01*
X80361107Y-59695245D01*
X80174567Y-59854567D01*
X80105811Y-59935069D01*
X80046360Y-59973878D01*
X79975365Y-59974384D01*
X79915367Y-59936428D01*
X79914189Y-59935069D01*
X79902089Y-59920903D01*
X79845433Y-59854567D01*
X79658896Y-59695248D01*
X79658894Y-59695246D01*
X79658892Y-59695245D01*
X79450458Y-59567518D01*
X79449732Y-59567073D01*
X79223092Y-59473195D01*
X78984557Y-59415928D01*
X78740000Y-59396681D01*
X78495443Y-59415928D01*
X78256907Y-59473195D01*
X78030266Y-59567074D01*
X77821107Y-59695245D01*
X77634567Y-59854567D01*
X77565811Y-59935069D01*
X77506360Y-59973878D01*
X77435365Y-59974384D01*
X77375367Y-59936428D01*
X77374189Y-59935069D01*
X77362089Y-59920903D01*
X77305433Y-59854567D01*
X77118896Y-59695248D01*
X77118894Y-59695246D01*
X77118892Y-59695245D01*
X76910458Y-59567518D01*
X76909732Y-59567073D01*
X76683092Y-59473195D01*
X76444557Y-59415928D01*
X76200000Y-59396681D01*
X75955443Y-59415928D01*
X75716907Y-59473195D01*
X75490266Y-59567074D01*
X75281107Y-59695245D01*
X75094567Y-59854567D01*
X75025811Y-59935069D01*
X74966360Y-59973878D01*
X74895365Y-59974384D01*
X74835367Y-59936428D01*
X74834189Y-59935069D01*
X74822089Y-59920903D01*
X74765433Y-59854567D01*
X74578896Y-59695248D01*
X74578894Y-59695246D01*
X74578892Y-59695245D01*
X74370458Y-59567518D01*
X74369732Y-59567073D01*
X74143092Y-59473195D01*
X73904557Y-59415928D01*
X73660000Y-59396681D01*
X73415443Y-59415928D01*
X73176907Y-59473195D01*
X72950266Y-59567074D01*
X72741107Y-59695245D01*
X72554567Y-59854567D01*
X72485811Y-59935069D01*
X72426360Y-59973878D01*
X72355365Y-59974384D01*
X72295367Y-59936428D01*
X72294189Y-59935069D01*
X72282089Y-59920903D01*
X72225433Y-59854567D01*
X72038896Y-59695248D01*
X72038894Y-59695246D01*
X72038892Y-59695245D01*
X71830458Y-59567518D01*
X71829732Y-59567073D01*
X71603092Y-59473195D01*
X71364557Y-59415928D01*
X71120000Y-59396681D01*
X70875443Y-59415928D01*
X70636907Y-59473195D01*
X70410266Y-59567074D01*
X70201107Y-59695245D01*
X70014567Y-59854567D01*
X69945811Y-59935069D01*
X69886360Y-59973878D01*
X69815365Y-59974384D01*
X69755367Y-59936428D01*
X69754189Y-59935069D01*
X69742089Y-59920903D01*
X69685433Y-59854567D01*
X69498896Y-59695248D01*
X69498894Y-59695246D01*
X69498892Y-59695245D01*
X69290458Y-59567518D01*
X69289732Y-59567073D01*
X69063092Y-59473195D01*
X68824557Y-59415928D01*
X68580000Y-59396681D01*
X68335443Y-59415928D01*
X68096907Y-59473195D01*
X67870266Y-59567074D01*
X67661107Y-59695245D01*
X67474567Y-59854567D01*
X67405811Y-59935069D01*
X67346360Y-59973878D01*
X67275365Y-59974384D01*
X67215367Y-59936428D01*
X67214189Y-59935069D01*
X67202089Y-59920903D01*
X67145433Y-59854567D01*
X66958896Y-59695248D01*
X66958894Y-59695246D01*
X66958892Y-59695245D01*
X66750458Y-59567518D01*
X66749732Y-59567073D01*
X66523092Y-59473195D01*
X66284557Y-59415928D01*
X66040000Y-59396681D01*
X65795443Y-59415928D01*
X65556907Y-59473195D01*
X65330266Y-59567074D01*
X65121107Y-59695245D01*
X64934567Y-59854567D01*
X64865811Y-59935069D01*
X64806360Y-59973878D01*
X64735365Y-59974384D01*
X64675367Y-59936428D01*
X64674189Y-59935069D01*
X64662089Y-59920903D01*
X64605433Y-59854567D01*
X64418896Y-59695248D01*
X64418894Y-59695246D01*
X64418892Y-59695245D01*
X64210458Y-59567518D01*
X64209732Y-59567073D01*
X63983092Y-59473195D01*
X63744557Y-59415928D01*
X63500000Y-59396681D01*
X63255443Y-59415928D01*
X63016907Y-59473195D01*
X62790266Y-59567074D01*
X62581107Y-59695245D01*
X62394567Y-59854567D01*
X62325811Y-59935069D01*
X62266360Y-59973878D01*
X62195365Y-59974384D01*
X62135367Y-59936428D01*
X62134189Y-59935069D01*
X62122089Y-59920903D01*
X62065433Y-59854567D01*
X61878896Y-59695248D01*
X61878894Y-59695246D01*
X61878892Y-59695245D01*
X61670458Y-59567518D01*
X61669732Y-59567073D01*
X61443092Y-59473195D01*
X61204557Y-59415928D01*
X60960000Y-59396681D01*
X60715443Y-59415928D01*
X60476907Y-59473195D01*
X60250266Y-59567074D01*
X60041107Y-59695245D01*
X59854567Y-59854567D01*
X59785811Y-59935069D01*
X59726360Y-59973878D01*
X59655365Y-59974384D01*
X59595367Y-59936428D01*
X59594189Y-59935069D01*
X59582089Y-59920903D01*
X59525433Y-59854567D01*
X59338896Y-59695248D01*
X59338894Y-59695246D01*
X59338892Y-59695245D01*
X59130458Y-59567518D01*
X59129732Y-59567073D01*
X58903092Y-59473195D01*
X58664557Y-59415928D01*
X58420000Y-59396681D01*
X58175443Y-59415928D01*
X57936907Y-59473195D01*
X57710266Y-59567074D01*
X57501107Y-59695245D01*
X57314566Y-59854567D01*
X57245809Y-59935070D01*
X57186358Y-59973878D01*
X57115363Y-59974384D01*
X57055365Y-59936427D01*
X57054188Y-59935068D01*
X56985435Y-59854569D01*
X56816354Y-59710159D01*
X56798896Y-59695248D01*
X56798894Y-59695246D01*
X56798892Y-59695245D01*
X56590458Y-59567518D01*
X56589732Y-59567073D01*
X56363092Y-59473195D01*
X56124557Y-59415928D01*
X55880000Y-59396681D01*
X55635443Y-59415928D01*
X55396907Y-59473195D01*
X55170266Y-59567074D01*
X54961107Y-59695245D01*
X54774567Y-59854567D01*
X54615245Y-60041107D01*
X54487074Y-60250266D01*
X54393195Y-60476907D01*
X54335927Y-60715443D01*
X54335928Y-60715443D01*
X54316681Y-60960000D01*
X53025500Y-60960000D01*
X53025500Y-49563783D01*
X86439500Y-49563783D01*
X86472123Y-49759288D01*
X86478601Y-49798105D01*
X86478603Y-49798114D01*
X86555738Y-50022800D01*
X86555739Y-50022803D01*
X86668808Y-50231736D01*
X86668809Y-50231737D01*
X86814730Y-50419217D01*
X86989507Y-50580110D01*
X87188391Y-50710046D01*
X87188390Y-50710046D01*
X87327891Y-50771237D01*
X87405948Y-50805476D01*
X87405949Y-50805476D01*
X87405951Y-50805477D01*
X87636237Y-50863793D01*
X87636245Y-50863795D01*
X87813709Y-50878500D01*
X87813715Y-50878500D01*
X88482285Y-50878500D01*
X88482291Y-50878500D01*
X88659755Y-50863795D01*
X88890052Y-50805476D01*
X89107609Y-50710046D01*
X89306492Y-50580110D01*
X89306491Y-50580110D01*
X89435013Y-50461799D01*
X89498678Y-50430378D01*
X89520350Y-50428500D01*
X90589167Y-50428500D01*
X90657288Y-50448502D01*
X90678262Y-50465405D01*
X90794831Y-50581974D01*
X90978799Y-50710790D01*
X91182340Y-50805703D01*
X91373640Y-50856961D01*
X91399136Y-50863793D01*
X91399271Y-50863829D01*
X91566959Y-50878500D01*
X91566966Y-50878500D01*
X92329034Y-50878500D01*
X92329041Y-50878500D01*
X92496729Y-50863829D01*
X92713660Y-50805703D01*
X92917201Y-50710790D01*
X93101169Y-50581974D01*
X93259974Y-50423169D01*
X93388790Y-50239202D01*
X93483703Y-50035660D01*
X93541829Y-49818729D01*
X93561403Y-49595000D01*
X93541829Y-49371271D01*
X93483703Y-49154340D01*
X93388790Y-48950799D01*
X93259974Y-48766831D01*
X93101169Y-48608026D01*
X92917201Y-48479210D01*
X92713660Y-48384297D01*
X92713658Y-48384296D01*
X92713657Y-48384296D01*
X92496732Y-48326171D01*
X92446422Y-48321769D01*
X92329041Y-48311500D01*
X91566959Y-48311500D01*
X91460248Y-48320836D01*
X91399267Y-48326171D01*
X91182342Y-48384296D01*
X91182337Y-48384298D01*
X90978798Y-48479210D01*
X90794834Y-48608023D01*
X90794828Y-48608028D01*
X90678262Y-48724595D01*
X90615950Y-48758621D01*
X90589167Y-48761500D01*
X90363277Y-48761500D01*
X90295156Y-48741498D01*
X90248663Y-48687842D01*
X90238559Y-48617568D01*
X90242086Y-48601021D01*
X90255209Y-48554895D01*
X90256264Y-48551549D01*
X90264713Y-48527135D01*
X90280153Y-48482527D01*
X90283996Y-48455792D01*
X90285761Y-48447518D01*
X90292294Y-48424559D01*
X90299049Y-48351654D01*
X90299418Y-48348532D01*
X90310281Y-48272984D01*
X90309152Y-48249299D01*
X90309349Y-48240489D01*
X90311249Y-48220000D01*
X90304186Y-48143789D01*
X90303996Y-48141071D01*
X90300208Y-48061526D01*
X90296478Y-48046153D01*
X90293464Y-48028076D01*
X90292294Y-48015441D01*
X90270453Y-47938681D01*
X90269841Y-47936356D01*
X90250298Y-47855796D01*
X90245168Y-47844565D01*
X90238594Y-47826707D01*
X90236074Y-47817848D01*
X90199056Y-47743508D01*
X90198146Y-47741600D01*
X90162358Y-47663232D01*
X90162356Y-47663229D01*
X90157208Y-47656000D01*
X90147061Y-47639087D01*
X90144503Y-47633950D01*
X90144500Y-47633946D01*
X90144499Y-47633944D01*
X90092495Y-47565081D01*
X90091452Y-47563658D01*
X90039565Y-47490793D01*
X90039562Y-47490788D01*
X90039559Y-47490785D01*
X90035655Y-47487062D01*
X90022062Y-47471812D01*
X90020701Y-47470009D01*
X89954457Y-47409620D01*
X89953478Y-47408707D01*
X89886346Y-47344697D01*
X89884739Y-47343664D01*
X89873561Y-47335074D01*
X89873529Y-47335118D01*
X89868888Y-47331613D01*
X89868882Y-47331608D01*
X89789445Y-47282422D01*
X89751349Y-47257939D01*
X89708255Y-47230244D01*
X89702916Y-47227492D01*
X89702955Y-47227415D01*
X89699601Y-47225722D01*
X89699435Y-47226057D01*
X89694217Y-47223459D01*
X89604181Y-47188579D01*
X89511727Y-47151565D01*
X89511717Y-47151562D01*
X89511532Y-47151527D01*
X89506223Y-47150264D01*
X89502653Y-47149248D01*
X89404693Y-47130936D01*
X89303855Y-47111501D01*
X89303853Y-47111500D01*
X89303849Y-47111500D01*
X89300718Y-47111500D01*
X89107500Y-47111500D01*
X89039379Y-47091498D01*
X88992886Y-47037842D01*
X88981500Y-46985500D01*
X88981500Y-44454500D01*
X89001502Y-44386379D01*
X89055158Y-44339886D01*
X89107500Y-44328500D01*
X89300715Y-44328500D01*
X89300718Y-44328500D01*
X89350077Y-44319272D01*
X89355642Y-44318488D01*
X89408739Y-44313419D01*
X89453612Y-44300242D01*
X89459777Y-44298765D01*
X89502655Y-44290751D01*
X89552536Y-44271426D01*
X89557523Y-44269731D01*
X89611862Y-44253777D01*
X89650505Y-44233853D01*
X89656592Y-44231115D01*
X89694218Y-44216540D01*
X89742487Y-44186651D01*
X89746768Y-44184226D01*
X89800026Y-44156771D01*
X89831609Y-44131932D01*
X89837378Y-44127897D01*
X89868882Y-44108392D01*
X89913278Y-44067918D01*
X89916762Y-44064967D01*
X89966432Y-44025908D01*
X89990595Y-43998021D01*
X89995743Y-43992742D01*
X90020701Y-43969991D01*
X90058881Y-43919430D01*
X90061535Y-43916153D01*
X90105065Y-43865918D01*
X90121864Y-43836817D01*
X90126145Y-43830358D01*
X90144503Y-43806050D01*
X90174205Y-43746398D01*
X90176034Y-43742994D01*
X90182339Y-43732072D01*
X90210913Y-43682582D01*
X90220822Y-43653951D01*
X90223962Y-43646475D01*
X90236074Y-43622152D01*
X90255212Y-43554885D01*
X90256264Y-43551548D01*
X90259157Y-43543188D01*
X90280153Y-43482527D01*
X90283996Y-43455792D01*
X90285761Y-43447518D01*
X90292294Y-43424559D01*
X90299049Y-43351654D01*
X90299418Y-43348532D01*
X90310281Y-43272984D01*
X90309152Y-43249299D01*
X90309349Y-43240489D01*
X90311249Y-43220000D01*
X90304186Y-43143789D01*
X90303996Y-43141071D01*
X90300208Y-43061526D01*
X90296478Y-43046153D01*
X90293464Y-43028076D01*
X90292294Y-43015441D01*
X90284766Y-42988983D01*
X90285361Y-42917989D01*
X90324244Y-42858587D01*
X90389070Y-42829637D01*
X90405955Y-42828500D01*
X90750142Y-42828500D01*
X90818263Y-42848502D01*
X90822407Y-42851283D01*
X90978799Y-42960790D01*
X91182340Y-43055703D01*
X91399271Y-43113829D01*
X91566959Y-43128500D01*
X91566966Y-43128500D01*
X92329034Y-43128500D01*
X92329041Y-43128500D01*
X92496729Y-43113829D01*
X92713660Y-43055703D01*
X92917201Y-42960790D01*
X93101169Y-42831974D01*
X93259974Y-42673169D01*
X93388790Y-42489202D01*
X93483703Y-42285660D01*
X93541829Y-42068729D01*
X93561403Y-41845000D01*
X93541829Y-41621271D01*
X93483703Y-41404340D01*
X93388790Y-41200799D01*
X93259974Y-41016831D01*
X93101169Y-40858026D01*
X92917201Y-40729210D01*
X92713660Y-40634297D01*
X92713658Y-40634296D01*
X92713657Y-40634296D01*
X92496732Y-40576171D01*
X92446422Y-40571769D01*
X92329041Y-40561500D01*
X91566959Y-40561500D01*
X91460248Y-40570836D01*
X91399267Y-40576171D01*
X91182342Y-40634296D01*
X91182337Y-40634298D01*
X90978798Y-40729210D01*
X90794834Y-40858023D01*
X90636025Y-41016831D01*
X90572349Y-41107771D01*
X90516892Y-41152099D01*
X90469136Y-41161500D01*
X89652392Y-41161500D01*
X89584271Y-41141498D01*
X89552960Y-41112891D01*
X89548975Y-41107771D01*
X89481275Y-41020789D01*
X89481273Y-41020787D01*
X89481269Y-41020782D01*
X89306492Y-40859889D01*
X89107608Y-40729953D01*
X89107609Y-40729953D01*
X88890055Y-40634525D01*
X88890048Y-40634522D01*
X88659762Y-40576206D01*
X88659757Y-40576205D01*
X88659755Y-40576205D01*
X88548281Y-40566968D01*
X88482294Y-40561500D01*
X88482291Y-40561500D01*
X87813709Y-40561500D01*
X87813705Y-40561500D01*
X87725721Y-40568790D01*
X87636245Y-40576205D01*
X87636243Y-40576205D01*
X87636237Y-40576206D01*
X87405951Y-40634522D01*
X87405944Y-40634525D01*
X87188391Y-40729953D01*
X86989507Y-40859889D01*
X86814730Y-41020782D01*
X86668809Y-41208262D01*
X86668808Y-41208263D01*
X86555739Y-41417196D01*
X86555738Y-41417199D01*
X86478603Y-41641885D01*
X86478601Y-41641890D01*
X86478602Y-41641890D01*
X86439500Y-41876217D01*
X86439500Y-42113783D01*
X86468181Y-42285657D01*
X86478601Y-42348105D01*
X86478603Y-42348114D01*
X86555738Y-42572800D01*
X86555739Y-42572803D01*
X86610055Y-42673169D01*
X86668809Y-42781737D01*
X86728623Y-42858587D01*
X86814730Y-42969217D01*
X86989507Y-43130110D01*
X87188382Y-43260041D01*
X87188387Y-43260043D01*
X87188391Y-43260046D01*
X87239114Y-43282295D01*
X87293462Y-43327975D01*
X87314486Y-43395787D01*
X87314500Y-43397682D01*
X87314500Y-48042317D01*
X87294498Y-48110438D01*
X87240842Y-48156931D01*
X87239115Y-48157704D01*
X87188389Y-48179954D01*
X86989507Y-48309889D01*
X86814730Y-48470782D01*
X86668809Y-48658262D01*
X86668808Y-48658263D01*
X86555739Y-48867196D01*
X86555738Y-48867199D01*
X86478603Y-49091885D01*
X86478601Y-49091894D01*
X86468181Y-49154340D01*
X86439500Y-49326217D01*
X86439500Y-49563783D01*
X53025500Y-49563783D01*
X53025500Y-43873731D01*
X63647650Y-43873731D01*
X63668085Y-44081223D01*
X63668086Y-44081229D01*
X63668087Y-44081230D01*
X63682242Y-44127894D01*
X63728613Y-44280759D01*
X63826903Y-44464645D01*
X63959175Y-44625819D01*
X63959178Y-44625822D01*
X64001236Y-44660338D01*
X64017434Y-44673632D01*
X64057402Y-44732309D01*
X64063499Y-44771030D01*
X64063499Y-45403015D01*
X64043497Y-45471136D01*
X64034900Y-45482946D01*
X64012632Y-45510080D01*
X63914341Y-45693968D01*
X63853813Y-45893504D01*
X63833378Y-46100996D01*
X63833378Y-46101003D01*
X63853813Y-46308495D01*
X63853814Y-46308501D01*
X63853815Y-46308502D01*
X63914341Y-46508031D01*
X64012631Y-46691917D01*
X64144906Y-46853094D01*
X64306083Y-46985369D01*
X64489969Y-47083659D01*
X64689498Y-47144185D01*
X64689502Y-47144185D01*
X64689504Y-47144186D01*
X64896997Y-47164622D01*
X64897000Y-47164622D01*
X64897003Y-47164622D01*
X65104495Y-47144186D01*
X65104496Y-47144185D01*
X65104502Y-47144185D01*
X65304031Y-47083659D01*
X65487917Y-46985369D01*
X65649094Y-46853094D01*
X65781369Y-46691917D01*
X65879659Y-46508031D01*
X65940185Y-46308502D01*
X65960622Y-46101000D01*
X65940185Y-45893498D01*
X65879659Y-45693969D01*
X65781369Y-45510083D01*
X65759100Y-45482948D01*
X65731347Y-45417601D01*
X65730500Y-45403015D01*
X65730500Y-44178897D01*
X65735925Y-44142322D01*
X65739737Y-44129755D01*
X65754457Y-44081230D01*
X65755768Y-44067925D01*
X65774894Y-43873731D01*
X65774894Y-43873724D01*
X65754458Y-43666232D01*
X65754457Y-43666230D01*
X65754457Y-43666226D01*
X65693931Y-43466697D01*
X65595641Y-43282811D01*
X65463366Y-43121634D01*
X65302189Y-42989359D01*
X65118303Y-42891069D01*
X64918774Y-42830543D01*
X64918773Y-42830542D01*
X64918767Y-42830541D01*
X64711275Y-42810106D01*
X64711269Y-42810106D01*
X64503776Y-42830541D01*
X64304240Y-42891069D01*
X64120354Y-42989359D01*
X63959178Y-43121634D01*
X63826903Y-43282810D01*
X63728613Y-43466696D01*
X63668085Y-43666232D01*
X63647650Y-43873724D01*
X63647650Y-43873731D01*
X53025500Y-43873731D01*
X53025500Y-30480000D01*
X54316681Y-30480000D01*
X54335928Y-30724557D01*
X54393195Y-30963092D01*
X54487073Y-31189732D01*
X54487074Y-31189733D01*
X54615245Y-31398892D01*
X54615246Y-31398894D01*
X54615248Y-31398896D01*
X54774567Y-31585433D01*
X54961104Y-31744752D01*
X55170268Y-31872927D01*
X55396908Y-31966805D01*
X55635443Y-32024072D01*
X55880000Y-32043319D01*
X56124557Y-32024072D01*
X56363092Y-31966805D01*
X56589732Y-31872927D01*
X56798896Y-31744752D01*
X56985433Y-31585433D01*
X57054190Y-31504929D01*
X57113640Y-31466121D01*
X57184634Y-31465615D01*
X57244633Y-31503571D01*
X57245767Y-31504879D01*
X57314567Y-31585433D01*
X57501104Y-31744752D01*
X57710268Y-31872927D01*
X57936908Y-31966805D01*
X58175443Y-32024072D01*
X58420000Y-32043319D01*
X58664557Y-32024072D01*
X58903092Y-31966805D01*
X59129732Y-31872927D01*
X59338896Y-31744752D01*
X59525433Y-31585433D01*
X59594190Y-31504929D01*
X59653640Y-31466121D01*
X59724634Y-31465615D01*
X59784633Y-31503571D01*
X59785767Y-31504879D01*
X59854567Y-31585433D01*
X60041104Y-31744752D01*
X60250268Y-31872927D01*
X60476908Y-31966805D01*
X60715443Y-32024072D01*
X60960000Y-32043319D01*
X61204557Y-32024072D01*
X61443092Y-31966805D01*
X61669732Y-31872927D01*
X61878896Y-31744752D01*
X62065433Y-31585433D01*
X62134190Y-31504929D01*
X62193640Y-31466121D01*
X62264634Y-31465615D01*
X62324633Y-31503571D01*
X62325767Y-31504879D01*
X62394567Y-31585433D01*
X62581104Y-31744752D01*
X62790268Y-31872927D01*
X63016908Y-31966805D01*
X63255443Y-32024072D01*
X63500000Y-32043319D01*
X63744557Y-32024072D01*
X63983092Y-31966805D01*
X64209732Y-31872927D01*
X64418896Y-31744752D01*
X64605433Y-31585433D01*
X64674190Y-31504929D01*
X64733640Y-31466121D01*
X64804634Y-31465615D01*
X64864633Y-31503571D01*
X64865767Y-31504879D01*
X64934567Y-31585433D01*
X65121104Y-31744752D01*
X65330268Y-31872927D01*
X65556908Y-31966805D01*
X65795443Y-32024072D01*
X66040000Y-32043319D01*
X66284557Y-32024072D01*
X66523092Y-31966805D01*
X66749732Y-31872927D01*
X66958896Y-31744752D01*
X67145433Y-31585433D01*
X67214190Y-31504929D01*
X67273640Y-31466121D01*
X67344634Y-31465615D01*
X67404633Y-31503571D01*
X67405767Y-31504879D01*
X67474567Y-31585433D01*
X67661104Y-31744752D01*
X67870268Y-31872927D01*
X68096908Y-31966805D01*
X68335443Y-32024072D01*
X68580000Y-32043319D01*
X68824557Y-32024072D01*
X69063092Y-31966805D01*
X69289732Y-31872927D01*
X69498896Y-31744752D01*
X69685433Y-31585433D01*
X69754191Y-31504928D01*
X69813638Y-31466122D01*
X69884633Y-31465614D01*
X69944631Y-31503570D01*
X69945809Y-31504930D01*
X70014563Y-31585429D01*
X70014565Y-31585430D01*
X70014567Y-31585433D01*
X70201104Y-31744752D01*
X70410268Y-31872927D01*
X70636908Y-31966805D01*
X70875443Y-32024072D01*
X71120000Y-32043319D01*
X71364557Y-32024072D01*
X71603092Y-31966805D01*
X71829732Y-31872927D01*
X72038896Y-31744752D01*
X72225433Y-31585433D01*
X72294190Y-31504929D01*
X72353640Y-31466121D01*
X72424634Y-31465615D01*
X72484633Y-31503571D01*
X72485767Y-31504879D01*
X72554567Y-31585433D01*
X72741104Y-31744752D01*
X72950268Y-31872927D01*
X73176908Y-31966805D01*
X73415443Y-32024072D01*
X73660000Y-32043319D01*
X73904557Y-32024072D01*
X74143092Y-31966805D01*
X74369732Y-31872927D01*
X74578896Y-31744752D01*
X74765433Y-31585433D01*
X74834190Y-31504929D01*
X74893640Y-31466121D01*
X74964634Y-31465615D01*
X75024633Y-31503571D01*
X75025767Y-31504879D01*
X75094567Y-31585433D01*
X75281104Y-31744752D01*
X75490268Y-31872927D01*
X75716908Y-31966805D01*
X75955443Y-32024072D01*
X76200000Y-32043319D01*
X76444557Y-32024072D01*
X76683092Y-31966805D01*
X76909732Y-31872927D01*
X77118896Y-31744752D01*
X77305433Y-31585433D01*
X77374190Y-31504929D01*
X77433640Y-31466121D01*
X77504634Y-31465615D01*
X77564633Y-31503571D01*
X77565767Y-31504879D01*
X77634567Y-31585433D01*
X77821104Y-31744752D01*
X78030268Y-31872927D01*
X78256908Y-31966805D01*
X78495443Y-32024072D01*
X78740000Y-32043319D01*
X78984557Y-32024072D01*
X79223092Y-31966805D01*
X79449732Y-31872927D01*
X79658896Y-31744752D01*
X79845433Y-31585433D01*
X79914190Y-31504929D01*
X79973640Y-31466121D01*
X80044634Y-31465615D01*
X80104633Y-31503571D01*
X80105767Y-31504879D01*
X80174567Y-31585433D01*
X80361104Y-31744752D01*
X80570268Y-31872927D01*
X80796908Y-31966805D01*
X81035443Y-32024072D01*
X81280000Y-32043319D01*
X81524557Y-32024072D01*
X81763092Y-31966805D01*
X81989732Y-31872927D01*
X82198896Y-31744752D01*
X82385433Y-31585433D01*
X82454190Y-31504929D01*
X82513640Y-31466121D01*
X82584634Y-31465615D01*
X82644633Y-31503571D01*
X82645767Y-31504879D01*
X82714567Y-31585433D01*
X82901104Y-31744752D01*
X83110268Y-31872927D01*
X83336908Y-31966805D01*
X83575443Y-32024072D01*
X83820000Y-32043319D01*
X84064557Y-32024072D01*
X84303092Y-31966805D01*
X84529732Y-31872927D01*
X84738896Y-31744752D01*
X84925433Y-31585433D01*
X84994190Y-31504929D01*
X85053640Y-31466121D01*
X85124634Y-31465615D01*
X85184633Y-31503571D01*
X85185767Y-31504879D01*
X85254567Y-31585433D01*
X85441104Y-31744752D01*
X85650268Y-31872927D01*
X85876908Y-31966805D01*
X86115443Y-32024072D01*
X86360000Y-32043319D01*
X86604557Y-32024072D01*
X86843092Y-31966805D01*
X87069732Y-31872927D01*
X87278896Y-31744752D01*
X87465433Y-31585433D01*
X87534519Y-31504543D01*
X87593967Y-31465737D01*
X87664962Y-31465229D01*
X87724961Y-31503185D01*
X87726139Y-31504546D01*
X87794920Y-31585079D01*
X87981395Y-31744343D01*
X87981397Y-31744344D01*
X88190496Y-31872481D01*
X88417064Y-31966328D01*
X88546000Y-31997282D01*
X88546000Y-30834852D01*
X88626900Y-30904952D01*
X88757685Y-30964680D01*
X88864237Y-30980000D01*
X88935763Y-30980000D01*
X89042315Y-30964680D01*
X89173100Y-30904952D01*
X89254000Y-30834852D01*
X89254000Y-31997281D01*
X89382935Y-31966328D01*
X89609503Y-31872481D01*
X89818604Y-31744343D01*
X89833659Y-31731485D01*
X89898448Y-31702452D01*
X89968649Y-31713056D01*
X90021972Y-31759929D01*
X90023319Y-31762108D01*
X90028182Y-31770152D01*
X90028188Y-31770160D01*
X90149839Y-31891811D01*
X90149844Y-31891815D01*
X90149845Y-31891816D01*
X90297087Y-31980827D01*
X90461351Y-32032013D01*
X90532735Y-32038500D01*
X92347264Y-32038499D01*
X92418649Y-32032013D01*
X92582913Y-31980827D01*
X92730155Y-31891816D01*
X92851816Y-31770155D01*
X92940827Y-31622913D01*
X92992013Y-31458649D01*
X92998500Y-31387265D01*
X92998499Y-29572736D01*
X92992013Y-29501351D01*
X92940827Y-29337087D01*
X92851816Y-29189845D01*
X92851815Y-29189844D01*
X92851811Y-29189839D01*
X92730160Y-29068188D01*
X92730155Y-29068184D01*
X92638456Y-29012750D01*
X92582913Y-28979173D01*
X92582912Y-28979172D01*
X92582911Y-28979172D01*
X92582906Y-28979170D01*
X92418646Y-28927986D01*
X92366722Y-28923268D01*
X92347265Y-28921500D01*
X92347262Y-28921500D01*
X90532738Y-28921500D01*
X90461353Y-28927986D01*
X90461352Y-28927986D01*
X90297093Y-28979170D01*
X90297088Y-28979172D01*
X90149844Y-29068184D01*
X90149839Y-29068188D01*
X90028188Y-29189839D01*
X90028182Y-29189847D01*
X90023319Y-29197892D01*
X89970960Y-29245840D01*
X89900989Y-29257869D01*
X89835624Y-29230159D01*
X89833662Y-29228517D01*
X89818604Y-29215656D01*
X89818602Y-29215655D01*
X89609503Y-29087518D01*
X89382933Y-28993671D01*
X89382927Y-28993669D01*
X89254000Y-28962715D01*
X89254000Y-30125147D01*
X89173100Y-30055048D01*
X89042315Y-29995320D01*
X88935763Y-29980000D01*
X88864237Y-29980000D01*
X88757685Y-29995320D01*
X88626900Y-30055048D01*
X88546000Y-30125147D01*
X88546000Y-28962715D01*
X88417072Y-28993669D01*
X88417066Y-28993671D01*
X88190496Y-29087518D01*
X87981397Y-29215655D01*
X87981395Y-29215656D01*
X87794923Y-29374918D01*
X87726139Y-29455454D01*
X87666688Y-29494263D01*
X87595693Y-29494769D01*
X87535695Y-29456813D01*
X87534558Y-29455501D01*
X87465433Y-29374567D01*
X87278896Y-29215248D01*
X87278894Y-29215246D01*
X87278892Y-29215245D01*
X87070458Y-29087518D01*
X87069732Y-29087073D01*
X86843092Y-28993195D01*
X86604557Y-28935928D01*
X86360000Y-28916681D01*
X86115443Y-28935928D01*
X85876907Y-28993195D01*
X85650266Y-29087074D01*
X85441107Y-29215245D01*
X85254567Y-29374567D01*
X85185811Y-29455069D01*
X85126360Y-29493878D01*
X85055365Y-29494384D01*
X84995367Y-29456428D01*
X84994189Y-29455069D01*
X84982089Y-29440903D01*
X84925433Y-29374567D01*
X84738896Y-29215248D01*
X84738894Y-29215246D01*
X84738892Y-29215245D01*
X84530458Y-29087518D01*
X84529732Y-29087073D01*
X84303092Y-28993195D01*
X84064557Y-28935928D01*
X83820000Y-28916681D01*
X83575443Y-28935928D01*
X83336907Y-28993195D01*
X83110266Y-29087074D01*
X82901107Y-29215245D01*
X82714567Y-29374567D01*
X82645811Y-29455069D01*
X82586360Y-29493878D01*
X82515365Y-29494384D01*
X82455367Y-29456428D01*
X82454189Y-29455069D01*
X82442089Y-29440903D01*
X82385433Y-29374567D01*
X82198896Y-29215248D01*
X82198894Y-29215246D01*
X82198892Y-29215245D01*
X81990458Y-29087518D01*
X81989732Y-29087073D01*
X81763092Y-28993195D01*
X81524557Y-28935928D01*
X81280000Y-28916681D01*
X81035443Y-28935928D01*
X80796907Y-28993195D01*
X80570266Y-29087074D01*
X80361107Y-29215245D01*
X80174567Y-29374567D01*
X80105811Y-29455069D01*
X80046360Y-29493878D01*
X79975365Y-29494384D01*
X79915367Y-29456428D01*
X79914189Y-29455069D01*
X79902089Y-29440903D01*
X79845433Y-29374567D01*
X79658896Y-29215248D01*
X79658894Y-29215246D01*
X79658892Y-29215245D01*
X79450458Y-29087518D01*
X79449732Y-29087073D01*
X79223092Y-28993195D01*
X78984557Y-28935928D01*
X78740000Y-28916681D01*
X78495443Y-28935928D01*
X78256907Y-28993195D01*
X78030266Y-29087074D01*
X77821107Y-29215245D01*
X77634567Y-29374567D01*
X77565811Y-29455069D01*
X77506360Y-29493878D01*
X77435365Y-29494384D01*
X77375367Y-29456428D01*
X77374189Y-29455069D01*
X77362089Y-29440903D01*
X77305433Y-29374567D01*
X77118896Y-29215248D01*
X77118894Y-29215246D01*
X77118892Y-29215245D01*
X76910458Y-29087518D01*
X76909732Y-29087073D01*
X76683092Y-28993195D01*
X76444557Y-28935928D01*
X76200000Y-28916681D01*
X75955443Y-28935928D01*
X75716907Y-28993195D01*
X75490266Y-29087074D01*
X75281107Y-29215245D01*
X75094567Y-29374567D01*
X75025811Y-29455069D01*
X74966360Y-29493878D01*
X74895365Y-29494384D01*
X74835367Y-29456428D01*
X74834189Y-29455069D01*
X74822089Y-29440903D01*
X74765433Y-29374567D01*
X74578896Y-29215248D01*
X74578894Y-29215246D01*
X74578892Y-29215245D01*
X74370458Y-29087518D01*
X74369732Y-29087073D01*
X74143092Y-28993195D01*
X73904557Y-28935928D01*
X73660000Y-28916681D01*
X73415443Y-28935928D01*
X73176907Y-28993195D01*
X72950266Y-29087074D01*
X72741107Y-29215245D01*
X72554567Y-29374567D01*
X72485811Y-29455069D01*
X72426360Y-29493878D01*
X72355365Y-29494384D01*
X72295367Y-29456428D01*
X72294189Y-29455069D01*
X72282089Y-29440903D01*
X72225433Y-29374567D01*
X72038896Y-29215248D01*
X72038894Y-29215246D01*
X72038892Y-29215245D01*
X71830458Y-29087518D01*
X71829732Y-29087073D01*
X71603092Y-28993195D01*
X71364557Y-28935928D01*
X71120000Y-28916681D01*
X70875443Y-28935928D01*
X70636907Y-28993195D01*
X70410266Y-29087074D01*
X70201107Y-29215245D01*
X70014567Y-29374567D01*
X69945811Y-29455069D01*
X69886360Y-29493878D01*
X69815365Y-29494384D01*
X69755367Y-29456428D01*
X69754189Y-29455069D01*
X69742089Y-29440903D01*
X69685433Y-29374567D01*
X69498896Y-29215248D01*
X69498894Y-29215246D01*
X69498892Y-29215245D01*
X69290458Y-29087518D01*
X69289732Y-29087073D01*
X69063092Y-28993195D01*
X68824557Y-28935928D01*
X68580000Y-28916681D01*
X68335443Y-28935928D01*
X68096907Y-28993195D01*
X67870266Y-29087074D01*
X67661107Y-29215245D01*
X67474567Y-29374567D01*
X67405811Y-29455069D01*
X67346360Y-29493878D01*
X67275365Y-29494384D01*
X67215367Y-29456428D01*
X67214189Y-29455069D01*
X67202089Y-29440903D01*
X67145433Y-29374567D01*
X66958896Y-29215248D01*
X66958894Y-29215246D01*
X66958892Y-29215245D01*
X66750458Y-29087518D01*
X66749732Y-29087073D01*
X66523092Y-28993195D01*
X66284557Y-28935928D01*
X66040000Y-28916681D01*
X65795443Y-28935928D01*
X65556907Y-28993195D01*
X65330266Y-29087074D01*
X65121107Y-29215245D01*
X64934567Y-29374567D01*
X64865811Y-29455069D01*
X64806360Y-29493878D01*
X64735365Y-29494384D01*
X64675367Y-29456428D01*
X64674189Y-29455069D01*
X64662089Y-29440903D01*
X64605433Y-29374567D01*
X64418896Y-29215248D01*
X64418894Y-29215246D01*
X64418892Y-29215245D01*
X64210458Y-29087518D01*
X64209732Y-29087073D01*
X63983092Y-28993195D01*
X63744557Y-28935928D01*
X63500000Y-28916681D01*
X63255443Y-28935928D01*
X63016907Y-28993195D01*
X62790266Y-29087074D01*
X62581107Y-29215245D01*
X62394567Y-29374567D01*
X62325811Y-29455069D01*
X62266360Y-29493878D01*
X62195365Y-29494384D01*
X62135367Y-29456428D01*
X62134189Y-29455069D01*
X62122089Y-29440903D01*
X62065433Y-29374567D01*
X61878896Y-29215248D01*
X61878894Y-29215246D01*
X61878892Y-29215245D01*
X61670458Y-29087518D01*
X61669732Y-29087073D01*
X61443092Y-28993195D01*
X61204557Y-28935928D01*
X60960000Y-28916681D01*
X60715443Y-28935928D01*
X60476907Y-28993195D01*
X60250266Y-29087074D01*
X60041107Y-29215245D01*
X59854567Y-29374567D01*
X59785811Y-29455069D01*
X59726360Y-29493878D01*
X59655365Y-29494384D01*
X59595367Y-29456428D01*
X59594189Y-29455069D01*
X59582089Y-29440903D01*
X59525433Y-29374567D01*
X59338896Y-29215248D01*
X59338894Y-29215246D01*
X59338892Y-29215245D01*
X59130458Y-29087518D01*
X59129732Y-29087073D01*
X58903092Y-28993195D01*
X58664557Y-28935928D01*
X58420000Y-28916681D01*
X58175443Y-28935928D01*
X57936907Y-28993195D01*
X57710266Y-29087074D01*
X57501107Y-29215245D01*
X57314567Y-29374567D01*
X57245811Y-29455069D01*
X57186360Y-29493878D01*
X57115365Y-29494384D01*
X57055367Y-29456428D01*
X57054189Y-29455069D01*
X57042089Y-29440903D01*
X56985433Y-29374567D01*
X56798896Y-29215248D01*
X56798894Y-29215246D01*
X56798892Y-29215245D01*
X56590458Y-29087518D01*
X56589732Y-29087073D01*
X56363092Y-28993195D01*
X56124557Y-28935928D01*
X55880000Y-28916681D01*
X55635443Y-28935928D01*
X55396907Y-28993195D01*
X55170266Y-29087074D01*
X54961107Y-29215245D01*
X54774567Y-29374567D01*
X54615245Y-29561107D01*
X54487074Y-29770266D01*
X54393195Y-29996907D01*
X54335927Y-30235443D01*
X54335928Y-30235443D01*
X54316681Y-30480000D01*
X53025500Y-30480000D01*
X53025500Y-30002059D01*
X53025635Y-29997938D01*
X53040557Y-29770266D01*
X53042122Y-29746393D01*
X53043194Y-29738242D01*
X53091974Y-29493007D01*
X53094103Y-29485060D01*
X53174474Y-29248295D01*
X53177622Y-29240696D01*
X53288216Y-29016434D01*
X53292318Y-29009329D01*
X53431233Y-28801428D01*
X53436238Y-28794905D01*
X53601102Y-28606914D01*
X53606914Y-28601102D01*
X53794905Y-28436238D01*
X53801428Y-28431233D01*
X54009329Y-28292318D01*
X54016434Y-28288216D01*
X54240696Y-28177622D01*
X54248295Y-28174474D01*
X54485060Y-28094103D01*
X54493007Y-28091974D01*
X54738242Y-28043194D01*
X54746393Y-28042122D01*
X54997941Y-28025634D01*
X55002060Y-28025500D01*
X55008285Y-28025500D01*
X91991715Y-28025500D01*
X91997940Y-28025500D01*
X92002058Y-28025634D01*
G37*
%TD.AperFunction*%
%TD*%
M02*
