%TF.GenerationSoftware,KiCad,Pcbnew,8.0.7*%
%TF.CreationDate,2024-12-09T23:50:59+01:00*%
%TF.ProjectId,main_board_proto,6d61696e-5f62-46f6-9172-645f70726f74,rev?*%
%TF.SameCoordinates,Original*%
%TF.FileFunction,Soldermask,Top*%
%TF.FilePolarity,Negative*%
%FSLAX46Y46*%
G04 Gerber Fmt 4.6, Leading zero omitted, Abs format (unit mm)*
G04 Created by KiCad (PCBNEW 8.0.7) date 2024-12-09 23:50:59*
%MOMM*%
%LPD*%
G01*
G04 APERTURE LIST*
G04 Aperture macros list*
%AMRoundRect*
0 Rectangle with rounded corners*
0 $1 Rounding radius*
0 $2 $3 $4 $5 $6 $7 $8 $9 X,Y pos of 4 corners*
0 Add a 4 corners polygon primitive as box body*
4,1,4,$2,$3,$4,$5,$6,$7,$8,$9,$2,$3,0*
0 Add four circle primitives for the rounded corners*
1,1,$1+$1,$2,$3*
1,1,$1+$1,$4,$5*
1,1,$1+$1,$6,$7*
1,1,$1+$1,$8,$9*
0 Add four rect primitives between the rounded corners*
20,1,$1+$1,$2,$3,$4,$5,0*
20,1,$1+$1,$4,$5,$6,$7,0*
20,1,$1+$1,$6,$7,$8,$9,0*
20,1,$1+$1,$8,$9,$2,$3,0*%
G04 Aperture macros list end*
%ADD10R,1.700000X1.700000*%
%ADD11O,1.700000X1.700000*%
%ADD12R,3.000000X3.000000*%
%ADD13C,3.000000*%
%ADD14R,2.200000X2.200000*%
%ADD15O,2.200000X2.200000*%
%ADD16C,1.600000*%
%ADD17O,1.600000X1.600000*%
%ADD18R,1.800000X1.800000*%
%ADD19C,1.800000*%
%ADD20RoundRect,0.250000X0.845000X-0.620000X0.845000X0.620000X-0.845000X0.620000X-0.845000X-0.620000X0*%
%ADD21O,2.190000X1.740000*%
%ADD22R,1.500000X1.500000*%
%ADD23C,1.500000*%
G04 APERTURE END LIST*
D10*
%TO.C,IN_M2*%
X77241000Y-87894000D03*
D11*
X77241000Y-85354000D03*
%TD*%
D12*
%TO.C,M_Driver2*%
X147574000Y-85598000D03*
D13*
X147574000Y-80518000D03*
X147574000Y-75438000D03*
%TD*%
D12*
%TO.C,M2*%
X55880000Y-79883000D03*
D13*
X55880000Y-84963000D03*
%TD*%
D14*
%TO.C,D1*%
X139065000Y-111760000D03*
D15*
X139065000Y-101600000D03*
%TD*%
D13*
%TO.C,OUT2*%
X108712000Y-51054000D03*
X113792000Y-51054000D03*
D12*
X118872000Y-51054000D03*
%TD*%
D16*
%TO.C,R1*%
X128905000Y-104648000D03*
D17*
X128905000Y-94488000D03*
%TD*%
D10*
%TO.C,Ardu_M1*%
X83947000Y-58928000D03*
D11*
X83947000Y-61468000D03*
X83947000Y-64008000D03*
X83947000Y-66548000D03*
%TD*%
D18*
%TO.C,D6*%
X136652000Y-54610000D03*
D19*
X136652000Y-52070000D03*
%TD*%
D12*
%TO.C,OUT1*%
X112522000Y-118110000D03*
D13*
X117602000Y-118110000D03*
X122682000Y-118110000D03*
%TD*%
D12*
%TO.C,M_Driver3*%
X147447000Y-69342000D03*
D13*
X147447000Y-64262000D03*
X147447000Y-59182000D03*
%TD*%
D20*
%TO.C,ENCODER3*%
X68326000Y-106172000D03*
D21*
X68326000Y-103632000D03*
X68326000Y-101092000D03*
X68326000Y-98552000D03*
X68326000Y-96012000D03*
X68326000Y-93472000D03*
%TD*%
D14*
%TO.C,D3*%
X139827000Y-68834000D03*
D15*
X139827000Y-58674000D03*
%TD*%
D20*
%TO.C,ENCODER1*%
X68326000Y-70612000D03*
D21*
X68326000Y-68072000D03*
X68326000Y-65532000D03*
X68326000Y-62992000D03*
X68326000Y-60452000D03*
X68326000Y-57912000D03*
%TD*%
D18*
%TO.C,D5*%
X137033000Y-75565000D03*
D19*
X137033000Y-73025000D03*
%TD*%
D22*
%TO.C,U3*%
X95504000Y-94234000D03*
D23*
X98044000Y-94234000D03*
X100584000Y-94234000D03*
%TD*%
D12*
%TO.C,M3*%
X55753000Y-97663000D03*
D13*
X55753000Y-102743000D03*
%TD*%
D10*
%TO.C,Ardu_M2*%
X84099000Y-78115000D03*
D11*
X84099000Y-80655000D03*
X84099000Y-83195000D03*
X84099000Y-85735000D03*
%TD*%
D20*
%TO.C,ENCODER2*%
X68351000Y-88275000D03*
D21*
X68351000Y-85735000D03*
X68351000Y-83195000D03*
X68351000Y-80655000D03*
X68351000Y-78115000D03*
X68351000Y-75575000D03*
%TD*%
D14*
%TO.C,D9*%
X109474000Y-90551000D03*
D15*
X109474000Y-100711000D03*
%TD*%
D12*
%TO.C,IN_POWER*%
X147574000Y-114300000D03*
D13*
X147574000Y-109220000D03*
%TD*%
D16*
%TO.C,R2*%
X130810000Y-85852000D03*
D17*
X130810000Y-75692000D03*
%TD*%
D12*
%TO.C,M1*%
X55880000Y-61468000D03*
D13*
X55880000Y-66548000D03*
%TD*%
D10*
%TO.C,IN_M3*%
X77089000Y-105664000D03*
D11*
X77089000Y-103124000D03*
%TD*%
D16*
%TO.C,R3*%
X130175000Y-64516000D03*
D17*
X130175000Y-54356000D03*
%TD*%
D22*
%TO.C,U2*%
X95377000Y-83058000D03*
D23*
X97917000Y-83058000D03*
X100457000Y-83058000D03*
%TD*%
D12*
%TO.C,ON/OFF*%
X131318000Y-118618000D03*
D13*
X136398000Y-118618000D03*
%TD*%
D10*
%TO.C,Ardu_alim*%
X98806000Y-59817000D03*
D11*
X101346000Y-59817000D03*
%TD*%
D14*
%TO.C,D2*%
X139573000Y-89789000D03*
D15*
X139573000Y-79629000D03*
%TD*%
D22*
%TO.C,U1*%
X95377000Y-71628000D03*
D23*
X97917000Y-71628000D03*
X100457000Y-71628000D03*
%TD*%
D10*
%TO.C,IN_M1*%
X76835000Y-71247000D03*
D11*
X76835000Y-68707000D03*
%TD*%
D18*
%TO.C,D4*%
X135509000Y-97155000D03*
D19*
X135509000Y-94615000D03*
%TD*%
D10*
%TO.C,Ardu_M3*%
X83820000Y-96901000D03*
D11*
X83820000Y-99441000D03*
X83820000Y-101981000D03*
X83820000Y-104521000D03*
%TD*%
D14*
%TO.C,D7*%
X109093000Y-62103000D03*
D15*
X109093000Y-72263000D03*
%TD*%
D14*
%TO.C,D8*%
X109347000Y-76581000D03*
D15*
X109347000Y-86741000D03*
%TD*%
D13*
%TO.C,M_Driver1*%
X147701000Y-91948000D03*
X147701000Y-97028000D03*
D12*
X147701000Y-102108000D03*
%TD*%
M02*
