%TF.GenerationSoftware,KiCad,Pcbnew,8.0.7*%
%TF.CreationDate,2024-12-09T23:50:58+01:00*%
%TF.ProjectId,main_board_proto,6d61696e-5f62-46f6-9172-645f70726f74,rev?*%
%TF.SameCoordinates,Original*%
%TF.FileFunction,Copper,L1,Top*%
%TF.FilePolarity,Positive*%
%FSLAX46Y46*%
G04 Gerber Fmt 4.6, Leading zero omitted, Abs format (unit mm)*
G04 Created by KiCad (PCBNEW 8.0.7) date 2024-12-09 23:50:58*
%MOMM*%
%LPD*%
G01*
G04 APERTURE LIST*
G04 Aperture macros list*
%AMRoundRect*
0 Rectangle with rounded corners*
0 $1 Rounding radius*
0 $2 $3 $4 $5 $6 $7 $8 $9 X,Y pos of 4 corners*
0 Add a 4 corners polygon primitive as box body*
4,1,4,$2,$3,$4,$5,$6,$7,$8,$9,$2,$3,0*
0 Add four circle primitives for the rounded corners*
1,1,$1+$1,$2,$3*
1,1,$1+$1,$4,$5*
1,1,$1+$1,$6,$7*
1,1,$1+$1,$8,$9*
0 Add four rect primitives between the rounded corners*
20,1,$1+$1,$2,$3,$4,$5,0*
20,1,$1+$1,$4,$5,$6,$7,0*
20,1,$1+$1,$6,$7,$8,$9,0*
20,1,$1+$1,$8,$9,$2,$3,0*%
G04 Aperture macros list end*
%TA.AperFunction,ComponentPad*%
%ADD10R,1.700000X1.700000*%
%TD*%
%TA.AperFunction,ComponentPad*%
%ADD11O,1.700000X1.700000*%
%TD*%
%TA.AperFunction,ComponentPad*%
%ADD12R,3.000000X3.000000*%
%TD*%
%TA.AperFunction,ComponentPad*%
%ADD13C,3.000000*%
%TD*%
%TA.AperFunction,ComponentPad*%
%ADD14R,2.200000X2.200000*%
%TD*%
%TA.AperFunction,ComponentPad*%
%ADD15O,2.200000X2.200000*%
%TD*%
%TA.AperFunction,ComponentPad*%
%ADD16C,1.600000*%
%TD*%
%TA.AperFunction,ComponentPad*%
%ADD17O,1.600000X1.600000*%
%TD*%
%TA.AperFunction,ComponentPad*%
%ADD18R,1.800000X1.800000*%
%TD*%
%TA.AperFunction,ComponentPad*%
%ADD19C,1.800000*%
%TD*%
%TA.AperFunction,ComponentPad*%
%ADD20RoundRect,0.250000X0.845000X-0.620000X0.845000X0.620000X-0.845000X0.620000X-0.845000X-0.620000X0*%
%TD*%
%TA.AperFunction,ComponentPad*%
%ADD21O,2.190000X1.740000*%
%TD*%
%TA.AperFunction,ComponentPad*%
%ADD22R,1.500000X1.500000*%
%TD*%
%TA.AperFunction,ComponentPad*%
%ADD23C,1.500000*%
%TD*%
%TA.AperFunction,ViaPad*%
%ADD24C,0.800000*%
%TD*%
%TA.AperFunction,Conductor*%
%ADD25C,1.000000*%
%TD*%
G04 APERTURE END LIST*
D10*
%TO.P,IN_M2,1,Pin_1*%
%TO.N,Net-(J12-Pin_1)*%
X77241000Y-87894000D03*
D11*
%TO.P,IN_M2,2,Pin_2*%
%TO.N,Net-(J12-Pin_2)*%
X77241000Y-85354000D03*
%TD*%
D12*
%TO.P,M_Driver2,1,Pin_1*%
%TO.N,+12V*%
X147574000Y-85598000D03*
D13*
%TO.P,M_Driver2,2,Pin_2*%
%TO.N,GND*%
X147574000Y-80518000D03*
%TO.P,M_Driver2,3,Pin_3*%
%TO.N,Net-(D2-A)*%
X147574000Y-75438000D03*
%TD*%
D12*
%TO.P,M2,1,Pin_1*%
%TO.N,Net-(J14-Pin_6)*%
X55880000Y-79883000D03*
D13*
%TO.P,M2,2,Pin_2*%
%TO.N,Net-(J14-Pin_1)*%
X55880000Y-84963000D03*
%TD*%
D14*
%TO.P,D1,1,K*%
%TO.N,+5V*%
X139065000Y-111760000D03*
D15*
%TO.P,D1,2,A*%
%TO.N,Net-(D1-A)*%
X139065000Y-101600000D03*
%TD*%
D13*
%TO.P,OUT2,3,Pin_3*%
%TO.N,+5V*%
X108712000Y-51054000D03*
%TO.P,OUT2,2,Pin_2*%
%TO.N,GND*%
X113792000Y-51054000D03*
D12*
%TO.P,OUT2,1,Pin_1*%
%TO.N,+12V*%
X118872000Y-51054000D03*
%TD*%
D16*
%TO.P,R1,1*%
%TO.N,GND*%
X128905000Y-104648000D03*
D17*
%TO.P,R1,2*%
%TO.N,Net-(D4-K)*%
X128905000Y-94488000D03*
%TD*%
D10*
%TO.P,Ardu_M1,1,Pin_1*%
%TO.N,Net-(J3-Pin_4)*%
X83947000Y-58928000D03*
D11*
%TO.P,Ardu_M1,2,Pin_2*%
%TO.N,Net-(J3-Pin_3)*%
X83947000Y-61468000D03*
%TO.P,Ardu_M1,3,Pin_3*%
%TO.N,Net-(J6-Pin_3)*%
X83947000Y-64008000D03*
%TO.P,Ardu_M1,4,Pin_4*%
%TO.N,Net-(J6-Pin_4)*%
X83947000Y-66548000D03*
%TD*%
D18*
%TO.P,D6,1,K*%
%TO.N,Net-(D6-K)*%
X136652000Y-54610000D03*
D19*
%TO.P,D6,2,A*%
%TO.N,Net-(D3-A)*%
X136652000Y-52070000D03*
%TD*%
D12*
%TO.P,OUT1,1,Pin_1*%
%TO.N,+12V*%
X112522000Y-118110000D03*
D13*
%TO.P,OUT1,2,Pin_2*%
%TO.N,GND*%
X117602000Y-118110000D03*
%TO.P,OUT1,3,Pin_3*%
%TO.N,+5V*%
X122682000Y-118110000D03*
%TD*%
D12*
%TO.P,M_Driver3,1,Pin_1*%
%TO.N,+12V*%
X147447000Y-69342000D03*
D13*
%TO.P,M_Driver3,2,Pin_2*%
%TO.N,GND*%
X147447000Y-64262000D03*
%TO.P,M_Driver3,3,Pin_3*%
%TO.N,Net-(D3-A)*%
X147447000Y-59182000D03*
%TD*%
D20*
%TO.P,ENCODER3,1,Pin_1*%
%TO.N,Net-(J15-Pin_1)*%
X68326000Y-106172000D03*
D21*
%TO.P,ENCODER3,2,Pin_2*%
%TO.N,+5VA*%
X68326000Y-103632000D03*
%TO.P,ENCODER3,3,Pin_3*%
%TO.N,Net-(J15-Pin_3)*%
X68326000Y-101092000D03*
%TO.P,ENCODER3,4,Pin_4*%
%TO.N,Net-(J15-Pin_4)*%
X68326000Y-98552000D03*
%TO.P,ENCODER3,5,Pin_5*%
%TO.N,GND*%
X68326000Y-96012000D03*
%TO.P,ENCODER3,6,Pin_6*%
%TO.N,Net-(J15-Pin_6)*%
X68326000Y-93472000D03*
%TD*%
D14*
%TO.P,D3,1,K*%
%TO.N,+5V*%
X139827000Y-68834000D03*
D15*
%TO.P,D3,2,A*%
%TO.N,Net-(D3-A)*%
X139827000Y-58674000D03*
%TD*%
D20*
%TO.P,ENCODER1,1,Pin_1*%
%TO.N,Net-(J1-Pin_2)*%
X68326000Y-70612000D03*
D21*
%TO.P,ENCODER1,2,Pin_2*%
%TO.N,+5VA*%
X68326000Y-68072000D03*
%TO.P,ENCODER1,3,Pin_3*%
%TO.N,Net-(J3-Pin_3)*%
X68326000Y-65532000D03*
%TO.P,ENCODER1,4,Pin_4*%
%TO.N,Net-(J3-Pin_4)*%
X68326000Y-62992000D03*
%TO.P,ENCODER1,5,Pin_5*%
%TO.N,GND*%
X68326000Y-60452000D03*
%TO.P,ENCODER1,6,Pin_6*%
%TO.N,Net-(J1-Pin_1)*%
X68326000Y-57912000D03*
%TD*%
D18*
%TO.P,D5,1,K*%
%TO.N,Net-(D5-K)*%
X137033000Y-75565000D03*
D19*
%TO.P,D5,2,A*%
%TO.N,Net-(D2-A)*%
X137033000Y-73025000D03*
%TD*%
D22*
%TO.P,U3,1,Vin*%
%TO.N,+12V*%
X95504000Y-94234000D03*
D23*
%TO.P,U3,2,GND*%
%TO.N,GND*%
X98044000Y-94234000D03*
%TO.P,U3,3,Vout*%
%TO.N,Net-(D9-A)*%
X100584000Y-94234000D03*
%TD*%
D12*
%TO.P,M3,1,Pin_1*%
%TO.N,Net-(J15-Pin_6)*%
X55753000Y-97663000D03*
D13*
%TO.P,M3,2,Pin_2*%
%TO.N,Net-(J15-Pin_1)*%
X55753000Y-102743000D03*
%TD*%
D10*
%TO.P,Ardu_M2,1,Pin_1*%
%TO.N,Net-(J14-Pin_4)*%
X84099000Y-78115000D03*
D11*
%TO.P,Ardu_M2,2,Pin_2*%
%TO.N,Net-(J14-Pin_3)*%
X84099000Y-80655000D03*
%TO.P,Ardu_M2,3,Pin_3*%
%TO.N,Net-(J12-Pin_2)*%
X84099000Y-83195000D03*
%TO.P,Ardu_M2,4,Pin_4*%
%TO.N,Net-(J12-Pin_1)*%
X84099000Y-85735000D03*
%TD*%
D20*
%TO.P,ENCODER2,1,Pin_1*%
%TO.N,Net-(J14-Pin_1)*%
X68351000Y-88275000D03*
D21*
%TO.P,ENCODER2,2,Pin_2*%
%TO.N,+5VA*%
X68351000Y-85735000D03*
%TO.P,ENCODER2,3,Pin_3*%
%TO.N,Net-(J14-Pin_3)*%
X68351000Y-83195000D03*
%TO.P,ENCODER2,4,Pin_4*%
%TO.N,Net-(J14-Pin_4)*%
X68351000Y-80655000D03*
%TO.P,ENCODER2,5,Pin_5*%
%TO.N,GND*%
X68351000Y-78115000D03*
%TO.P,ENCODER2,6,Pin_6*%
%TO.N,Net-(J14-Pin_6)*%
X68351000Y-75575000D03*
%TD*%
D14*
%TO.P,D9,1,K*%
%TO.N,+5VA*%
X109474000Y-90551000D03*
D15*
%TO.P,D9,2,A*%
%TO.N,Net-(D9-A)*%
X109474000Y-100711000D03*
%TD*%
D12*
%TO.P,IN_POWER,1,Pin_1*%
%TO.N,Net-(J18-Pin_1)*%
X147574000Y-114300000D03*
D13*
%TO.P,IN_POWER,2,Pin_2*%
%TO.N,+12V*%
X147574000Y-109220000D03*
%TD*%
D16*
%TO.P,R2,1*%
%TO.N,GND*%
X130810000Y-85852000D03*
D17*
%TO.P,R2,2*%
%TO.N,Net-(D5-K)*%
X130810000Y-75692000D03*
%TD*%
D12*
%TO.P,M1,1,Pin_1*%
%TO.N,Net-(J1-Pin_1)*%
X55880000Y-61468000D03*
D13*
%TO.P,M1,2,Pin_2*%
%TO.N,Net-(J1-Pin_2)*%
X55880000Y-66548000D03*
%TD*%
D10*
%TO.P,IN_M3,1,Pin_1*%
%TO.N,Net-(J13-Pin_1)*%
X77089000Y-105664000D03*
D11*
%TO.P,IN_M3,2,Pin_2*%
%TO.N,Net-(J13-Pin_2)*%
X77089000Y-103124000D03*
%TD*%
D16*
%TO.P,R3,1*%
%TO.N,GND*%
X130175000Y-64516000D03*
D17*
%TO.P,R3,2*%
%TO.N,Net-(D6-K)*%
X130175000Y-54356000D03*
%TD*%
D22*
%TO.P,U2,1,Vin*%
%TO.N,+12V*%
X95377000Y-83058000D03*
D23*
%TO.P,U2,2,GND*%
%TO.N,GND*%
X97917000Y-83058000D03*
%TO.P,U2,3,Vout*%
%TO.N,Net-(D8-A)*%
X100457000Y-83058000D03*
%TD*%
D12*
%TO.P,ON/OFF,1,Pin_1*%
%TO.N,GND*%
X131318000Y-118618000D03*
D13*
%TO.P,ON/OFF,2,Pin_2*%
%TO.N,Net-(J18-Pin_1)*%
X136398000Y-118618000D03*
%TD*%
D10*
%TO.P,Ardu_alim,1,Pin_1*%
%TO.N,GND*%
X98806000Y-59817000D03*
D11*
%TO.P,Ardu_alim,2,Pin_2*%
%TO.N,+5VA*%
X101346000Y-59817000D03*
%TD*%
D14*
%TO.P,D2,1,K*%
%TO.N,+5V*%
X139573000Y-89789000D03*
D15*
%TO.P,D2,2,A*%
%TO.N,Net-(D2-A)*%
X139573000Y-79629000D03*
%TD*%
D22*
%TO.P,U1,1,Vin*%
%TO.N,+12V*%
X95377000Y-71628000D03*
D23*
%TO.P,U1,2,GND*%
%TO.N,GND*%
X97917000Y-71628000D03*
%TO.P,U1,3,Vout*%
%TO.N,Net-(D7-A)*%
X100457000Y-71628000D03*
%TD*%
D10*
%TO.P,IN_M1,1,Pin_1*%
%TO.N,Net-(J6-Pin_4)*%
X76835000Y-71247000D03*
D11*
%TO.P,IN_M1,2,Pin_2*%
%TO.N,Net-(J6-Pin_3)*%
X76835000Y-68707000D03*
%TD*%
D18*
%TO.P,D4,1,K*%
%TO.N,Net-(D4-K)*%
X135509000Y-97155000D03*
D19*
%TO.P,D4,2,A*%
%TO.N,Net-(D1-A)*%
X135509000Y-94615000D03*
%TD*%
D10*
%TO.P,Ardu_M3,1,Pin_1*%
%TO.N,Net-(J15-Pin_4)*%
X83820000Y-96901000D03*
D11*
%TO.P,Ardu_M3,2,Pin_2*%
%TO.N,Net-(J15-Pin_3)*%
X83820000Y-99441000D03*
%TO.P,Ardu_M3,3,Pin_3*%
%TO.N,Net-(J13-Pin_2)*%
X83820000Y-101981000D03*
%TO.P,Ardu_M3,4,Pin_4*%
%TO.N,Net-(J13-Pin_1)*%
X83820000Y-104521000D03*
%TD*%
D14*
%TO.P,D7,1,K*%
%TO.N,+5VA*%
X109093000Y-62103000D03*
D15*
%TO.P,D7,2,A*%
%TO.N,Net-(D7-A)*%
X109093000Y-72263000D03*
%TD*%
D14*
%TO.P,D8,1,K*%
%TO.N,+5VA*%
X109347000Y-76581000D03*
D15*
%TO.P,D8,2,A*%
%TO.N,Net-(D8-A)*%
X109347000Y-86741000D03*
%TD*%
D13*
%TO.P,M_Driver1,3,Pin_3*%
%TO.N,Net-(D1-A)*%
X147701000Y-91948000D03*
%TO.P,M_Driver1,2,Pin_2*%
%TO.N,GND*%
X147701000Y-97028000D03*
D12*
%TO.P,M_Driver1,1,Pin_1*%
%TO.N,+12V*%
X147701000Y-102108000D03*
%TD*%
D24*
%TO.N,+5V*%
X122174000Y-89789000D03*
X122174000Y-68961000D03*
X108712000Y-55626000D03*
X122174000Y-111760000D03*
X128778000Y-89789000D03*
X128397000Y-68834000D03*
X131191000Y-111760000D03*
%TO.N,+12V*%
X95504000Y-107950000D03*
X95504000Y-116332000D03*
%TD*%
D25*
%TO.N,+5V*%
X108712000Y-55626000D02*
X121920000Y-68834000D01*
X131191000Y-111760000D02*
X122174000Y-111760000D01*
X121920000Y-68834000D02*
X128397000Y-68834000D01*
X128778000Y-89789000D02*
X122174000Y-89789000D01*
%TO.N,+12V*%
X95504000Y-116332000D02*
X95504000Y-107950000D01*
%TD*%
M02*
