%TF.GenerationSoftware,KiCad,Pcbnew,8.0.7*%
%TF.CreationDate,2025-02-15T00:34:58+01:00*%
%TF.ProjectId,main_board_proto,6d61696e-5f62-46f6-9172-645f70726f74,rev?*%
%TF.SameCoordinates,Original*%
%TF.FileFunction,Copper,L1,Top*%
%TF.FilePolarity,Positive*%
%FSLAX46Y46*%
G04 Gerber Fmt 4.6, Leading zero omitted, Abs format (unit mm)*
G04 Created by KiCad (PCBNEW 8.0.7) date 2025-02-15 00:34:58*
%MOMM*%
%LPD*%
G01*
G04 APERTURE LIST*
G04 Aperture macros list*
%AMRoundRect*
0 Rectangle with rounded corners*
0 $1 Rounding radius*
0 $2 $3 $4 $5 $6 $7 $8 $9 X,Y pos of 4 corners*
0 Add a 4 corners polygon primitive as box body*
4,1,4,$2,$3,$4,$5,$6,$7,$8,$9,$2,$3,0*
0 Add four circle primitives for the rounded corners*
1,1,$1+$1,$2,$3*
1,1,$1+$1,$4,$5*
1,1,$1+$1,$6,$7*
1,1,$1+$1,$8,$9*
0 Add four rect primitives between the rounded corners*
20,1,$1+$1,$2,$3,$4,$5,0*
20,1,$1+$1,$4,$5,$6,$7,0*
20,1,$1+$1,$6,$7,$8,$9,0*
20,1,$1+$1,$8,$9,$2,$3,0*%
G04 Aperture macros list end*
%TA.AperFunction,ComponentPad*%
%ADD10C,1.600000*%
%TD*%
%TA.AperFunction,ComponentPad*%
%ADD11O,1.600000X1.600000*%
%TD*%
%TA.AperFunction,ComponentPad*%
%ADD12R,1.700000X1.700000*%
%TD*%
%TA.AperFunction,ComponentPad*%
%ADD13O,1.700000X1.700000*%
%TD*%
%TA.AperFunction,ComponentPad*%
%ADD14R,3.000000X3.000000*%
%TD*%
%TA.AperFunction,ComponentPad*%
%ADD15C,3.000000*%
%TD*%
%TA.AperFunction,ComponentPad*%
%ADD16R,2.200000X2.200000*%
%TD*%
%TA.AperFunction,ComponentPad*%
%ADD17O,2.200000X2.200000*%
%TD*%
%TA.AperFunction,ComponentPad*%
%ADD18R,1.800000X1.800000*%
%TD*%
%TA.AperFunction,ComponentPad*%
%ADD19C,1.800000*%
%TD*%
%TA.AperFunction,ComponentPad*%
%ADD20R,2.000000X1.905000*%
%TD*%
%TA.AperFunction,ComponentPad*%
%ADD21O,2.000000X1.905000*%
%TD*%
%TA.AperFunction,ComponentPad*%
%ADD22RoundRect,0.250000X0.845000X-0.620000X0.845000X0.620000X-0.845000X0.620000X-0.845000X-0.620000X0*%
%TD*%
%TA.AperFunction,ComponentPad*%
%ADD23O,2.190000X1.740000*%
%TD*%
%TA.AperFunction,ComponentPad*%
%ADD24R,1.500000X1.500000*%
%TD*%
%TA.AperFunction,ComponentPad*%
%ADD25C,1.500000*%
%TD*%
G04 APERTURE END LIST*
D10*
%TO.P,R107,1*%
%TO.N,Net-(J121-Pin_2)*%
X72500000Y-124500000D03*
D11*
%TO.P,R107,2*%
%TO.N,GND*%
X72500000Y-114340000D03*
%TD*%
D12*
%TO.P,J110,1,Pin_1*%
%TO.N,Net-(J110-Pin_1)*%
X77241000Y-87894000D03*
D13*
%TO.P,J110,2,Pin_2*%
%TO.N,Net-(J110-Pin_2)*%
X77241000Y-85354000D03*
%TD*%
D14*
%TO.P,J111,1,Pin_1*%
%TO.N,+12V*%
X137500000Y-88298000D03*
D15*
%TO.P,J111,2,Pin_2*%
%TO.N,GND*%
X137500000Y-83218000D03*
%TO.P,J111,3,Pin_3*%
%TO.N,Net-(D103-A)*%
X137500000Y-78138000D03*
%TD*%
D14*
%TO.P,J102,1,Pin_1*%
%TO.N,Net-(J102-Pin_1)*%
X51000000Y-66920000D03*
D15*
%TO.P,J102,2,Pin_2*%
%TO.N,Net-(J102-Pin_2)*%
X51000000Y-72000000D03*
%TD*%
D16*
%TO.P,D101,1,K*%
%TO.N,+5V*%
X128991000Y-114460000D03*
D17*
%TO.P,D101,2,A*%
%TO.N,Net-(D101-A)*%
X128991000Y-104300000D03*
%TD*%
D14*
%TO.P,J120,1,Pin_1*%
%TO.N,+12V*%
X104160000Y-50000000D03*
D15*
%TO.P,J120,2,Pin_2*%
%TO.N,GND*%
X99080000Y-50000000D03*
%TO.P,J120,3,Pin_3*%
%TO.N,+5V*%
X94000000Y-50000000D03*
%TD*%
D10*
%TO.P,R101,1*%
%TO.N,GND*%
X118831000Y-107348000D03*
D11*
%TO.P,R101,2*%
%TO.N,Net-(D102-K)*%
X118831000Y-97188000D03*
%TD*%
D12*
%TO.P,J109,1,Pin_1*%
%TO.N,Net-(J107-Pin_4)*%
X83947000Y-58928000D03*
D13*
%TO.P,J109,2,Pin_2*%
%TO.N,Net-(J107-Pin_3)*%
X83947000Y-61468000D03*
%TO.P,J109,3,Pin_3*%
%TO.N,Net-(J106-Pin_2)*%
X83947000Y-64008000D03*
%TO.P,J109,4,Pin_4*%
%TO.N,Net-(J106-Pin_1)*%
X83947000Y-66548000D03*
%TD*%
D18*
%TO.P,D106,1,K*%
%TO.N,Net-(D106-K)*%
X126578000Y-57310000D03*
D19*
%TO.P,D106,2,A*%
%TO.N,Net-(D105-A)*%
X126578000Y-54770000D03*
%TD*%
D20*
%TO.P,Q102,1,G*%
%TO.N,Net-(J121-Pin_3)*%
X58500000Y-105000000D03*
D21*
%TO.P,Q102,2,D*%
%TO.N,Net-(J123-Pin_1)*%
X58500000Y-107540000D03*
%TO.P,Q102,3,S*%
%TO.N,GND*%
X58500000Y-110080000D03*
%TD*%
D10*
%TO.P,R104,1*%
%TO.N,Net-(J121-Pin_4)*%
X84000000Y-124580000D03*
D11*
%TO.P,R104,2*%
%TO.N,GND*%
X84000000Y-114420000D03*
%TD*%
D14*
%TO.P,J119,1,Pin_1*%
%TO.N,+12V*%
X97340000Y-130500000D03*
D15*
%TO.P,J119,2,Pin_2*%
%TO.N,GND*%
X102420000Y-130500000D03*
%TO.P,J119,3,Pin_3*%
%TO.N,+5V*%
X107500000Y-130500000D03*
%TD*%
D14*
%TO.P,J114,1,Pin_1*%
%TO.N,+12V*%
X137373000Y-72042000D03*
D15*
%TO.P,J114,2,Pin_2*%
%TO.N,GND*%
X137373000Y-66962000D03*
%TO.P,J114,3,Pin_3*%
%TO.N,Net-(D105-A)*%
X137373000Y-61882000D03*
%TD*%
D22*
%TO.P,J115,1,Pin_1*%
%TO.N,Net-(J103-Pin_2)*%
X68326000Y-106172000D03*
D23*
%TO.P,J115,2,Pin_2*%
%TO.N,+5VA*%
X68326000Y-103632000D03*
%TO.P,J115,3,Pin_3*%
%TO.N,Net-(J115-Pin_3)*%
X68326000Y-101092000D03*
%TO.P,J115,4,Pin_4*%
%TO.N,Net-(J115-Pin_4)*%
X68326000Y-98552000D03*
%TO.P,J115,5,Pin_5*%
%TO.N,GND*%
X68326000Y-96012000D03*
%TO.P,J115,6,Pin_6*%
%TO.N,Net-(J103-Pin_1)*%
X68326000Y-93472000D03*
%TD*%
D16*
%TO.P,D105,1,K*%
%TO.N,+5V*%
X129753000Y-71534000D03*
D17*
%TO.P,D105,2,A*%
%TO.N,Net-(D105-A)*%
X129753000Y-61374000D03*
%TD*%
D22*
%TO.P,J107,1,Pin_1*%
%TO.N,Net-(J101-Pin_2)*%
X68326000Y-70612000D03*
D23*
%TO.P,J107,2,Pin_2*%
%TO.N,+5VA*%
X68326000Y-68072000D03*
%TO.P,J107,3,Pin_3*%
%TO.N,Net-(J107-Pin_3)*%
X68326000Y-65532000D03*
%TO.P,J107,4,Pin_4*%
%TO.N,Net-(J107-Pin_4)*%
X68326000Y-62992000D03*
%TO.P,J107,5,Pin_5*%
%TO.N,GND*%
X68326000Y-60452000D03*
%TO.P,J107,6,Pin_6*%
%TO.N,Net-(J101-Pin_1)*%
X68326000Y-57912000D03*
%TD*%
D20*
%TO.P,Q103,1,G*%
%TO.N,Net-(J121-Pin_2)*%
X58500000Y-117000000D03*
D21*
%TO.P,Q103,2,D*%
%TO.N,Net-(J124-Pin_1)*%
X58500000Y-119540000D03*
%TO.P,Q103,3,S*%
%TO.N,GND*%
X58500000Y-122080000D03*
%TD*%
D18*
%TO.P,D104,1,K*%
%TO.N,Net-(D104-K)*%
X126959000Y-78265000D03*
D19*
%TO.P,D104,2,A*%
%TO.N,Net-(D103-A)*%
X126959000Y-75725000D03*
%TD*%
D20*
%TO.P,Q101,1,G*%
%TO.N,Net-(J121-Pin_4)*%
X58500000Y-93000000D03*
D21*
%TO.P,Q101,2,D*%
%TO.N,Net-(J122-Pin_1)*%
X58500000Y-95540000D03*
%TO.P,Q101,3,S*%
%TO.N,GND*%
X58500000Y-98080000D03*
%TD*%
D24*
%TO.P,U103,1,Vin*%
%TO.N,+12V*%
X93420000Y-94234000D03*
D25*
%TO.P,U103,2,GND*%
%TO.N,GND*%
X95960000Y-94234000D03*
%TO.P,U103,3,Vout*%
%TO.N,Net-(D110-A)*%
X98500000Y-94234000D03*
%TD*%
D14*
%TO.P,J103,1,Pin_1*%
%TO.N,Net-(J103-Pin_1)*%
X51000000Y-78920000D03*
D15*
%TO.P,J103,2,Pin_2*%
%TO.N,Net-(J103-Pin_2)*%
X51000000Y-84000000D03*
%TD*%
D12*
%TO.P,J113,1,Pin_1*%
%TO.N,Net-(J112-Pin_4)*%
X84099000Y-78115000D03*
D13*
%TO.P,J113,2,Pin_2*%
%TO.N,Net-(J112-Pin_3)*%
X84099000Y-80655000D03*
%TO.P,J113,3,Pin_3*%
%TO.N,Net-(J110-Pin_2)*%
X84099000Y-83195000D03*
%TO.P,J113,4,Pin_4*%
%TO.N,Net-(J110-Pin_1)*%
X84099000Y-85735000D03*
%TD*%
D22*
%TO.P,J112,1,Pin_1*%
%TO.N,Net-(J102-Pin_2)*%
X68351000Y-88275000D03*
D23*
%TO.P,J112,2,Pin_2*%
%TO.N,+5VA*%
X68351000Y-85735000D03*
%TO.P,J112,3,Pin_3*%
%TO.N,Net-(J112-Pin_3)*%
X68351000Y-83195000D03*
%TO.P,J112,4,Pin_4*%
%TO.N,Net-(J112-Pin_4)*%
X68351000Y-80655000D03*
%TO.P,J112,5,Pin_5*%
%TO.N,GND*%
X68351000Y-78115000D03*
%TO.P,J112,6,Pin_6*%
%TO.N,Net-(J102-Pin_1)*%
X68351000Y-75575000D03*
%TD*%
D16*
%TO.P,D109,1,K*%
%TO.N,+5VA*%
X105000000Y-76581000D03*
D17*
%TO.P,D109,2,A*%
%TO.N,Net-(D109-A)*%
X105000000Y-86741000D03*
%TD*%
D16*
%TO.P,D110,1,K*%
%TO.N,+5VA*%
X105000000Y-90420000D03*
D17*
%TO.P,D110,2,A*%
%TO.N,Net-(D110-A)*%
X105000000Y-100580000D03*
%TD*%
D14*
%TO.P,J104,1,Pin_1*%
%TO.N,Net-(J104-Pin_1)*%
X137500000Y-117000000D03*
D15*
%TO.P,J104,2,Pin_2*%
%TO.N,+12V*%
X137500000Y-111920000D03*
%TD*%
D14*
%TO.P,J108,1,Pin_1*%
%TO.N,+12V*%
X137627000Y-104808000D03*
D15*
%TO.P,J108,2,Pin_2*%
%TO.N,GND*%
X137627000Y-99728000D03*
%TO.P,J108,3,Pin_3*%
%TO.N,Net-(D101-A)*%
X137627000Y-94648000D03*
%TD*%
D12*
%TO.P,J121,1,Pin_1*%
%TO.N,Net-(J121-Pin_1)*%
X75460000Y-130500000D03*
D13*
%TO.P,J121,2,Pin_2*%
%TO.N,Net-(J121-Pin_2)*%
X78000000Y-130500000D03*
%TO.P,J121,3,Pin_3*%
%TO.N,Net-(J121-Pin_3)*%
X80540000Y-130500000D03*
%TO.P,J121,4,Pin_4*%
%TO.N,Net-(J121-Pin_4)*%
X83080000Y-130500000D03*
%TD*%
D10*
%TO.P,R102,1*%
%TO.N,GND*%
X120736000Y-88552000D03*
D11*
%TO.P,R102,2*%
%TO.N,Net-(D104-K)*%
X120736000Y-78392000D03*
%TD*%
D14*
%TO.P,J101,1,Pin_1*%
%TO.N,Net-(J101-Pin_1)*%
X51000000Y-54840000D03*
D15*
%TO.P,J101,2,Pin_2*%
%TO.N,Net-(J101-Pin_2)*%
X51000000Y-59920000D03*
%TD*%
D12*
%TO.P,J117,1,Pin_1*%
%TO.N,Net-(J116-Pin_4)*%
X77089000Y-105664000D03*
D13*
%TO.P,J117,2,Pin_2*%
%TO.N,Net-(J116-Pin_3)*%
X77089000Y-103124000D03*
%TD*%
D14*
%TO.P,J123,1,Pin_1*%
%TO.N,Net-(J123-Pin_1)*%
X51000000Y-104920000D03*
D15*
%TO.P,J123,2,Pin_2*%
%TO.N,+12V*%
X51000000Y-110000000D03*
%TD*%
D10*
%TO.P,R103,1*%
%TO.N,GND*%
X120101000Y-67216000D03*
D11*
%TO.P,R103,2*%
%TO.N,Net-(D106-K)*%
X120101000Y-57056000D03*
%TD*%
D24*
%TO.P,U102,1,Vin*%
%TO.N,+12V*%
X93293000Y-83058000D03*
D25*
%TO.P,U102,2,GND*%
%TO.N,GND*%
X95833000Y-83058000D03*
%TO.P,U102,3,Vout*%
%TO.N,Net-(D109-A)*%
X98373000Y-83058000D03*
%TD*%
D14*
%TO.P,J105,1,Pin_1*%
%TO.N,GND*%
X116960000Y-131000000D03*
D15*
%TO.P,J105,2,Pin_2*%
%TO.N,Net-(J104-Pin_1)*%
X122040000Y-131000000D03*
%TD*%
D12*
%TO.P,J118,1,Pin_1*%
%TO.N,GND*%
X92460000Y-59817000D03*
D13*
%TO.P,J118,2,Pin_2*%
%TO.N,+5VA*%
X95000000Y-59817000D03*
%TD*%
D14*
%TO.P,J124,1,Pin_1*%
%TO.N,Net-(J124-Pin_1)*%
X51000000Y-116920000D03*
D15*
%TO.P,J124,2,Pin_2*%
%TO.N,+12V*%
X51000000Y-122000000D03*
%TD*%
D10*
%TO.P,R106,1*%
%TO.N,Net-(J121-Pin_3)*%
X78500000Y-124500000D03*
D11*
%TO.P,R106,2*%
%TO.N,GND*%
X78500000Y-114340000D03*
%TD*%
D18*
%TO.P,D107,1,K*%
%TO.N,GND*%
X53040000Y-129000000D03*
D19*
%TO.P,D107,2,A*%
%TO.N,Net-(D107-A)*%
X50500000Y-129000000D03*
%TD*%
D16*
%TO.P,D103,1,K*%
%TO.N,+5V*%
X129499000Y-92489000D03*
D17*
%TO.P,D103,2,A*%
%TO.N,Net-(D103-A)*%
X129499000Y-82329000D03*
%TD*%
D24*
%TO.P,U101,1,Vin*%
%TO.N,+12V*%
X93293000Y-71628000D03*
D25*
%TO.P,U101,2,GND*%
%TO.N,GND*%
X95833000Y-71628000D03*
%TO.P,U101,3,Vout*%
%TO.N,Net-(D108-A)*%
X98373000Y-71628000D03*
%TD*%
D12*
%TO.P,J106,1,Pin_1*%
%TO.N,Net-(J106-Pin_1)*%
X76835000Y-71247000D03*
D13*
%TO.P,J106,2,Pin_2*%
%TO.N,Net-(J106-Pin_2)*%
X76835000Y-68707000D03*
%TD*%
D18*
%TO.P,D102,1,K*%
%TO.N,Net-(D102-K)*%
X125435000Y-99855000D03*
D19*
%TO.P,D102,2,A*%
%TO.N,Net-(D101-A)*%
X125435000Y-97315000D03*
%TD*%
D12*
%TO.P,J116,1,Pin_1*%
%TO.N,Net-(J115-Pin_4)*%
X83820000Y-96901000D03*
D13*
%TO.P,J116,2,Pin_2*%
%TO.N,Net-(J115-Pin_3)*%
X83820000Y-99441000D03*
%TO.P,J116,3,Pin_3*%
%TO.N,Net-(J116-Pin_3)*%
X83820000Y-101981000D03*
%TO.P,J116,4,Pin_4*%
%TO.N,Net-(J116-Pin_4)*%
X83820000Y-104521000D03*
%TD*%
D10*
%TO.P,R105,1*%
%TO.N,Net-(J121-Pin_1)*%
X67500000Y-129000000D03*
D11*
%TO.P,R105,2*%
%TO.N,Net-(D107-A)*%
X57340000Y-129000000D03*
%TD*%
D14*
%TO.P,J122,1,Pin_1*%
%TO.N,Net-(J122-Pin_1)*%
X51000000Y-92420000D03*
D15*
%TO.P,J122,2,Pin_2*%
%TO.N,+12V*%
X51000000Y-97500000D03*
%TD*%
D16*
%TO.P,D108,1,K*%
%TO.N,+5VA*%
X104500000Y-62103000D03*
D17*
%TO.P,D108,2,A*%
%TO.N,Net-(D108-A)*%
X104500000Y-72263000D03*
%TD*%
M02*
