%TF.GenerationSoftware,KiCad,Pcbnew,8.0.7*%
%TF.CreationDate,2025-02-15T00:34:58+01:00*%
%TF.ProjectId,main_board_proto,6d61696e-5f62-46f6-9172-645f70726f74,rev?*%
%TF.SameCoordinates,Original*%
%TF.FileFunction,Soldermask,Top*%
%TF.FilePolarity,Negative*%
%FSLAX46Y46*%
G04 Gerber Fmt 4.6, Leading zero omitted, Abs format (unit mm)*
G04 Created by KiCad (PCBNEW 8.0.7) date 2025-02-15 00:34:58*
%MOMM*%
%LPD*%
G01*
G04 APERTURE LIST*
G04 Aperture macros list*
%AMRoundRect*
0 Rectangle with rounded corners*
0 $1 Rounding radius*
0 $2 $3 $4 $5 $6 $7 $8 $9 X,Y pos of 4 corners*
0 Add a 4 corners polygon primitive as box body*
4,1,4,$2,$3,$4,$5,$6,$7,$8,$9,$2,$3,0*
0 Add four circle primitives for the rounded corners*
1,1,$1+$1,$2,$3*
1,1,$1+$1,$4,$5*
1,1,$1+$1,$6,$7*
1,1,$1+$1,$8,$9*
0 Add four rect primitives between the rounded corners*
20,1,$1+$1,$2,$3,$4,$5,0*
20,1,$1+$1,$4,$5,$6,$7,0*
20,1,$1+$1,$6,$7,$8,$9,0*
20,1,$1+$1,$8,$9,$2,$3,0*%
G04 Aperture macros list end*
%ADD10C,1.600000*%
%ADD11O,1.600000X1.600000*%
%ADD12R,1.700000X1.700000*%
%ADD13O,1.700000X1.700000*%
%ADD14R,3.000000X3.000000*%
%ADD15C,3.000000*%
%ADD16R,2.200000X2.200000*%
%ADD17O,2.200000X2.200000*%
%ADD18R,1.800000X1.800000*%
%ADD19C,1.800000*%
%ADD20R,2.000000X1.905000*%
%ADD21O,2.000000X1.905000*%
%ADD22RoundRect,0.250000X0.845000X-0.620000X0.845000X0.620000X-0.845000X0.620000X-0.845000X-0.620000X0*%
%ADD23O,2.190000X1.740000*%
%ADD24R,1.500000X1.500000*%
%ADD25C,1.500000*%
G04 APERTURE END LIST*
D10*
%TO.C,R107*%
X72500000Y-124500000D03*
D11*
X72500000Y-114340000D03*
%TD*%
D12*
%TO.C,J110*%
X77241000Y-87894000D03*
D13*
X77241000Y-85354000D03*
%TD*%
D14*
%TO.C,J111*%
X137500000Y-88298000D03*
D15*
X137500000Y-83218000D03*
X137500000Y-78138000D03*
%TD*%
D14*
%TO.C,J102*%
X51000000Y-66920000D03*
D15*
X51000000Y-72000000D03*
%TD*%
D16*
%TO.C,D101*%
X128991000Y-114460000D03*
D17*
X128991000Y-104300000D03*
%TD*%
D14*
%TO.C,J120*%
X104160000Y-50000000D03*
D15*
X99080000Y-50000000D03*
X94000000Y-50000000D03*
%TD*%
D10*
%TO.C,R101*%
X118831000Y-107348000D03*
D11*
X118831000Y-97188000D03*
%TD*%
D12*
%TO.C,J109*%
X83947000Y-58928000D03*
D13*
X83947000Y-61468000D03*
X83947000Y-64008000D03*
X83947000Y-66548000D03*
%TD*%
D18*
%TO.C,D106*%
X126578000Y-57310000D03*
D19*
X126578000Y-54770000D03*
%TD*%
D20*
%TO.C,Q102*%
X58500000Y-105000000D03*
D21*
X58500000Y-107540000D03*
X58500000Y-110080000D03*
%TD*%
D10*
%TO.C,R104*%
X84000000Y-124580000D03*
D11*
X84000000Y-114420000D03*
%TD*%
D14*
%TO.C,J119*%
X97340000Y-130500000D03*
D15*
X102420000Y-130500000D03*
X107500000Y-130500000D03*
%TD*%
D14*
%TO.C,J114*%
X137373000Y-72042000D03*
D15*
X137373000Y-66962000D03*
X137373000Y-61882000D03*
%TD*%
D22*
%TO.C,J115*%
X68326000Y-106172000D03*
D23*
X68326000Y-103632000D03*
X68326000Y-101092000D03*
X68326000Y-98552000D03*
X68326000Y-96012000D03*
X68326000Y-93472000D03*
%TD*%
D16*
%TO.C,D105*%
X129753000Y-71534000D03*
D17*
X129753000Y-61374000D03*
%TD*%
D22*
%TO.C,J107*%
X68326000Y-70612000D03*
D23*
X68326000Y-68072000D03*
X68326000Y-65532000D03*
X68326000Y-62992000D03*
X68326000Y-60452000D03*
X68326000Y-57912000D03*
%TD*%
D20*
%TO.C,Q103*%
X58500000Y-117000000D03*
D21*
X58500000Y-119540000D03*
X58500000Y-122080000D03*
%TD*%
D18*
%TO.C,D104*%
X126959000Y-78265000D03*
D19*
X126959000Y-75725000D03*
%TD*%
D20*
%TO.C,Q101*%
X58500000Y-93000000D03*
D21*
X58500000Y-95540000D03*
X58500000Y-98080000D03*
%TD*%
D24*
%TO.C,U103*%
X93420000Y-94234000D03*
D25*
X95960000Y-94234000D03*
X98500000Y-94234000D03*
%TD*%
D14*
%TO.C,J103*%
X51000000Y-78920000D03*
D15*
X51000000Y-84000000D03*
%TD*%
D12*
%TO.C,J113*%
X84099000Y-78115000D03*
D13*
X84099000Y-80655000D03*
X84099000Y-83195000D03*
X84099000Y-85735000D03*
%TD*%
D22*
%TO.C,J112*%
X68351000Y-88275000D03*
D23*
X68351000Y-85735000D03*
X68351000Y-83195000D03*
X68351000Y-80655000D03*
X68351000Y-78115000D03*
X68351000Y-75575000D03*
%TD*%
D16*
%TO.C,D109*%
X105000000Y-76581000D03*
D17*
X105000000Y-86741000D03*
%TD*%
D16*
%TO.C,D110*%
X105000000Y-90420000D03*
D17*
X105000000Y-100580000D03*
%TD*%
D14*
%TO.C,J104*%
X137500000Y-117000000D03*
D15*
X137500000Y-111920000D03*
%TD*%
D14*
%TO.C,J108*%
X137627000Y-104808000D03*
D15*
X137627000Y-99728000D03*
X137627000Y-94648000D03*
%TD*%
D12*
%TO.C,J121*%
X75460000Y-130500000D03*
D13*
X78000000Y-130500000D03*
X80540000Y-130500000D03*
X83080000Y-130500000D03*
%TD*%
D10*
%TO.C,R102*%
X120736000Y-88552000D03*
D11*
X120736000Y-78392000D03*
%TD*%
D14*
%TO.C,J101*%
X51000000Y-54840000D03*
D15*
X51000000Y-59920000D03*
%TD*%
D12*
%TO.C,J117*%
X77089000Y-105664000D03*
D13*
X77089000Y-103124000D03*
%TD*%
D14*
%TO.C,J123*%
X51000000Y-104920000D03*
D15*
X51000000Y-110000000D03*
%TD*%
D10*
%TO.C,R103*%
X120101000Y-67216000D03*
D11*
X120101000Y-57056000D03*
%TD*%
D24*
%TO.C,U102*%
X93293000Y-83058000D03*
D25*
X95833000Y-83058000D03*
X98373000Y-83058000D03*
%TD*%
D14*
%TO.C,J105*%
X116960000Y-131000000D03*
D15*
X122040000Y-131000000D03*
%TD*%
D12*
%TO.C,J118*%
X92460000Y-59817000D03*
D13*
X95000000Y-59817000D03*
%TD*%
D14*
%TO.C,J124*%
X51000000Y-116920000D03*
D15*
X51000000Y-122000000D03*
%TD*%
D10*
%TO.C,R106*%
X78500000Y-124500000D03*
D11*
X78500000Y-114340000D03*
%TD*%
D18*
%TO.C,D107*%
X53040000Y-129000000D03*
D19*
X50500000Y-129000000D03*
%TD*%
D16*
%TO.C,D103*%
X129499000Y-92489000D03*
D17*
X129499000Y-82329000D03*
%TD*%
D24*
%TO.C,U101*%
X93293000Y-71628000D03*
D25*
X95833000Y-71628000D03*
X98373000Y-71628000D03*
%TD*%
D12*
%TO.C,J106*%
X76835000Y-71247000D03*
D13*
X76835000Y-68707000D03*
%TD*%
D18*
%TO.C,D102*%
X125435000Y-99855000D03*
D19*
X125435000Y-97315000D03*
%TD*%
D12*
%TO.C,J116*%
X83820000Y-96901000D03*
D13*
X83820000Y-99441000D03*
X83820000Y-101981000D03*
X83820000Y-104521000D03*
%TD*%
D10*
%TO.C,R105*%
X67500000Y-129000000D03*
D11*
X57340000Y-129000000D03*
%TD*%
D14*
%TO.C,J122*%
X51000000Y-92420000D03*
D15*
X51000000Y-97500000D03*
%TD*%
D16*
%TO.C,D108*%
X104500000Y-62103000D03*
D17*
X104500000Y-72263000D03*
%TD*%
M02*
