M48
INCH
T1C0.0315
T2C0.0354
T3C0.0394
T4C0.0433
T5C0.0469
T6C0.0598
%
G90
G05
T1
X2.2575Y-5.0787
X2.6575Y-5.0787
X2.8543Y-4.5016
X2.8543Y-4.9016
X3.0906Y-4.5016
X3.0906Y-4.9016
X3.3071Y-4.5047
X3.3071Y-4.9047
X4.6784Y-3.8263
X4.6784Y-4.2263
X4.7284Y-2.2463
X4.7284Y-2.6463
X4.7534Y-3.0863
X4.7534Y-3.4863
T2
X1.9882Y-5.0787
X2.0882Y-5.0787
X4.9384Y-3.8313
X4.9384Y-3.9313
X4.9834Y-2.1563
X4.9834Y-2.2563
X4.9984Y-2.9813
X4.9984Y-3.0813
T3
X2.9709Y-5.1378
X3.025Y-2.705
X3.025Y-2.805
X3.035Y-4.06
X3.035Y-4.16
X3.041Y-3.3604
X3.041Y-3.4604
X3.0709Y-5.1378
X3.1709Y-5.1378
X3.2709Y-5.1378
X3.3Y-3.815
X3.3Y-3.915
X3.3Y-4.015
X3.3Y-4.115
X3.305Y-2.32
X3.305Y-2.42
X3.305Y-2.52
X3.305Y-2.62
X3.311Y-3.0754
X3.311Y-3.1754
X3.311Y-3.2754
X3.311Y-3.3754
X3.6402Y-2.355
X3.673Y-2.82
X3.673Y-3.27
X3.678Y-3.71
X3.7402Y-2.355
X3.773Y-2.82
X3.773Y-3.27
X3.778Y-3.71
X3.873Y-2.82
X3.873Y-3.27
X3.878Y-3.71
T4
X2.3031Y-3.6614
X2.3031Y-3.7614
X2.3031Y-3.8614
X2.3031Y-4.1339
X2.3031Y-4.2339
X2.3031Y-4.3339
X2.3031Y-4.6063
X2.3031Y-4.7063
X2.3031Y-4.8063
X4.1142Y-2.445
X4.1142Y-2.845
X4.1339Y-3.015
X4.1339Y-3.415
X4.1339Y-3.5598
X4.1339Y-3.9598
X5.0784Y-4.1063
X5.0784Y-4.5063
X5.0984Y-3.2413
X5.0984Y-3.6413
X5.1084Y-2.4163
X5.1084Y-2.8163
T5
X2.69Y-2.28
X2.69Y-2.38
X2.69Y-2.48
X2.69Y-2.58
X2.69Y-2.68
X2.69Y-2.78
X2.69Y-3.68
X2.69Y-3.78
X2.69Y-3.88
X2.69Y-3.98
X2.69Y-4.08
X2.69Y-4.18
X2.691Y-2.9754
X2.691Y-3.0754
X2.691Y-3.1754
X2.691Y-3.2754
X2.691Y-3.3754
X2.691Y-3.4754
T6
X2.0079Y-2.1591
X2.0079Y-2.3591
X2.0079Y-2.6346
X2.0079Y-2.8346
X2.0079Y-3.1071
X2.0079Y-3.3071
X2.0079Y-3.6386
X2.0079Y-3.8386
X2.0079Y-4.1307
X2.0079Y-4.3307
X2.0079Y-4.6031
X2.0079Y-4.8031
X3.7008Y-1.9685
X3.8323Y-5.1378
X3.9008Y-1.9685
X4.0323Y-5.1378
X4.1008Y-1.9685
X4.2323Y-5.1378
X4.6047Y-5.1575
X4.8047Y-5.1575
X5.4084Y-2.4363
X5.4084Y-2.6363
X5.4084Y-2.8363
X5.4134Y-3.0763
X5.4134Y-3.2763
X5.4134Y-3.4763
X5.4134Y-4.4063
X5.4134Y-4.6063
X5.4184Y-3.7263
X5.4184Y-3.9263
X5.4184Y-4.1263
M30
